<svg width="352" height="372" viewBox="0 0 352 372" fill="none" xmlns="http://www.w3.org/2000/svg">
<path d="M344.888 181.88C343.445 276.862 266.661 352.668 173.387 351.196C80.1113 349.727 5.66767 271.538 7.11147 176.558C8.55528 81.5757 85.3397 5.77036 178.614 7.24164C271.889 8.7113 346.333 86.9 344.888 181.88Z" fill="#4A393E"/>
<mask id="mask0_232_1028" style="mask-type:luminance" maskUnits="userSpaceOnUse" x="0" y="0" width="352" height="359">
<path d="M178.504 14.4611C89.2885 13.0542 15.5823 85.8204 14.2013 176.669C12.8204 267.517 84.2795 342.57 173.496 343.977C262.712 345.384 336.417 272.618 337.799 181.769C339.18 90.9207 267.721 15.8662 178.504 14.4611ZM173.276 358.416C149.522 358.042 126.547 352.94 104.989 343.252C94.6287 338.595 84.655 332.877 75.3453 326.257C66.1258 319.7 57.4768 312.202 49.6384 303.969C41.8001 295.736 34.7074 286.702 28.5572 277.115C22.3469 267.435 17.0432 257.106 12.7935 246.417C3.95112 224.175 -0.345947 200.633 0.0217443 176.445C0.389435 152.257 5.39994 128.861 14.9141 106.91C19.4866 96.3594 25.1017 86.2023 31.6032 76.7236C38.0419 67.3351 45.4059 58.5284 53.4907 50.5452C61.5756 42.5636 70.4483 35.3425 79.8626 29.0787C89.3692 22.7553 99.5118 17.3553 110.009 13.0268C131.851 4.02353 154.97 -0.353241 178.724 0.0222473C202.478 0.396088 225.453 5.49802 247.011 15.1862C257.371 19.8434 267.344 25.5609 276.655 32.1808C285.874 38.7379 294.523 46.2361 302.361 54.4691C310.199 62.7021 317.292 71.7361 323.444 81.3227C329.653 91.0028 334.956 101.331 339.207 112.021C348.049 134.263 352.347 157.805 351.978 181.993C351.611 206.181 346.601 229.577 337.087 251.528C332.513 262.079 326.898 272.234 320.397 281.714C313.958 291.103 306.594 299.91 298.509 307.891C290.424 315.873 281.552 323.095 272.138 329.359C262.632 335.683 252.488 341.083 241.991 345.411C220.149 354.414 197.03 358.791 173.276 358.416Z" fill="white"/>
</mask>
<g mask="url(#mask0_232_1028)">
<path d="M178.504 14.4611C89.2885 13.0542 15.5823 85.8204 14.2013 176.669C12.8204 267.517 84.2795 342.57 173.496 343.977C262.712 345.384 336.417 272.618 337.799 181.769C339.18 90.9207 267.721 15.8662 178.504 14.4611ZM173.276 358.416C149.522 358.042 126.547 352.94 104.989 343.252C94.6287 338.595 84.655 332.877 75.3453 326.257C66.1258 319.7 57.4768 312.202 49.6384 303.969C41.8001 295.736 34.7074 286.702 28.5572 277.115C22.3469 267.435 17.0432 257.106 12.7935 246.417C3.95112 224.175 -0.345947 200.633 0.0217443 176.445C0.389435 152.257 5.39994 128.861 14.9141 106.91C19.4866 96.3594 25.1017 86.2023 31.6032 76.7236C38.0419 67.3351 45.4059 58.5284 53.4907 50.5452C61.5756 42.5636 70.4483 35.3425 79.8626 29.0787C89.3692 22.7553 99.5118 17.3553 110.009 13.0268C131.851 4.02353 154.97 -0.353241 178.724 0.0222473C202.478 0.396088 225.453 5.49802 247.011 15.1862C257.371 19.8434 267.344 25.5609 276.655 32.1808C285.874 38.7379 294.523 46.2361 302.361 54.4691C310.199 62.7021 317.292 71.7361 323.444 81.3227C329.653 91.0028 334.956 101.331 339.207 112.021C348.049 134.263 352.347 157.805 351.978 181.993C351.611 206.181 346.601 229.577 337.087 251.528C332.513 262.079 326.898 272.234 320.397 281.714C313.958 291.103 306.594 299.91 298.509 307.891C290.424 315.873 281.552 323.095 272.138 329.359C262.632 335.683 252.488 341.083 241.991 345.411C220.149 354.414 197.03 358.791 173.276 358.416Z" fill="url(#paint0_linear_232_1028)"/>
</g>
<path d="M178.557 11.0367C87.4864 9.60083 12.2484 83.8801 10.8387 176.616C9.42902 269.351 82.3733 345.965 173.444 347.401C264.514 348.837 339.752 274.558 341.162 181.822C342.572 89.0868 269.627 12.4725 178.557 11.0367ZM173.328 354.991C150.027 354.624 127.491 349.62 106.347 340.117C96.1856 335.552 86.4029 329.943 77.271 323.45C68.2275 317.019 59.743 309.662 52.0531 301.585C44.3639 293.509 37.406 284.646 31.373 275.241C25.2815 265.746 20.0794 255.617 15.911 245.132C7.23845 223.318 3.02391 200.225 3.38462 176.498C3.74526 152.771 8.65963 129.823 17.9911 108.292C22.4761 97.9435 27.9837 87.9829 34.3608 78.6831C40.6771 69.4736 47.901 60.8344 55.8319 53.0043C63.7627 45.1758 72.4668 38.0901 81.7021 31.9455C91.0267 25.743 100.975 20.4461 111.271 16.2014C132.694 7.37057 155.371 3.07919 178.672 3.44662C201.974 3.81403 224.509 8.81766 245.653 18.3189C255.816 22.8875 265.598 28.4954 274.729 34.988C283.773 41.421 292.258 48.7758 299.948 56.8525C307.637 64.9292 314.594 73.7923 320.628 83.1953C326.72 92.6917 331.921 102.821 336.09 113.306C344.762 135.12 348.976 158.213 348.615 181.94C348.255 205.667 343.341 228.615 334.009 250.146C329.524 260.493 324.017 270.455 317.641 279.753C311.325 288.963 304.1 297.602 296.169 305.434C288.237 313.264 279.533 320.349 270.298 326.492C260.973 332.695 251.026 337.992 240.73 342.237C219.307 351.067 196.629 355.359 173.328 354.991Z" fill="#8BEBF4"/>
<path d="M143.776 230.234L132.769 269.08L128.419 284.433C127.984 285.205 106.701 307.451 105.856 308.209C101.616 312.018 92.2743 314.966 78.4994 310.115C61.9813 304.301 43.8086 287.722 39.4562 279.012C38.6315 277.363 38.209 275.093 38.1764 272.452C38.0357 261.134 45.0632 242.984 58.5103 237.592C66.6985 241.178 89.0289 255.354 93.3221 259.989C99.8039 248.241 125.328 219.761 139.31 217.019L143.776 230.234Z" fill="#EFEFEF"/>
<path d="M132.768 269.08L128.419 284.433C127.984 285.205 106.7 307.451 105.855 308.209C101.616 312.018 92.2737 314.966 78.4988 310.115C61.9807 304.301 43.808 287.722 39.4556 279.012C38.6309 277.363 38.2084 275.093 38.1758 272.452C43.1408 274.207 50.4839 271.973 53.1981 269.177C52.4146 272.867 61.9481 291.532 82.2527 295.368C102.558 299.207 102.076 283.091 100.472 268.997C102.452 270.323 116.68 267.214 120.051 260.788L128.899 263.882L132.768 269.08Z" fill="#B3B3B3"/>
<path d="M123.481 289.799C117.019 296.654 106.446 307.679 105.856 308.209C101.616 312.018 92.2738 314.966 78.4989 310.115C67.6813 306.307 56.1558 297.882 48.2646 290.076C53.568 284.001 59.2346 285.849 67.788 291.72C76.7456 297.868 80.105 300.143 82.425 296.393C82.5916 296.124 82.7538 295.82 82.9128 295.486C84.9586 291.203 86.4466 282.216 90.7372 281.138C94.2281 280.261 97.6528 283.745 100.81 284.256C101.834 284.423 102.83 284.277 103.791 283.566C107.714 280.665 114.712 272.216 118.555 274.582C120.725 275.916 122.419 283.474 123.481 289.799Z" fill="#443237"/>
<path d="M123.481 289.799C117.019 296.654 106.446 307.679 105.856 308.209C101.616 312.018 92.2738 314.966 78.4989 310.115C67.6813 306.307 56.1558 297.882 48.2646 290.076C53.568 284.001 59.2346 285.849 67.788 291.72C76.7456 297.868 80.105 300.143 82.425 296.393C82.5916 296.124 82.7538 295.82 82.9128 295.486C95.2553 297.605 99.647 292.099 100.81 284.256C101.834 284.423 102.83 284.277 103.791 283.566C107.714 280.665 114.712 272.216 118.555 274.582C120.725 275.916 122.419 283.474 123.481 289.799Z" fill="#352429"/>
<path d="M113.122 234.73C104.89 242.955 96.8234 252.832 93.2032 259.086C87.7829 253.887 66.4295 240.456 58.7257 237.083L58.5194 236.993L58.3105 237.077C50.7294 240.116 44.2215 247.659 40.4559 257.771C37.3331 266.157 36.7359 274.795 38.9699 279.265C41.2051 283.737 46.9911 290.179 54.0701 296.079C62.141 302.805 70.7534 307.977 78.3211 310.64C82.9815 312.281 87.3934 313.138 91.4925 313.203C92.9783 313.225 94.4233 313.145 95.8239 312.959C100.034 312.403 103.726 310.864 106.217 308.626C106.691 308.199 112.64 302.004 117.682 296.712C124.903 289.134 128.675 285.095 128.892 284.709L127.945 284.156C127.948 284.151 127.952 284.144 127.957 284.136C127.721 284.48 124.658 287.798 116.768 296.077C111.267 301.851 105.894 307.435 105.495 307.793C101.15 311.696 91.8235 314.218 78.6775 309.591C71.2283 306.968 62.7346 301.864 54.761 295.219C47.7914 289.411 42.1131 283.105 39.9421 278.761C38.9471 276.77 38.5395 273.672 38.7943 270.036C39.0582 266.272 39.9854 262.167 41.4759 258.164C45.0979 248.439 51.2945 241.175 58.5016 238.195C66.5854 241.808 88.6194 255.721 92.9255 260.37L93.4342 260.92L93.7976 260.261C97.1764 254.137 105.437 243.964 113.885 235.523C124.287 225.131 133.353 218.752 139.413 217.565L139.206 216.474C130.749 218.132 119.233 228.624 113.122 234.73Z" fill="#787878"/>
<path d="M96.7758 263.232C95.1051 261.176 93.6623 259.399 92.7899 258.68L92.1035 259.542C92.8911 260.192 94.3697 262.012 95.9351 263.941C96.762 264.96 97.6126 266.038 98.4753 267.024C101.228 270.173 103.291 270.276 103.291 270.276C101.763 269.375 98.9976 265.969 96.7758 263.232Z" fill="#787878"/>
<path d="M68.4687 252.315L54.114 273.304L52.6005 275.517C40.6522 288.041 27.2313 277.832 24.3686 266.802C24.0605 265.617 24.01 264.233 24.1618 262.702C25.4305 249.972 40.788 226.953 40.3246 221.877C39.8049 216.192 44.071 202.681 51.0368 198.964C58.0024 195.247 64.0167 198.304 67.0729 204.586C70.1289 210.868 69.5729 215.549 66.6429 216.923C63.7128 218.296 60.6779 226.579 61.3392 230.911C68.7947 234.854 70.9917 245.812 68.4687 252.315Z" fill="#EFEFEF"/>
<path d="M54.114 273.304L52.6005 275.517C40.6522 288.041 27.2313 277.832 24.3686 266.802C24.0605 265.617 24.01 264.233 24.1618 262.702L33.3049 265.026C33.3552 276.556 48.9502 273.554 53.1987 269.177C53.0314 269.965 53.3351 271.438 54.114 273.304Z" fill="#B3B3B3"/>
<path d="M61.8427 230.555C61.3723 226.339 64.2875 218.638 66.871 217.428C67.989 216.903 68.8172 215.942 69.2661 214.65C70.1552 212.087 69.5499 208.426 67.5616 204.339C65.8474 200.817 63.2261 198.321 60.1807 197.313C57.2628 196.348 54.0133 196.749 50.7836 198.472C46.4461 200.786 43.6509 206.355 42.3706 209.467C40.5178 213.973 39.5016 218.864 39.7816 221.929C39.9685 223.974 37.0392 229.856 33.9379 236.084C28.6352 246.733 22.0356 259.985 23.8414 266.944C24.6784 270.168 26.4133 273.357 28.7265 275.921C31.1862 278.648 34.1293 280.527 37.2377 281.355C38.2443 281.624 39.3888 281.814 40.6399 281.834C42.6963 281.866 45.0359 281.431 47.5252 280.14C51.165 278.251 52.2093 275.13 52.2093 275.13C46.5075 281.107 41.0709 281.231 37.5141 280.282C31.7683 278.748 26.5795 273.146 24.896 266.66C23.1964 260.111 29.6917 247.068 34.9109 236.587C38.3597 229.661 41.0838 224.19 40.8677 221.826C40.607 218.973 41.6154 214.179 43.3768 209.897C45.4893 204.76 48.2995 201.052 51.2899 199.457C54.2536 197.874 57.2115 197.499 59.8438 198.371C62.6075 199.284 65.0014 201.579 66.5842 204.833C68.4135 208.592 69.0163 212.036 68.2377 214.279C67.8843 215.298 67.2711 216.016 66.4149 216.417C64.925 217.117 63.3249 219.431 62.1348 222.61C60.9716 225.716 60.4728 228.852 60.8004 230.996L60.8428 231.274L61.088 231.403C68.0542 235.088 70.5031 245.561 67.9613 252.11C67.9613 252.11 70.2373 249.596 69.9745 245.153C69.8829 243.601 69.6097 242.025 69.1693 240.496C67.8699 235.987 65.2739 232.469 61.8427 230.555Z" fill="#787878"/>
<path d="M66.6427 216.923C63.7127 218.296 60.6777 226.579 61.3391 230.911C64.4645 233.984 67.444 250.571 59.4444 255.876C51.4448 261.181 49.9967 271.362 40.4305 273.349C31.9588 275.111 20.685 269.34 15.1661 262.006C14.4532 261.057 13.8364 260.085 13.3339 259.099C8.94006 250.471 12.5521 236.127 18.3341 227.825C23.0157 221.104 32.1626 216.882 40.447 218.52C41.2792 212.018 45.2147 202.07 51.0366 198.964C56.2096 196.205 60.8567 197.18 64.1588 200.438C65.3028 201.566 66.2863 202.97 67.0727 204.586C70.1287 210.868 69.5728 215.549 66.6427 216.923Z" fill="#352429"/>
<path d="M66.6427 216.923C63.7126 218.296 60.6777 226.579 61.339 230.911C64.4645 233.984 67.4439 250.571 59.4444 255.876C51.4447 261.181 49.9967 271.362 40.4305 273.349C31.9587 275.111 20.6849 269.34 15.166 262.006C20.3861 266.747 21.912 258.627 17.2165 255.26C21.131 249.324 25.2694 251.386 32.3768 258.288C37.7876 263.542 44.9345 257.499 50.1731 251.78C59.201 241.924 55.2952 225.816 50.2485 222.897C52.5491 223.057 55.3146 216.559 59.5805 215.022C63.2285 213.707 65.5561 205.875 64.1587 200.438C65.3027 201.566 66.2863 202.97 67.0726 204.586C70.1287 210.868 69.5727 215.549 66.6427 216.923Z" fill="#443237"/>
<path d="M53.7495 226.491C60.4758 230.547 62.3043 243.166 57.1915 249.915C52.0786 256.664 46.0671 264.057 38.4629 264.596C30.8585 265.136 29.0391 262.556 27.2298 259.318C25.4203 256.079 19.7028 252.882 17.2163 255.26C22.8313 256.285 24.5744 263.883 26.7319 265.48C28.8895 267.079 36.7365 270.515 45.3021 265.218C53.8675 259.922 58.6689 253.723 60.2665 249.635C61.864 245.545 64.0281 230.768 53.7495 226.491Z" fill="#2F2825"/>
<path d="M68.2378 214.279C67.8844 215.297 67.2712 216.016 66.415 216.417C64.9251 217.117 63.325 219.431 62.1349 222.61C60.9717 225.716 60.4729 228.852 60.8005 230.996L60.8086 231.038C60.8249 231.108 60.8333 231.191 60.8304 231.29L61.0621 231.417C62.6498 233.161 64.509 239.412 63.9197 245.683C63.6196 248.876 62.5482 253.154 59.1471 255.41C55.7192 257.682 53.4906 260.794 51.3352 263.801C48.4283 267.859 45.6824 271.691 40.3221 272.806C39.2004 273.038 38.0395 273.138 36.8554 273.12C27.7856 272.977 17.4115 265.898 13.8183 258.843C9.53449 250.432 13.0583 236.361 18.7798 228.147C24.2969 220.225 36.4716 215.533 45.8019 221.17C50.9711 224.293 55.07 228.354 57.3438 232.601C60.1254 237.8 60.1392 243.012 57.3845 248.094C51.1115 259.666 42.8323 265.142 33.4428 263.924C31.0084 263.608 29.5767 261.643 28.0608 259.563C26.5715 257.52 24.9355 255.339 22.1971 254.372C19.6019 253.457 17.2167 255.26 17.2167 255.26C22.8048 254.213 24.9323 257.133 27.1847 260.225C28.7701 262.401 30.4096 264.65 33.3052 265.026C38.2499 265.666 42.9377 264.538 47.2379 261.671C51.428 258.878 55.1631 254.49 58.3395 248.631C59.87 245.808 60.6016 242.891 60.5144 239.964C60.4354 237.323 59.691 234.666 58.3017 232.07C55.9355 227.649 51.694 223.439 46.3587 220.214C44.7158 219.221 42.9328 218.511 41.0602 218.085C41.4365 215.573 42.2523 212.632 43.3769 209.897C45.4894 204.76 48.2996 201.052 51.29 199.457C53.2697 198.4 55.2245 197.879 57.0999 197.908C61.0165 197.971 64.4734 200.494 66.5843 204.833C68.4136 208.592 69.0164 212.036 68.2378 214.279ZM67.5617 204.339C65.2632 199.615 61.4561 196.867 57.1168 196.798C55.0573 196.766 52.9266 197.33 50.7837 198.472C46.4462 200.786 43.651 206.355 42.3707 209.467C41.2058 212.3 40.3732 215.285 39.9839 217.873C37.0266 217.379 33.875 217.578 30.7144 218.488C25.5107 219.988 20.8364 223.274 17.8901 227.504C11.9834 235.984 8.37695 250.573 12.85 259.354C15.047 263.667 19.3612 267.801 24.6866 270.695C28.8176 272.94 33.1094 274.157 36.9325 274.216C38.1936 274.236 39.4039 274.131 40.5403 273.894C46.3147 272.693 49.1814 268.692 52.2165 264.457C54.3137 261.529 56.4823 258.503 59.7424 256.34C63.5076 253.844 64.6826 249.225 65.0054 245.79C65.5851 239.619 63.8402 232.83 61.8551 230.653C61.3262 226.462 64.267 218.648 66.8711 217.428C67.9891 216.902 68.8173 215.942 69.2662 214.65C70.1553 212.087 69.55 208.426 67.5617 204.339Z" fill="#352429"/>
<path d="M116.288 344.834C117.731 345.596 119.426 345.746 121 345.895C121.484 345.903 121.962 346.404 122.445 346.534C123.655 346.678 124.87 346.451 126.08 346.592C128.379 346.876 130.547 347.774 132.969 347.935C133.817 347.949 134.658 348.455 135.504 348.592C136.11 348.602 136.718 348.487 137.322 348.621C137.443 348.623 137.561 348.871 137.68 348.997C138.163 349.129 138.652 348.889 139.134 349.019C139.858 349.279 140.462 349.411 141.31 349.425C141.674 349.43 142.032 349.806 142.395 349.812C144.575 349.97 146.754 350.128 148.926 350.779C151.34 351.435 153.766 351.349 156.184 351.757C157.513 352.025 158.852 351.677 160.179 352.066C164.405 353.244 168.533 352.693 172.885 353.502C174.455 353.897 176.03 353.921 177.604 354.07C178.087 354.2 178.568 354.455 179.053 354.463C186.565 354.704 194.077 354.824 201.592 354.819C202.2 354.704 202.813 354.344 203.422 354.107C203.909 353.991 204.39 354.245 204.876 354.129C205.242 354.012 205.612 353.523 205.976 353.53C207.432 353.43 208.888 353.328 210.349 352.982C213.514 352.044 216.679 351.23 219.844 350.292C221.672 349.704 222.906 348.242 224.614 347.529C225.103 347.288 225.71 347.176 226.562 346.942C228.269 346.228 229.858 345.389 231.445 344.673C234.621 342.996 237.911 341.937 240.969 340.134C241.58 339.773 242.669 339.913 242.564 338.801C244.977 338.727 246.728 336.624 248.844 335.52C237.443 299.428 232.664 259.66 233.115 248.845C233.197 246.892 232.882 244.736 232.281 242.475C230.747 236.695 227.348 230.229 223.949 224.708C223.023 223.205 222.099 221.772 221.211 220.443C223.368 219.3 228.69 219.225 228.88 217.566C229.089 215.718 222.316 202.836 222.316 202.836L141.73 231.493L136.394 233.389C118.002 251.762 98.1263 306.159 103.985 339.001C106.62 341.071 109.563 342.556 112.67 343.666C113.876 344.054 115.084 344.32 116.288 344.834Z" fill="#EFEFEF"/>
<path d="M228.88 217.566C228.69 219.225 223.368 219.3 221.211 220.443C222.098 221.772 223.023 223.205 223.948 224.708C222.239 224.193 221.128 224.051 220.815 224.352C217.946 227.105 200.942 237.995 180.508 242.486C162.899 246.357 147.187 240.905 141.729 231.493L222.315 202.836C222.315 202.836 229.088 215.718 228.88 217.566Z" fill="#B3B3B3"/>
<path d="M201.592 354.819C202.199 354.704 202.812 354.343 203.421 354.107C203.908 353.991 204.389 354.245 204.875 354.129C205.241 354.012 205.611 353.523 205.975 353.53C207.431 353.43 208.887 353.328 210.348 352.982C213.513 352.044 216.678 351.23 219.843 350.292C221.671 349.704 222.905 348.242 224.613 347.529C225.102 347.288 225.709 347.176 226.561 346.942C228.268 346.228 229.857 345.389 231.444 344.673C234.621 342.995 237.911 341.937 240.968 340.133C241.579 339.773 242.668 339.913 242.563 338.801C244.977 338.727 246.727 336.624 248.843 335.52C237.442 299.428 232.663 259.66 233.114 248.845C233.196 246.892 232.881 244.736 232.28 242.475L215.611 237.107C210.61 247.15 209.197 280.891 202.742 286.9C207.121 285.857 216 275.816 216.398 273.601C218.324 279.8 220.128 328.4 188.463 354.7C192.839 354.78 197.216 354.82 201.592 354.819Z" fill="#B3B3B3"/>
<path d="M132.81 341.582C128.629 337.566 125.92 332.34 127.743 324.099C129.565 315.858 125.514 311.227 118.337 304.942C112.399 299.744 112.283 286.025 115.282 269.222C106.189 291.975 100.478 319.346 103.984 339.001C106.619 341.071 109.562 342.556 112.67 343.666C113.876 344.054 115.084 344.32 116.289 344.834C117.732 345.596 119.426 345.746 121 345.895C121.484 345.903 121.962 346.404 122.445 346.534C123.655 346.678 124.87 346.451 126.08 346.592C128.379 346.876 130.547 347.774 132.969 347.935C133.817 347.949 134.658 348.455 135.505 348.592C135.682 348.595 135.86 348.587 136.039 348.578C135.478 345.477 134.148 342.867 132.81 341.582Z" fill="#352429"/>
<path d="M109.101 289.263C115.571 265.891 126.434 244.115 136.776 233.786C136.776 233.786 134.501 234.285 130.948 238.883C122.008 250.449 113.522 269.2 108.052 288.961C104.678 301.147 102.736 313.025 102.435 323.315C102.273 328.871 102.575 333.933 103.334 338.472C103.762 338.833 104.2 339.175 104.645 339.503C102.175 326.447 103.669 308.889 109.101 289.263Z" fill="#787878"/>
<path d="M239.435 295.813C235.295 274.648 233.369 255.829 233.66 248.869C233.902 243.076 230.861 234.964 224.621 224.755C223 222.106 221.364 219.652 219.919 217.579L218.947 218.117C224.47 226.038 232.949 239.756 232.57 248.821C232.269 256.023 234.163 274.551 238.365 296.031C240.555 307.224 243.806 321.426 248.351 335.797C248.672 335.605 248.998 335.431 249.335 335.286C244.834 321.023 241.611 306.931 239.435 295.813Z" fill="#787878"/>
<path d="M247.199 330.139C236.547 331.024 222.587 324.696 212.258 317.463C203.542 311.361 197.413 304.613 198.035 301.013C199.628 291.781 191.731 293.016 191.372 284.739C191.013 276.464 198.954 272.392 207.376 268.576C207.898 268.338 208.443 268.018 209.001 267.624C214.751 263.564 222.181 251.594 226.36 240.569C227.324 238.027 228.115 235.538 228.672 233.204C230.201 236.327 231.489 239.492 232.28 242.475C232.882 244.736 233.197 246.892 233.114 248.845C232.686 259.125 236.984 295.562 247.199 330.139Z" fill="#443237"/>
<path d="M247.199 330.139C236.547 331.024 222.587 324.696 212.258 317.463C218.697 296.861 217.57 277.375 216.398 273.601C216.001 275.816 207.121 285.857 202.742 286.9C205.542 284.294 207.393 276.469 209.001 267.624C214.75 263.564 222.18 251.594 226.36 240.569L232.28 242.475C232.881 244.736 233.196 246.892 233.114 248.845C232.685 259.125 236.983 295.562 247.199 330.139Z" fill="#352429"/>
<mask id="mask1_232_1028" style="mask-type:luminance" maskUnits="userSpaceOnUse" x="89" y="321" width="169" height="38">
<path d="M173.496 343.977C144.931 343.527 118.187 335.526 95.0705 321.876L89.2754 335.201C94.3849 338.153 99.6348 340.844 104.989 343.252C126.547 352.94 149.522 358.042 173.276 358.416C197.029 358.791 220.149 354.414 241.991 345.411C247.289 343.228 252.496 340.768 257.575 338.058L252.114 324.597C228.697 337.36 201.883 344.425 173.496 343.977Z" fill="white"/>
</mask>
<g mask="url(#mask1_232_1028)">
<path d="M173.496 343.977C144.931 343.527 118.187 335.526 95.0705 321.876L89.2754 335.201C94.3849 338.153 99.6348 340.844 104.989 343.252C126.547 352.94 149.522 358.042 173.276 358.416C197.029 358.791 220.149 354.414 241.991 345.411C247.289 343.228 252.496 340.768 257.575 338.058L252.114 324.597C228.697 337.36 201.883 344.425 173.496 343.977Z" fill="url(#paint1_linear_232_1028)"/>
</g>
<path d="M173.444 347.401C144.414 346.944 117.227 338.846 93.702 325.023L90.6445 332.054C95.7476 335.015 100.994 337.713 106.347 340.117C127.491 349.62 150.027 354.624 173.328 354.991C196.629 355.359 219.307 351.067 240.73 342.237C246.02 340.055 251.217 337.594 256.286 334.879L253.404 327.777C229.571 340.706 202.303 347.856 173.444 347.401Z" fill="#8BEBF4"/>
<path d="M227.849 213.476C223.262 220.299 209.049 230.4 192.549 236.247C185.417 238.775 177.857 240.509 170.464 240.839C145.961 241.934 139.315 232.571 137.553 220.941L181.559 219.687L204.493 219.034C221.22 211.027 224.1 205.024 224.143 202.186C226.67 203.337 228.626 210.281 227.849 213.476Z" fill="#BF0000"/>
<path d="M227.85 213.476C223.262 220.299 209.049 230.4 192.55 236.247C195.126 228.984 170.402 235.802 154.712 232.444L181.559 219.687L204.493 219.034C221.22 211.027 224.101 205.024 224.143 202.186C226.671 203.337 228.627 210.281 227.85 213.476Z" fill="#8F0000"/>
<path d="M227.786 213.744C228.843 214.645 229.662 217.929 229.592 218.483C229.309 218.52 228.778 218.841 228.778 218.841C228.524 216.996 227.286 214.682 227.286 214.682C227.391 214.477 227.786 213.744 227.786 213.744Z" fill="#787878"/>
<path d="M224.365 201.679L223.61 201.336L223.597 202.179C223.565 204.328 221.616 210.225 204.26 218.532L204.724 219.536C220.259 212.102 223.964 206.378 224.584 203.173C225.371 203.941 226.146 205.401 226.715 207.232C227.411 209.475 227.655 211.818 227.343 213.248C223.929 218.255 215.425 224.786 205.631 229.917C193.8 236.116 181.301 239.798 170.44 240.283C159.155 240.788 151.096 239.13 145.801 235.212C141.549 232.067 139.099 227.506 138.092 220.857L137.014 221.026C138.069 227.986 140.657 232.78 145.16 236.111C149.829 239.565 156.499 241.332 165.463 241.473C167.064 241.498 168.739 241.471 170.487 241.394C181.503 240.901 194.162 237.177 206.129 230.905C216.283 225.585 224.778 219.028 228.3 213.791L228.356 213.709L228.379 213.61C228.775 211.983 228.536 209.409 227.756 206.897C227.355 205.611 226.226 202.527 224.365 201.679Z" fill="#300000"/>
<path d="M166.289 247.57C163.483 247.527 161.242 245.279 161.283 242.551C161.325 239.821 163.633 237.645 166.439 237.689C169.245 237.734 171.488 239.982 171.445 242.71C171.404 245.438 169.095 247.616 166.289 247.57ZM166.503 233.565C161.353 233.485 157.118 237.478 157.042 242.483C156.966 247.49 161.078 251.614 166.227 251.696C171.375 251.776 175.61 247.783 175.686 242.778C175.762 237.771 171.651 233.647 166.503 233.565Z" fill="#EFD659"/>
<path d="M166.235 251.14C161.396 251.064 157.517 247.184 157.588 242.493C157.659 237.8 161.654 234.045 166.493 234.121C171.334 234.197 175.213 238.077 175.142 242.768C175.071 247.461 171.075 251.216 166.235 251.14ZM166.511 233.011C161.07 232.924 156.578 237.17 156.497 242.475C156.416 247.78 160.777 252.165 166.218 252.25C171.659 252.336 176.152 248.091 176.232 242.786C176.313 237.481 171.952 233.096 166.511 233.011Z" fill="#BC7606"/>
<path d="M166.299 247.016C163.797 246.976 161.792 244.978 161.828 242.559C161.866 240.14 163.93 238.205 166.432 238.245C168.932 238.284 170.937 240.283 170.901 242.702C170.865 245.119 168.799 247.055 166.299 247.016ZM166.448 237.135C163.346 237.085 160.784 239.512 160.738 242.541C160.692 245.572 163.178 248.078 166.282 248.126C169.383 248.175 171.945 245.75 171.991 242.718C172.037 239.689 169.551 237.183 166.448 237.135Z" fill="#BC7606"/>
<path d="M163.311 255.568C160.505 255.525 158.262 253.277 158.305 250.547C158.346 247.819 160.655 245.641 163.461 245.687C166.267 245.73 168.508 247.978 168.466 250.708C168.425 253.436 166.116 255.613 163.311 255.568ZM163.524 241.563C158.375 241.482 154.14 245.474 154.064 250.481C153.987 255.486 158.099 259.611 163.247 259.692C168.397 259.772 172.632 255.781 172.708 250.774C172.784 245.769 168.672 241.643 163.524 241.563Z" fill="#EFD659"/>
<path d="M163.257 259.136C158.418 259.06 154.538 255.181 154.609 250.489C154.681 245.796 158.676 242.042 163.515 242.117C168.355 242.195 172.235 246.073 172.164 250.766C172.091 255.459 168.097 259.213 163.257 259.136ZM163.533 241.007C158.091 240.922 153.599 245.168 153.519 250.471C153.438 255.776 157.799 260.161 163.24 260.248C168.681 260.333 173.173 256.087 173.254 250.784C173.335 245.479 168.973 241.092 163.533 241.007Z" fill="#BC7606"/>
<path d="M163.319 255.012C160.818 254.974 158.813 252.974 158.85 250.557C158.886 248.138 160.951 246.202 163.453 246.243C165.954 246.281 167.959 248.281 167.922 250.698C167.884 253.117 165.821 255.053 163.319 255.012ZM163.469 245.131C160.367 245.082 157.805 247.508 157.759 250.539C157.713 253.57 160.2 256.074 163.303 256.124C166.405 256.173 168.967 253.747 169.013 250.716C169.059 247.685 166.572 245.181 163.469 245.131Z" fill="#BC7606"/>
<path d="M161.283 242.551C161.325 239.821 163.633 237.645 166.439 237.689C166.566 237.692 166.692 237.7 166.816 237.71L167.371 233.62C167.085 233.589 166.795 233.57 166.503 233.565C161.353 233.485 157.118 237.478 157.042 242.483C156.977 246.766 159.978 250.4 164.069 251.414L164.797 247.33C162.73 246.676 161.249 244.773 161.283 242.551Z" fill="#EFD659"/>
<path d="M157.588 242.493C157.659 237.8 161.654 234.045 166.493 234.121C166.766 234.126 167.033 234.144 167.297 234.171L167.839 233.612L167.448 233.069C167.139 233.037 166.827 233.016 166.511 233.011C161.07 232.924 156.578 237.17 156.497 242.475C156.428 247.024 159.627 250.895 163.971 251.96L164.292 251.403L164.167 250.866C160.337 249.899 157.527 246.492 157.588 242.493Z" fill="#BC7606"/>
<path d="M161.828 242.559C161.866 240.14 163.93 238.205 166.432 238.245C166.536 238.246 166.639 238.253 166.742 238.261L167.309 237.699L166.891 237.16C166.745 237.146 166.598 237.136 166.448 237.135C163.346 237.085 160.784 239.511 160.738 242.541C160.7 245.034 162.377 247.171 164.699 247.878L165.035 247.493L164.895 246.778C163.09 246.175 161.8 244.502 161.828 242.559Z" fill="#BC7606"/>
<path d="M176.4 312.853C170.217 315.452 162.253 316.83 154.078 316.295C143.054 315.573 131.646 311.367 123.715 301.982C117.472 294.593 125.644 286.707 128.97 285.854C132.297 285.002 135.736 276.662 140.642 267.524C145.55 258.383 153.441 252.234 163.545 254.801C163.868 254.883 164.184 254.978 164.491 255.085C171.418 257.497 174.162 266.04 174.961 274.484C175.797 283.3 173.41 291.575 177.295 296.408C181.182 301.242 182.241 310.394 176.4 312.853Z" fill="#FFCA0B"/>
<path d="M159.677 253.999C151.74 257.824 141.644 275.57 141.497 285.194C135.113 286.575 133.8 292.349 134.638 295.736C133.256 296.29 131.059 297.243 131.059 297.243C129.177 293.51 132.766 285.996 136.911 284.415C136.762 278.242 150.607 255.256 159.677 253.999Z" fill="#FFE583"/>
<path d="M176.4 312.853C170.217 315.452 162.253 316.83 154.078 316.295C160.012 314.998 164.356 312.076 166.887 311.221C180.941 311.689 171.184 294.419 164.333 290.893C166.797 286.803 173.964 265.419 164.491 255.085C171.418 257.497 174.162 266.04 174.961 274.484C175.797 283.3 173.41 291.575 177.295 296.408C181.182 301.242 182.241 310.394 176.4 312.853Z" fill="#FFB807"/>
<path d="M172.2 307.981C171.852 309.712 169.831 311.021 166.382 311.316C161.364 312.668 154.456 311.822 147.426 310.337C140.595 308.895 135.086 306.152 132.083 303.677C130.718 302.552 129.196 300.238 130.178 298.185C131.255 295.936 139.37 295.499 149.595 297.658C159.82 299.816 172.693 305.532 172.2 307.981Z" fill="#FFB807"/>
<path d="M149.595 297.658C139.417 295.28 131.255 295.936 130.178 298.185C129.771 299.034 138.867 303.643 148.987 305.98C161.611 308.895 172.055 308.7 172.199 307.981C172.693 305.532 162.342 300.636 149.595 297.658Z" fill="#FFA30E"/>
<path d="M179.67 308.036C179.159 310.109 177.955 311.596 176.19 312.339C170.552 314.711 163.647 315.957 156.745 315.847C156.744 315.847 156.742 315.847 156.741 315.847C148.947 315.725 134.345 313.712 124.128 301.619C122.081 299.199 121.487 296.546 122.362 293.736C123.369 290.497 126.228 287.722 128.256 286.72C128.56 286.57 129.804 286.146 130.151 285.925C132.586 284.383 134.947 279.766 138.064 273.668C139.034 271.772 140.036 269.81 141.121 267.79C145.689 259.283 152.132 254.659 159.264 254.772C160.617 254.793 162.013 254.985 163.412 255.339C171.193 257.317 173.692 266.869 174.418 274.537C174.703 277.539 174.611 280.453 174.521 283.268C174.347 288.721 174.197 293.43 176.873 296.761C179.348 299.839 180.525 304.581 179.67 308.036ZM175.611 283.305C175.701 280.453 175.796 277.504 175.504 274.429C174.744 266.407 172.074 256.395 163.676 254.261C162.195 253.886 160.717 253.684 159.281 253.662C151.724 253.543 144.935 258.371 140.164 267.258C139.073 269.288 138.068 271.254 137.097 273.154C133.926 279.357 131.188 284.713 128.836 285.316C126.568 285.898 122.612 289.254 121.322 293.399C120.34 296.558 121.024 299.65 123.301 302.344C127.404 307.2 132.62 310.934 138.803 313.441C144.231 315.642 150.428 316.859 156.724 316.959C156.726 316.959 156.726 316.959 156.728 316.959C163.774 317.07 170.835 315.794 176.607 313.365C178.704 312.482 180.129 310.734 180.729 308.309C181.676 304.476 180.436 299.439 177.718 296.057C175.3 293.049 175.444 288.534 175.611 283.305Z" fill="#BC7606"/>
<path d="M127.85 285.693L128.24 286.724C128.682 286.541 129.179 286.326 129.682 286.167C133.348 285.002 139.319 284.742 142.198 285.194C142.198 285.194 138.404 283.205 131.577 284.546C130.152 284.826 128.854 285.208 127.85 285.693Z" fill="#BC7606"/>
<path d="M164.331 290.893C170.335 292.846 175.518 294.532 178.159 298.704L179.077 298.103C177.314 295.318 174.589 293.604 171.312 292.197C167.786 290.684 164.331 290.893 164.331 290.893Z" fill="#BC7606"/>
<path d="M174.906 283.534C172.84 281.155 162.285 276.422 158.908 275.301C156.538 274.511 150.625 273.383 144.574 273.536C143.337 273.567 142.093 273.651 140.874 273.804C139.564 273.966 138.281 274.206 137.062 274.543L140.316 267.806C141.38 267.643 142.908 267.572 144.687 267.582C145.582 267.585 146.539 267.611 147.534 267.654C151.407 267.823 155.833 268.286 159.207 268.968C165.168 270.173 172.734 274.819 175.004 277.035C175.004 277.035 175.289 282.224 174.906 283.534Z" fill="#FF8800"/>
<path d="M147.534 267.654C146.433 269.575 145.432 271.565 144.574 273.536C143.337 273.567 142.093 273.651 140.874 273.804C141.986 271.772 143.28 269.649 144.687 267.582C145.582 267.585 146.539 267.611 147.534 267.654Z" fill="#F9BF87"/>
<path d="M174.906 283.534C173.958 282.443 171.222 280.855 168.212 279.349C168.633 277.326 168.962 275.169 169.131 272.977C171.768 274.463 173.953 276.008 175.004 277.035C175.004 277.035 175.289 282.224 174.906 283.534Z" fill="#DD7105"/>
<path d="M174.54 282.676C164.278 274.527 152.86 273.132 146.871 273.037C143.799 272.988 140.758 273.248 138.002 273.791C138.021 273.754 138.04 273.717 138.058 273.68C138.935 271.967 139.839 270.197 140.809 268.376C143.078 268.028 145.468 267.872 147.916 267.91C153.616 268.001 164.624 269.309 174.577 277.036C174.645 278.964 174.597 280.846 174.54 282.676ZM175.647 276.474L175.446 276.314C167.845 270.339 158.074 266.96 147.933 266.8C145.327 266.758 142.783 266.934 140.374 267.321L140.108 267.363L139.979 267.603C138.956 269.519 138.008 271.374 137.091 273.167C136.892 273.555 136.696 273.941 136.501 274.319L135.955 275.385L137.106 275.117C140.068 274.429 143.439 274.094 146.854 274.149C152.868 274.242 164.483 275.679 174.703 284.233L175.56 284.949L175.612 283.311C175.678 281.192 175.748 279.002 175.658 276.732L175.647 276.474Z" fill="#6B3A09"/>
<path d="M157.423 311.894C157.36 316.029 154.018 319.329 149.958 319.265C149.086 319.25 148.249 319.083 147.477 318.786C144.656 317.702 142.67 314.908 142.72 311.662C142.779 307.777 145.733 304.631 149.458 304.317L149.568 297.096C150.776 297.325 152.002 297.391 153.197 297.587L153.085 304.949C155.68 306.136 157.47 308.811 157.423 311.894Z" fill="#FFCA0B"/>
<path d="M150.198 306.062C143.877 307.258 142.719 315.633 149.845 317.351C146.137 314.083 147.07 308.481 150.198 306.062Z" fill="#FFE583"/>
<path d="M157.423 311.894C157.36 316.029 154.017 319.329 149.958 319.265C149.085 319.25 148.249 319.083 147.477 318.786C158.341 319.513 154.253 306.615 151.455 305.751L151.535 297.853L153.195 297.692L153.085 304.949C155.68 306.136 157.47 308.811 157.423 311.894Z" fill="#FFB807"/>
<path d="M153.635 304.601L153.734 298.069L152.647 297.826L152.533 305.305L152.86 305.455C155.343 306.591 156.92 309.116 156.878 311.886C156.819 315.707 153.719 318.769 149.966 318.709C146.212 318.651 143.206 315.493 143.264 311.672C143.319 308.089 146 305.165 149.502 304.871L149.995 304.829L150.11 297.257L149.023 297.014L148.919 303.821C145.1 304.383 142.234 307.667 142.174 311.654C142.106 316.089 145.594 319.752 149.949 319.821C154.303 319.889 157.901 316.337 157.968 311.902C158.015 308.813 156.326 305.986 153.635 304.601Z" fill="#BC7606"/>
<path d="M167.495 302.896C163.968 300.933 158.845 299.086 152.273 297.407C139.905 294.247 131.341 294.567 129.365 298.264C128.973 298.996 128.86 299.806 129.047 300.657C129.507 302.743 132.356 303.825 132.356 303.825C130.366 301.934 129.625 300.1 130.323 298.794C131.592 296.421 138.033 294.914 152.008 298.483C166.416 302.164 171.447 306.09 171.379 308.333C171.338 309.635 169.492 310.726 166.315 311.325C166.315 311.325 169.2 311.992 171.111 310.697C172.17 309.98 172.447 309.084 172.467 308.368C172.523 306.604 170.85 304.762 167.495 302.896Z" fill="#BC7606"/>
<path d="M232.819 341.184C231.755 347.338 215.576 367.079 209.112 369.693C204.822 371.428 197.302 373.087 187.302 361.079C185.943 359.445 184.761 357.876 183.743 356.358C177.27 346.712 177.364 339.175 179.999 331.217C172.012 314.429 193.24 297.483 206.224 296.453L220.394 320.288L232.819 341.184Z" fill="#443237"/>
<path d="M232.819 341.184C231.756 347.338 215.576 367.079 209.113 369.693C204.822 371.428 197.302 373.087 187.302 361.079C185.943 359.445 184.761 357.876 183.743 356.358C188.757 360.279 196.644 364.143 204.379 362.09C216.671 358.827 214.962 335.718 206.158 316.819L220.395 320.288L232.819 341.184Z" fill="#352429"/>
<path d="M196.727 313.85C189.508 314.355 178.223 324.401 178.251 322.549C178.21 325.326 178.816 329.285 179.769 330.35C181.351 325.993 191.196 314.875 196.727 313.85Z" fill="#3E3531"/>
<path d="M222.573 356.409C217.108 363.018 211.745 368.031 208.909 369.177C207.325 369.818 205.424 370.371 203.217 370.337C199.098 370.271 193.908 368.154 187.718 360.72C177.675 348.661 177.575 340.275 180.515 331.394L180.587 331.18L180.489 330.975C177.922 325.58 178.292 319.663 181.56 313.865C186.99 304.231 198.612 297.613 206.266 297.007L206.183 295.899C202.008 296.231 196.928 298.19 192.248 301.278C187.268 304.563 183.136 308.835 180.614 313.312C177.2 319.37 176.785 325.569 179.411 331.254C177.733 336.411 177.355 340.851 178.222 345.21C179.246 350.36 182.081 355.668 186.887 361.439C191.348 366.795 195.834 370.039 200.224 371.08C201.274 371.328 202.266 371.441 203.198 371.456C205.746 371.496 207.83 370.81 209.313 370.21C212.941 368.742 218.973 362.488 223.407 357.125C227.612 352.037 232.741 344.836 233.355 341.281L232.28 341.087C231.813 343.793 227.912 349.951 222.573 356.409Z" fill="#1F1B19"/>
<path d="M190.507 316.432C186.022 319.998 181.562 325.511 179.559 330.845L179.661 331.564L180.372 331.813C181.605 328.189 184.173 324.217 187.601 320.627C190.677 317.404 194.104 314.872 196.765 313.854C196.765 313.854 194.024 313.633 190.507 316.432Z" fill="#1F1B19"/>
<path d="M310.598 296.19C302.865 314.582 256.603 331.438 247.001 333.138C241.046 345.97 223.969 348.183 210.638 328.637C210.222 328.028 209.809 327.396 209.4 326.744C195.911 305.177 206.289 292.257 209.127 288.969C211.964 285.682 218.131 286.642 222.694 289.553C222.949 288.694 233.9 278.005 248.467 276.629C225.971 273.312 211.809 248.031 215.631 235.873L218.476 226.183C218.476 226.183 218.476 226.183 218.478 226.183L219.923 221.262C240.116 208.434 272.282 233.38 284.471 244.866C296.66 256.351 318.332 277.8 310.598 296.19Z" fill="#EFEFEF"/>
<path d="M310.598 296.19C302.864 314.582 256.602 331.438 247.001 333.138C241.046 345.97 223.969 348.183 210.638 328.637C219.956 336.696 224.478 328.784 224.776 320.572C238.894 324.683 263.901 318.227 277.669 309.557C291.437 300.888 301.427 277.533 277.921 275.999C293.785 256.016 223.686 221.598 220.815 224.352C220.367 224.781 219.574 225.411 218.478 226.183L219.922 221.262C240.115 208.434 272.282 233.38 284.471 244.866C296.659 256.351 318.332 277.8 310.598 296.19Z" fill="#B3B3B3"/>
<path d="M305.156 268.172C300.673 274.237 287.495 267.039 280.189 263.058C279.526 262.696 278.834 262.436 278.119 262.259C271.07 260.524 261.841 266.911 256.02 263.5C247.65 258.595 252.931 246.088 235.468 233.306C233.389 231.783 232.037 229.812 231.372 227.62C230.437 224.534 230.861 221.013 232.523 217.691C232.669 217.687 232.816 217.687 232.963 217.687C233.034 217.687 233.105 217.687 233.177 217.691C234.932 217.703 236.717 217.871 238.518 218.166C238.651 218.187 238.783 218.209 238.916 218.234C239.182 218.28 239.45 218.329 239.717 218.38C239.717 218.38 239.717 218.38 239.719 218.38C239.831 218.403 239.947 218.425 240.061 218.45C240.29 218.496 240.518 218.545 240.747 218.595C240.861 218.62 240.975 218.645 241.091 218.672C241.244 218.706 241.398 218.741 241.55 218.778C241.933 218.87 242.316 218.965 242.699 219.068C243.082 219.17 243.466 219.278 243.849 219.389C243.849 219.389 243.849 219.389 243.851 219.389C244.158 219.479 244.465 219.571 244.772 219.666C244.925 219.713 245.079 219.761 245.234 219.811C245.425 219.872 245.618 219.937 245.81 220C246.579 220.256 247.347 220.528 248.116 220.818C248.69 221.036 249.266 221.263 249.841 221.498C249.994 221.56 250.146 221.624 250.301 221.689C250.607 221.818 250.912 221.948 251.217 222.08C251.217 222.08 251.217 222.08 251.219 222.08C251.676 222.28 252.134 222.485 252.589 222.694C252.741 222.763 252.895 222.833 253.047 222.905C253.351 223.047 253.653 223.189 253.955 223.336H253.957C254.259 223.482 254.561 223.629 254.864 223.78C261.349 226.998 267.56 231.109 272.881 235.127C273.199 235.365 273.514 235.607 273.825 235.847C274.05 236.018 274.272 236.189 274.492 236.361C274.748 236.559 275.001 236.758 275.253 236.956C275.421 237.088 275.587 237.218 275.751 237.351C275.982 237.534 276.212 237.716 276.438 237.898C277.345 238.628 278.215 239.346 279.046 240.045C279.253 240.221 279.459 240.395 279.662 240.567C280.214 241.036 280.747 241.5 281.262 241.951C281.407 242.079 281.551 242.206 281.694 242.332C281.828 242.451 281.961 242.568 282.091 242.686C282.501 243.05 282.895 243.406 283.273 243.755C283.692 244.138 284.09 244.509 284.471 244.866C285.432 245.77 286.449 246.737 287.509 247.761C287.826 248.067 288.147 248.379 288.473 248.695C288.635 248.855 288.799 249.014 288.964 249.176C289.242 249.449 289.524 249.727 289.807 250.009C290.021 250.22 290.236 250.434 290.451 250.65C290.673 250.872 290.898 251.098 291.124 251.327C291.448 251.656 291.776 251.988 292.104 252.324C292.229 252.453 292.354 252.582 292.48 252.713C292.593 252.83 292.707 252.948 292.82 253.067C292.934 253.185 293.048 253.304 293.162 253.423C293.276 253.543 293.39 253.663 293.504 253.783C293.814 254.108 294.124 254.439 294.436 254.772C294.468 254.806 294.501 254.84 294.533 254.875C294.808 255.172 295.083 255.47 295.362 255.773C295.639 256.074 295.914 256.379 296.19 256.685C296.209 256.706 296.226 256.725 296.243 256.746C296.842 257.413 297.435 258.089 298.025 258.775C298.222 259.004 298.416 259.233 298.613 259.463C300.953 262.235 303.192 265.157 305.156 268.172Z" fill="#443237"/>
<path d="M305.156 268.172C300.673 274.237 287.495 267.039 280.189 263.058C279.526 262.696 278.834 262.436 278.119 262.259C270.717 248.8 245.827 234.12 231.372 227.62C230.437 224.534 230.861 221.013 232.523 217.691C232.669 217.687 232.816 217.687 232.963 217.687C233.034 217.687 233.105 217.687 233.177 217.691C234.93 217.703 236.715 217.868 238.518 218.166C238.651 218.187 238.783 218.209 238.916 218.234C239.182 218.28 239.45 218.329 239.717 218.38C239.717 218.38 239.717 218.38 239.719 218.38C239.831 218.403 239.947 218.425 240.061 218.45C240.29 218.496 240.518 218.543 240.747 218.595C240.861 218.62 240.975 218.645 241.091 218.672C241.244 218.706 241.398 218.741 241.55 218.778C241.933 218.87 242.316 218.965 242.699 219.068C243.082 219.17 243.466 219.276 243.849 219.389C243.849 219.389 243.849 219.389 243.851 219.389C244.158 219.479 244.465 219.571 244.772 219.666C244.925 219.713 245.079 219.761 245.234 219.811C245.425 219.872 245.618 219.937 245.81 220C246.577 220.254 247.348 220.528 248.116 220.818C248.69 221.036 249.266 221.263 249.841 221.498C249.994 221.56 250.146 221.624 250.301 221.689C250.607 221.818 250.912 221.948 251.217 222.08C251.217 222.08 251.217 222.08 251.219 222.08C251.676 222.28 252.134 222.485 252.589 222.694C252.741 222.763 252.895 222.833 253.047 222.905C253.351 223.047 253.653 223.189 253.955 223.336H253.957C254.259 223.482 254.561 223.629 254.864 223.78C261.349 226.998 267.56 231.109 272.881 235.127C273.199 235.365 273.514 235.607 273.825 235.847C274.05 236.018 274.272 236.189 274.492 236.361C274.748 236.559 275.001 236.758 275.253 236.956C275.421 237.088 275.587 237.218 275.751 237.351C275.982 237.534 276.212 237.716 276.438 237.898C277.345 238.628 278.215 239.346 279.046 240.045C279.253 240.221 279.459 240.395 279.662 240.567C280.214 241.036 280.747 241.5 281.262 241.951C281.407 242.079 281.551 242.206 281.694 242.332C281.828 242.451 281.961 242.568 282.091 242.686C282.501 243.052 282.895 243.408 283.273 243.755C283.692 244.138 284.09 244.509 284.471 244.866C285.432 245.77 286.449 246.737 287.509 247.761C287.826 248.067 288.147 248.379 288.473 248.695C288.635 248.855 288.799 249.014 288.964 249.176C289.242 249.449 289.524 249.727 289.807 250.009C290.021 250.22 290.236 250.434 290.451 250.65C290.673 250.872 290.898 251.098 291.124 251.327C291.448 251.656 291.776 251.988 292.104 252.324C292.229 252.453 292.354 252.582 292.48 252.713C292.593 252.83 292.707 252.948 292.82 253.067C292.934 253.185 293.048 253.304 293.162 253.423C293.276 253.543 293.39 253.663 293.504 253.783C293.814 254.108 294.126 254.439 294.436 254.772C294.468 254.806 294.501 254.84 294.533 254.875C294.81 255.172 295.087 255.472 295.362 255.773C295.639 256.074 295.914 256.379 296.19 256.685C296.209 256.706 296.226 256.725 296.243 256.746C296.842 257.412 297.437 258.089 298.025 258.775C298.222 259.004 298.416 259.233 298.613 259.463C300.953 262.235 303.192 265.157 305.156 268.172Z" fill="#352429"/>
<path d="M312.023 281.896C310.967 277.454 308.76 272.653 305.459 267.63C299.773 258.973 291.846 251.059 284.841 244.459C281.51 241.32 269.55 230.531 255.44 223.448C248.727 220.079 242.48 218.034 236.877 217.371C231.249 216.708 226.221 217.434 221.893 219.531L220.01 221.405L220.211 221.732C242.8 207.385 279.94 241.353 284.101 245.274C291.058 251.83 298.929 259.687 304.552 268.247C311.512 278.843 313.378 288.172 310.097 295.973C306.005 305.704 291.072 314.642 279.265 320.424C265.829 327.003 251.841 331.717 246.908 332.59L246.63 332.64L246.508 332.9C243.862 338.606 239.046 342.088 233.297 342.457C225.096 342.983 216.555 337.148 209.861 326.446C201.094 312.429 200.979 299.25 209.537 289.335C211.067 287.562 213.473 287.355 215.223 287.49C217.38 287.659 219.788 288.466 221.912 289.722C219.63 293.128 218.295 297.455 217.907 301.55C217.508 305.733 218.973 308.436 218.973 308.436C218.272 302.897 219.224 294.39 223.575 289.298C225.259 287.327 232.868 280.725 243.276 278.087C243.408 278.053 245.622 277.583 246.924 277.392C255.65 276.113 273.226 275.346 277.921 275.999C277.921 275.999 274.641 274.511 267.142 274.727C260.948 274.904 253.653 275.401 248.435 276.063C237.658 274.434 227.38 267.193 220.922 256.67C216.331 249.192 214.503 241.287 216.15 236.042C216.15 236.042 214.449 237.869 214.481 240.917C214.531 245.828 216.568 251.677 219.996 257.26C223.053 262.241 227.076 266.665 231.629 270.052C235.857 273.198 240.393 275.373 245.149 276.543C244.829 276.604 244.512 276.67 244.197 276.74C243.938 276.795 243.696 276.849 243.469 276.906C237.872 278.248 233.159 280.733 229.923 282.815C226.592 284.957 224.017 287.192 222.849 288.47C222.808 288.512 222.768 288.557 222.729 288.603C222.664 288.678 222.602 288.748 222.548 288.815C217.989 286.086 211.738 285.103 208.717 288.602C205.558 292.263 203.503 296.397 202.607 300.891C200.999 308.955 203.131 317.753 208.942 327.042C215.492 337.513 223.826 343.469 232.002 343.598C232.457 343.606 232.912 343.595 233.365 343.566C236.373 343.373 239.25 342.34 241.688 340.578C244.042 338.877 246.005 336.479 247.372 333.633C252.596 332.629 266.456 327.928 279.738 321.424C291.713 315.56 306.873 306.459 311.1 296.409C312.954 292.002 313.264 287.119 312.023 281.896Z" fill="#787878"/>
<path d="M227.33 209.939C227.515 211.222 227.528 212.397 227.343 213.248C223.929 218.255 215.425 224.786 205.631 229.917C205.517 229.978 205.401 230.036 205.287 230.096L205.801 231.075C205.911 231.017 206.02 230.963 206.129 230.905C216.283 225.585 224.778 219.028 228.3 213.791L228.356 213.709L228.379 213.61C228.65 212.497 228.623 210.943 228.33 209.269L227.33 209.939Z" fill="#300000"/>
<path d="M231.26 329.169C231.26 329.169 232.212 331.222 234.907 332.012C238.68 333.116 243.379 333.536 246.145 333.58C247.193 333.596 247.963 333.559 248.302 333.483L248.069 332.398C246.56 332.735 235.23 332.195 231.26 329.169Z" fill="#787878"/>
<path d="M120.761 77.6809L114.488 97.5842L114.326 107.21L114.185 115.533L107.748 118.97C100.806 119.732 94.9823 119.36 90.1295 118.274C87.3317 117.652 84.8574 116.791 82.6765 115.775C82.3526 115.625 82.035 115.472 81.7234 115.314C70.9862 109.889 67.8709 100.736 68.5583 98.8911C69.6324 96.0066 85.2797 83.3549 91.716 78.5801C96.9889 74.669 105.06 73.9922 114.406 75.9824C116.467 76.4191 118.592 76.9879 120.761 77.6809Z" fill="#EFEFEF"/>
<path d="M114.326 107.21L114.184 115.533L107.748 118.97C100.805 119.732 94.9817 119.36 90.1289 118.274C98.7444 118.707 104.408 110.481 102.002 108.923L114.326 107.21Z" fill="#B3B3B3"/>
<path d="M120.76 77.6809L114.488 97.5842C105.9 100.672 90.2799 105.469 84.9287 105.032C77.4228 104.42 75.7861 100.445 76.0449 99.3794C76.0449 99.3794 76.2547 101.521 88.9779 99.1715C100.826 96.9815 113.213 82.3155 114.405 75.9824C116.466 76.4191 118.591 76.9879 120.76 77.6809Z" fill="#B3B3B3"/>
<path d="M91.7155 78.5801C87.7413 81.5291 80.2561 87.4786 74.8574 92.2808C78.7979 97.5858 83.7854 99.8225 88.6412 97.4166C93.9541 94.7851 93.8055 88.6115 99.0287 87.8912C103.872 87.224 109.623 81.6354 108.733 75.0912C101.812 74.4176 95.8875 75.486 91.7155 78.5801Z" fill="#352429"/>
<path d="M91.3946 78.1321C86.8048 81.5355 69.3004 95.3314 68.048 98.6929C67.5188 100.114 68.6976 103.953 71.5248 107.678C73.625 110.445 77.4845 114.297 83.9443 116.935C88.5881 118.83 93.8867 119.827 99.7654 119.921C102.337 119.961 105.02 119.827 107.807 119.521L107.69 118.417C86.3007 120.77 76.3909 112.273 72.3879 106.998C69.3938 103.054 68.8079 99.7855 69.0679 99.0877C70.0173 96.5384 84.684 84.4829 92.0368 79.0297C98.0749 74.5514 108.218 74.2597 120.597 78.2111L120.923 77.1507C108.206 73.0914 97.7192 73.4411 91.3946 78.1321Z" fill="#787878"/>
<path d="M114.042 99.0216L111.382 108.515C106.299 110.239 97.833 109.527 91.9857 107.371C88.2334 105.985 85.5579 104.004 85.5459 101.689C92.4511 102.185 107.447 94.7447 112.389 88.5148C112.95 87.8089 113.381 87.1176 113.657 86.4553L114.042 99.0216Z" fill="#FFB3AD"/>
<path d="M113.434 93.1171C112.543 95.9421 102.516 101.647 95.4718 102.586C88.6421 103.495 89.3313 104.407 91.9857 107.371C88.2334 105.985 85.5579 104.004 85.5459 101.689C92.4511 102.185 107.447 94.7447 112.389 88.5148C112.891 89.7008 113.291 91.2108 113.434 93.1171Z" fill="#E28F8A"/>
<path d="M114.16 86.6729L113.155 86.2394C111.967 89.0949 107.393 92.9206 101.217 96.2257C95.1783 99.4567 89.0409 101.382 85.585 101.134L84.998 101.092L85.0012 101.692C85.0088 103.139 85.8672 104.496 87.5522 105.725C90.0422 107.543 94.2175 108.972 99.0079 109.648C100.657 109.88 102.277 110.007 103.82 110.033C106.795 110.08 109.485 109.743 111.555 109.042L111.211 107.988C105.01 110.091 93.1755 108.463 88.1878 104.823C87.0541 103.995 86.376 103.137 86.1641 102.267C89.917 102.285 95.7822 100.388 101.725 97.2087C108.209 93.7392 112.858 89.8007 114.16 86.6729Z" fill="#787878"/>
<path d="M80.6703 100.672C78.4296 100.388 77.8369 101.579 77.8369 101.579C78.218 101.486 79.3446 101.626 80.5373 101.776C81.9327 101.95 83.7094 102.172 85.5587 102.201C87.1674 102.225 88.8311 102.106 90.346 101.681L90.3561 100.582C87.308 101.437 83.1935 100.992 80.6703 100.672Z" fill="#787878"/>
<path d="M261.263 168.779C254.323 194.774 222.521 205.751 211.891 211.322C211.891 211.322 210.372 211.433 207.761 211.604C193.616 212.527 147.447 215.198 137.527 211.446C118.129 207.807 107.853 190.059 106.359 180.776C106.111 179.505 106.034 175.581 106.154 170.308C106.523 154.021 108.765 124.882 113.623 121.463C106.838 113.394 109.91 104.356 113.304 99.0619C108.115 89.5993 115.102 76.4593 121.042 73.7569C122.346 67.6864 129.449 61.1712 142.97 56.7558L147.176 56.9959L170.313 58.3206L174.885 58.5832L214.36 60.8441C248.613 68.049 246.741 107.453 246.76 118.192C248.911 119.315 250.945 120.752 252.806 122.494C262.029 131.117 267.039 147.15 261.263 168.779Z" fill="#EFEFEF"/>
<path d="M261.263 168.779C254.323 194.774 222.521 205.751 211.891 211.322C211.891 211.322 210.372 211.433 207.761 211.604C211.359 205.973 213.637 200.601 214.839 197.597C219.636 200.963 243.523 187.187 251.363 165.833C259.202 144.48 239.821 127.633 231.378 113.8C238.387 104.159 227.484 78.0659 224.752 74.3208C222.022 70.5741 211.239 70.2809 211.201 72.7496C209.907 70.1374 196.632 66.2248 193.205 68.5163C189.775 70.8062 175.963 82.3766 167.751 80.3349C171.519 79.6532 173.953 75.0009 172.2 74.7269C169.907 78.0853 157.314 85.1693 147.002 82.2606C147.002 82.2606 154.507 78.4591 151.848 77.9241C147.62 80.9424 135.128 81.4242 131.645 79.3325C132.189 79.4034 138.206 78.3253 142.252 75.2426L147.176 56.9959L170.313 58.3205L174.885 58.5832L214.36 60.8441C248.614 68.049 246.742 107.453 246.761 118.192C248.911 119.315 250.945 120.752 252.806 122.494C262.029 131.117 267.039 147.15 261.263 168.779Z" fill="#B3B3B3"/>
<path d="M252.806 122.494C250.364 127.326 247.124 129.63 243.493 130.729C238.997 132.092 233.899 131.606 228.971 131.783C219.449 132.126 214.985 138.844 212.997 145.973C211.01 153.101 155.551 121.431 155.629 120.259C155.707 119.088 156.133 115.02 159.239 110.071C162.344 105.121 159.876 100.021 158.277 97.6502C156.675 95.2798 155.817 91.9343 156.711 88.9241C156.977 88.0297 157.948 85.3918 159.581 81.8562C162.565 75.3926 167.757 65.9203 174.885 58.5832L195.998 57.5342L214.36 60.8442C248.614 68.0491 246.742 107.453 246.761 118.192C248.911 119.315 250.945 120.752 252.806 122.494Z" fill="#352429"/>
<path d="M252.806 122.494C250.364 127.325 247.125 129.63 243.493 130.729C239.258 124.61 234.549 118.993 231.379 113.8C238.388 104.159 227.484 78.0659 224.753 74.3208C222.023 70.5742 211.24 70.2809 211.202 72.7496C209.907 70.1374 196.633 66.2248 193.205 68.5163C189.776 70.8062 175.963 82.3766 167.752 80.3349C171.52 79.6532 173.954 75.0009 172.2 74.7269C170.819 76.751 165.693 80.1286 159.581 81.8561C162.566 75.3925 167.758 65.9202 174.886 58.5832L195.998 57.5341L214.36 60.8441C248.614 68.049 246.742 107.453 246.761 118.192C248.912 119.315 250.945 120.752 252.806 122.494Z" fill="#2B2828"/>
<path d="M247.305 117.855C247.307 117.452 247.309 117.014 247.312 116.542C247.348 110.034 247.418 97.9225 243.36 86.3457C238.347 72.0406 228.627 63.2774 214.471 60.2994L214.251 61.3872C246.495 68.1699 246.296 103.308 246.221 116.535C246.218 117.144 246.215 117.699 246.215 118.193L246.217 118.532L246.513 118.686C257.671 124.509 268.094 141.083 260.738 168.632C254.857 190.661 230.482 201.985 217.386 208.068C215.174 209.097 213.257 209.988 211.741 210.777C208.758 210.99 148.993 215.19 137.718 210.926L137.674 210.909L137.627 210.9C119.435 207.488 108.535 190.855 106.897 180.688L106.894 180.67C106.437 178.324 106.543 165.26 107.743 150.914C109.135 134.277 111.392 123.709 113.934 121.919L114.432 121.569L114.038 121.102C106.76 112.448 111.42 103.018 113.761 99.3648L113.941 99.0828L113.781 98.7895C111.717 95.0267 111.476 90.2084 113.103 85.2193C114.735 80.2124 118.091 75.7083 121.265 74.2628L121.517 74.1484L121.576 73.8745C122.221 70.8723 124.361 67.8282 127.765 65.071C131.561 61.9963 136.733 59.3761 143.137 57.286L142.804 56.2272C136.273 58.3592 130.985 61.0423 127.086 64.2008C123.583 67.0386 121.336 70.2019 120.571 73.3669C117.215 75.0412 113.747 79.7177 112.067 84.8696C110.385 90.0295 110.602 95.0444 112.671 99.0361C111.208 101.382 109.472 104.965 109.104 109.172C108.71 113.665 109.974 117.774 112.86 121.397C109.492 124.844 107.632 139.154 106.656 150.821C105.545 164.111 105.292 178.114 105.822 180.876C106.517 185.173 109.244 192.079 114.819 198.593C119.073 203.563 126.44 209.917 137.383 211.984C140.424 213.116 146.842 213.76 156.555 213.913C162.749 214.012 170.285 213.908 179.135 213.605C196.071 213.025 211.775 211.888 211.931 211.876L212.042 211.868L212.142 211.817C213.65 211.025 215.592 210.125 217.839 209.079C224.686 205.898 234.063 201.542 242.591 195.127C247.271 191.609 251.195 187.817 254.261 183.858C257.85 179.221 260.383 174.197 261.79 168.924C265.038 156.761 265.087 145.398 261.934 136.063C259.176 127.901 253.99 121.448 247.305 117.855Z" fill="#787878"/>
<path d="M176.586 212.577C168.924 212.813 162.204 212.887 156.606 212.798C146.956 212.647 140.601 212.017 137.717 210.926L137.673 210.909L137.626 210.9C119.434 207.488 108.535 190.855 106.896 180.688L106.893 180.67C106.624 179.286 106.568 174.535 106.747 168.483C109.094 168.644 111.607 168.747 114.228 168.789C132.055 169.069 155.329 166.496 175.122 162.064C175.597 165.492 175.884 168.781 176.187 172.252C176.374 174.377 176.566 176.574 176.805 178.796C178.113 191.365 178.045 202.116 176.586 212.577ZM177.275 172.153C176.952 168.466 176.648 164.984 176.118 161.313L176.032 160.722L175.46 160.851C155.621 165.343 132.165 167.959 114.245 167.677C111.433 167.633 108.746 167.517 106.259 167.334L105.693 167.293L105.674 167.87C105.47 174.36 105.526 179.341 105.821 180.876C106.516 185.173 109.243 192.079 114.818 198.593C119.072 203.563 126.439 209.917 137.383 211.984C140.402 213.107 146.863 213.755 156.589 213.908C156.589 213.908 156.589 213.908 156.59 213.908C162.315 213.999 169.209 213.92 177.077 213.673L177.534 213.659L177.601 213.198C179.136 202.496 179.228 191.528 177.889 178.677C177.651 176.464 177.46 174.273 177.275 172.153Z" fill="#787878"/>
<path d="M204.702 67.0934C198.09 63.4064 190.275 62.8117 182.698 65.4207L183.048 66.4714C190.332 63.9639 197.837 64.5312 204.178 68.0667C211.071 71.9117 215.897 78.8024 218.133 87.9975C218.133 87.9975 218.112 81.5193 213.539 75.0541C211.141 71.6635 208.137 69.0078 204.702 67.0934Z" fill="#161615"/>
<path d="M198.018 78.6172C196.165 77.3473 194.163 76.5319 192.079 76.1822C189.231 75.7052 186.529 77.4682 186.529 77.4682C190.435 76.5706 194.097 77.2667 197.411 79.5389C202.082 82.7409 205.548 88.7952 206.678 95.7358C206.678 95.7358 207.234 91.9005 205.486 87.9798C203.723 84.0172 201.112 80.7363 198.018 78.6172Z" fill="#161615"/>
<path d="M186.039 82.6796C177.382 82.5427 170.229 91.4009 170.062 102.465C169.894 113.528 176.775 122.609 185.43 122.744C194.086 122.881 201.241 114.023 201.408 102.958C201.576 91.8957 194.695 82.8166 186.039 82.6796Z" fill="#EFEFEF"/>
<path d="M189.581 103.261C189.651 109.757 185.294 115.144 179.85 115.294C174.406 115.443 169.939 110.299 169.869 103.803C169.799 97.307 174.156 91.9198 179.6 91.7716C185.044 91.6217 189.511 96.7655 189.581 103.261Z" fill="#1569BC"/>
<path d="M170.054 101.329C170.054 101.329 179.723 91.6974 188.933 99.7339C187.947 95.7745 184.594 90.8095 178.395 91.8538C171.103 93.0849 170.054 101.329 170.054 101.329Z" fill="#0A599B"/>
<path d="M174.183 105.153C174.183 105.153 172.05 104.335 172.71 107.187C173.37 110.038 176.327 112.679 181.414 111.97C185.941 111.338 189.038 104.109 185.751 103.136C184.919 106.188 174.183 105.153 174.183 105.153Z" fill="#7DBEF4"/>
<path d="M173.646 103.893C173.902 107.733 176.839 110.615 180.207 110.329C183.575 110.042 186.097 106.697 185.842 102.857C185.586 99.0152 182.647 96.1339 179.28 96.4191C175.912 96.7059 173.389 100.051 173.646 103.893Z" fill="#1A1A1A"/>
<path d="M173.536 99.1248C173.561 97.4666 174.879 96.1435 176.479 96.1693C178.081 96.1935 179.358 97.5584 179.332 99.215C179.307 100.873 177.989 102.196 176.387 102.17C174.787 102.145 173.51 100.781 173.536 99.1248Z" fill="white"/>
<path d="M179.581 114.11C174.596 114.031 170.613 109.151 170.703 103.232C170.793 97.3118 174.922 92.5612 179.907 92.6386C184.892 92.7175 188.875 97.5971 188.785 103.516C188.695 109.437 184.566 114.187 179.581 114.11ZM179.923 91.5669C174.311 91.4783 169.665 96.7027 169.565 103.213C169.467 109.725 173.952 115.094 179.565 115.181C185.177 115.27 189.825 110.046 189.923 103.535C190.022 97.0234 185.536 91.6556 179.923 91.5669Z" fill="#023E66"/>
<path d="M183.538 106.328C183.551 105.495 184.238 104.831 185.072 104.844C185.907 104.858 186.574 105.543 186.561 106.376C186.548 107.208 185.861 107.872 185.026 107.859C184.192 107.846 183.526 107.161 183.538 106.328Z" fill="white"/>
<path d="M201.409 102.958C201.576 91.8957 194.696 82.8166 186.039 82.6797C183.92 82.6458 181.89 83.1534 180.03 84.0994C180.328 84.0832 180.627 84.0752 180.928 84.08C189.584 84.217 196.465 93.2961 196.297 104.36C196.169 112.714 192.059 119.81 186.327 122.725C194.575 122.262 201.246 113.638 201.409 102.958Z" fill="#B3B3B3"/>
<path d="M180.973 110.85C180.985 110.102 181.644 109.506 182.446 109.519C183.248 109.532 183.889 110.147 183.878 110.895C183.866 111.643 183.207 112.239 182.405 112.226C181.603 112.213 180.962 111.598 180.973 110.85Z" fill="white"/>
<path d="M185.439 122.19C177.098 122.058 170.443 113.214 170.606 102.473C170.771 91.7345 177.69 83.1034 186.031 83.2356C194.373 83.3661 201.025 92.2115 200.862 102.95C200.699 113.691 193.781 122.32 185.439 122.19ZM186.048 82.1253C177.106 81.9835 169.688 91.1044 169.516 102.457C169.343 113.808 176.479 123.158 185.422 123.3C194.365 123.44 201.78 114.319 201.953 102.968C202.125 91.6152 194.991 82.2655 186.048 82.1253Z" fill="#232323"/>
<path d="M120.426 73.4217L121.029 74.3467C122.01 73.6844 124.926 72.3726 128.336 71.5298C131.175 70.8272 135.164 70.2519 138.044 71.4944L138.469 70.4711C132.726 67.9942 122.685 71.8956 120.426 73.4217Z" fill="#787878"/>
<path d="M122.473 84.6391C115.958 88.9208 115.813 93.6714 115.813 93.6714C119.625 86.199 125.755 82.7118 134.55 83.0003C134.55 83.0003 127.269 81.4855 122.473 84.6391Z" fill="#787878"/>
<path d="M143.83 103.039C143.823 103.535 143.781 104.621 143.738 105.105C140.807 111.104 138.441 115.936 130.451 118.983C123.741 118.52 118.491 111.341 118.624 102.642C118.759 93.7133 124.512 86.5648 131.473 86.6744C138.433 86.784 143.966 94.1114 143.83 103.039Z" fill="#EFEFEF"/>
<path d="M131.473 86.6744C129.325 86.6406 127.292 87.298 125.504 88.4857C125.845 88.4567 126.189 88.4422 126.537 88.4486C133.498 88.5582 139.03 95.884 138.894 104.813C138.887 105.309 138.845 106.396 138.802 106.879C136.42 111.755 134.411 115.86 129.45 118.862C129.78 118.918 130.113 118.96 130.451 118.983C138.441 115.936 140.807 111.104 143.738 105.105C143.781 104.621 143.823 103.535 143.83 103.039C143.966 94.1114 138.433 86.784 131.473 86.6744Z" fill="#B3B3B3"/>
<path d="M142.498 108.62C140.71 111.316 137.803 114.418 134.756 116.432C134.7 116.434 134.644 116.435 134.588 116.434C130.194 116.432 126.725 111.894 126.841 106.299C126.957 100.704 130.614 96.1709 135.009 96.1725C139.403 96.1741 142.87 100.712 142.755 106.307C142.738 107.103 142.65 107.877 142.498 108.62Z" fill="#1569BC"/>
<path d="M127.057 104.175C127.057 104.175 135.11 96.1112 142.326 103.253C141.635 99.8209 139.063 95.4634 134.036 96.216C128.12 97.1007 127.057 104.175 127.057 104.175Z" fill="#0A599B"/>
<path d="M130.295 108.093C130.295 108.093 128.641 107.24 128.958 109.733C129.275 112.226 131.455 114.703 135.597 114.456C139.284 114.235 142.021 108.479 139.45 107.412C138.552 109.971 130.295 108.093 130.295 108.093Z" fill="#7DBEF4"/>
<path d="M129.736 106.642C129.85 110.233 132.336 112.998 135.287 112.817C138.239 112.639 140.539 109.582 140.425 105.991C140.312 102.401 137.826 99.6356 134.875 99.8161C131.923 99.995 129.623 103.05 129.736 106.642Z" fill="#1A1A1A"/>
<path d="M129.169 101.916C129.229 100.583 130.323 99.5502 131.614 99.6098C132.904 99.671 133.902 100.801 133.842 102.133C133.782 103.468 132.687 104.501 131.397 104.441C130.106 104.38 129.109 103.25 129.169 101.916Z" fill="white"/>
<path d="M137.751 109.73C137.781 109.06 138.353 108.542 139.027 108.573C139.702 108.605 140.224 109.174 140.194 109.844C140.164 110.513 139.593 111.03 138.918 111C138.244 110.967 137.721 110.4 137.751 109.73Z" fill="white"/>
<path d="M131.368 118.448C131.242 118.451 131.116 118.453 130.99 118.451C124.341 118.346 119.038 111.258 119.169 102.651C119.3 94.0422 124.816 87.1258 131.465 87.2305C138.113 87.3352 143.416 94.4225 143.285 103.031C143.265 104.369 143.114 105.667 142.849 106.903C143.357 106.059 143.87 105.21 144.318 104.325C144.35 103.903 144.369 103.477 144.376 103.047C144.516 93.8279 138.732 86.233 131.481 86.1202C124.231 86.0058 118.219 93.4137 118.079 102.633C117.943 111.556 123.356 118.954 130.276 119.528C130.659 119.188 131.037 118.843 131.368 118.448Z" fill="#232323"/>
<path d="M134.371 115.552C130.298 115.362 127.177 110.95 127.412 105.714C127.647 100.48 131.151 96.3755 135.224 96.5657C139.296 96.7558 142.418 101.168 142.183 106.404C142.128 107.619 141.895 108.773 141.522 109.827L143.155 107.706C143.212 107.297 143.253 106.879 143.272 106.454C143.535 100.607 139.947 95.6745 135.274 95.4554C130.601 95.2378 126.585 99.8176 126.322 105.664C126.059 111.51 129.648 116.443 134.321 116.662C134.417 116.666 134.512 116.666 134.607 116.666L135.87 115.428C135.382 115.533 134.881 115.576 134.371 115.552Z" fill="#023E66"/>
<path d="M144.337 91.6701C145.857 96.2902 144.772 103.023 141.637 108.425C138.085 114.547 132.263 118.633 125.244 119.934L125.44 121.028C129.338 120.304 132.85 118.798 135.877 116.546C138.577 114.54 140.831 111.997 142.576 108.99C144.809 105.142 146.113 100.765 146.118 96.7962C146.121 93.8488 144.337 91.6701 144.337 91.6701Z" fill="#787878"/>
<path d="M292.354 106.08C281.52 115.173 255.857 131.28 232.284 114.503C231.991 114.295 231.697 114.081 231.404 113.862C231.404 113.862 227.077 107.477 225.769 100.586C224.555 94.1936 226.364 85.4143 226.364 85.4143C230.868 70.8369 249.815 65.6641 263.656 74.7705C267.337 77.191 271.097 79.3874 274.701 81.3196C284.645 86.6519 293.403 89.978 296.065 90.5034C299.69 91.2189 303.322 96.8719 292.354 106.08Z" fill="#EFEFEF"/>
<path d="M292.353 106.08C281.519 115.173 255.857 131.28 232.283 114.503C240.484 117.779 256.918 119.315 268.446 115.907C282.975 111.61 294.165 98.456 293.405 95.2347C292.834 92.8046 283.28 87.9363 274.7 81.3196C284.644 86.6519 293.402 89.978 296.064 90.5034C299.689 91.2189 303.321 96.8719 292.353 106.08Z" fill="#B3B3B3"/>
<path d="M296.168 89.9587C292.856 89.3044 277.934 83.5015 263.951 74.3032C260.239 71.8602 255.923 70.3165 251.471 69.8362C247.208 69.3786 242.894 69.8926 238.996 71.3236C235.727 72.5258 232.886 74.3 230.555 76.5996C229.697 77.444 228.882 78.3142 228.241 79.2988C226.081 82.612 226.358 85.5304 226.358 85.5304C228.243 79.4326 232.862 74.7577 239.367 72.3695C247.257 69.4704 256.225 70.5437 263.359 75.2363C277.67 84.6489 292.479 90.3616 295.959 91.0481C297.083 91.2704 298.555 92.1648 299.001 93.9568C299.45 95.7536 299.139 99.663 292.005 105.651C284.098 112.289 256.357 132.495 231.378 113.8C231.378 113.8 232.801 116.353 236.637 118.411C240.555 120.512 244.744 121.768 249.066 122.335C250.519 122.525 251.995 122.633 253.491 122.657C257.746 122.723 262.16 122.114 266.665 120.835C278.46 117.483 288.039 110.42 292.699 106.509C300.297 100.13 300.571 95.7358 300.058 93.6828C299.587 91.7942 298.059 90.331 296.168 89.9587Z" fill="#787878"/>
<path d="M284.632 98.3061C284.236 98.5108 283.746 98.7654 283.17 99.0619C276.256 102.602 257.152 111.88 245.224 109.554C240.758 108.684 237.299 106.188 235.86 101.157C233.85 94.1276 244.789 87.9669 254.585 92.0713C264.382 96.1758 278.319 98.9459 284.632 98.3061Z" fill="#FFB3AD"/>
<path d="M284.632 98.3061C284.236 98.5108 283.746 98.7654 283.17 99.0619C271.673 101.51 256.219 94.2984 249.047 94.885C241.462 95.5054 239.123 105.837 246.102 109.217L245.224 109.554C240.758 108.684 237.299 106.188 235.86 101.157C233.85 94.1276 244.789 87.9669 254.585 92.0713C264.382 96.1757 278.319 98.9459 284.632 98.3061Z" fill="#E28F8A"/>
<path d="M248.948 109.364C242.167 109.258 237.94 106.444 236.384 101.002C235.879 99.2376 236.251 97.4521 237.457 95.8406C239.571 93.0189 243.822 91.2398 248.286 91.3107C250.388 91.343 252.437 91.7716 254.377 92.5854C262.757 96.0952 274.688 98.8315 282.129 98.9491C282.138 98.9491 282.148 98.9491 282.157 98.9491C264.803 107.68 254.55 109.453 248.948 109.364ZM282.145 97.8388C274.822 97.7228 263.064 95.0236 254.792 91.5573C252.725 90.6919 250.543 90.2343 248.304 90.1988C243.504 90.1231 238.907 92.0746 236.59 95.167C235.166 97.0702 234.732 99.1957 235.336 101.312C237.042 107.277 241.616 110.36 248.93 110.476C254.485 110.563 261.587 108.934 270.04 105.635C276.777 103.007 282.433 100.071 284.849 98.8154L287.462 97.4601L284.578 97.7518C283.876 97.8243 283.058 97.8533 282.145 97.8388Z" fill="#787878"/>
<path d="M281.165 97.8243L281.167 98.8637C281.385 98.8943 281.681 98.9121 282.032 98.9169C286.229 98.9733 289.288 96.9412 289.288 96.9412C287.932 97.5069 282.681 98.0306 281.165 97.8243Z" fill="#787878"/>
<path d="M136.704 44.1911L135.717 66.2039C130.116 66.3731 125.41 65.9879 121.505 65.0758C109.424 62.2509 105.01 54.3676 105.472 42.1575C106.013 27.817 113.336 19.7161 117.347 18.2158C117.856 18.0256 118.311 17.9418 118.692 17.9644C122.082 18.1674 119.559 37.5518 122.5 42.3734C124.298 45.3208 134.235 43.4531 136.704 44.1911Z" fill="#CB9455"/>
<path d="M136.703 44.1911L135.717 66.2039C130.116 66.3731 125.41 65.9879 121.505 65.0758C130.976 65.5786 133.094 59.1166 132.484 53.7826C110.047 55.5568 115.752 29.6266 117.347 18.2158C117.855 18.0256 118.311 17.9418 118.692 17.9644C122.082 18.1674 119.558 37.5518 122.5 42.3734C124.297 45.3208 134.235 43.4531 136.703 44.1911Z" fill="#AD753D"/>
<path d="M132.153 43.4966C128.703 43.603 123.979 43.748 122.963 42.0817C121.639 39.9111 121.476 34.2193 121.332 29.198C121.124 21.9737 120.887 17.5406 118.724 17.41C117.389 17.3311 115.548 18.2754 113.675 20.0045C112.119 21.4419 109.868 24.0461 107.982 28.2875C106.146 32.4193 105.117 37.0781 104.926 42.1349C104.627 50.0537 106.378 55.8517 110.278 59.8579C114.568 64.2653 121.521 66.5423 131.461 66.7776C132.828 66.8098 134.251 66.8033 135.732 66.7582L135.7 65.6479C123.77 66.0089 115.708 63.8592 111.053 59.0763C107.377 55.3006 105.729 49.7733 106.016 42.1784C106.511 29.1029 112.565 22.5313 114.408 20.828C116.33 19.0521 117.863 18.4704 118.659 18.5187C118.833 18.5284 119.428 18.7782 119.802 21.537C120.079 23.5852 120.158 26.3263 120.241 29.2302C120.397 34.6448 120.557 40.243 122.036 42.6667C123.384 44.8776 128.06 44.7342 132.186 44.6069C134.038 44.5505 135.788 44.4973 136.549 44.7245L136.857 43.6577C135.928 43.3806 134.179 43.4354 132.153 43.4966Z" fill="#6D4924"/>
<path d="M123.078 43.2178L121.343 39.5227L120.977 39.1488C121.069 40.3736 121.533 42.5781 122.458 44.4796C124.208 48.0732 128.451 48.4841 128.451 48.4841C125.383 47.087 123.854 45.0517 123.078 43.2178Z" fill="#6D4924"/>
<path d="M129.631 47.3868C123.956 58.7751 129.974 71.3446 134.698 73.2671L154.009 45.1662C147.975 36.8752 135.306 36.0001 129.631 47.3868Z" fill="#EFEFEF"/>
<path d="M142.615 38.8669C148.289 42.5813 145.47 43.935 141.296 46.2442C137.121 48.5519 135.046 54.4901 135.249 58.8782C135.452 63.2646 131.868 68.9209 128.982 65.2113C129.067 69.472 133.066 72.2212 133.78 72.7933C134.495 73.3653 153.946 63.0229 154.149 62.1027C154.351 61.181 152.87 43.74 152.636 43.3629C150.81 41.0359 145.577 39.2456 142.615 38.8669Z" fill="#B3B3B3"/>
<path d="M140.998 38.3834C135.951 38.8169 131.742 41.9255 129.145 47.137C126.327 52.7917 126.017 59.5647 128.295 65.7173C129.786 69.7427 132.162 72.8336 134.496 73.7827L134.901 72.7514C132.873 71.9263 130.681 69.0111 129.316 65.3257C127.145 59.4631 127.438 53.0173 130.118 47.6381C132.537 42.7844 136.434 39.8902 141.089 39.4889C145.797 39.0844 150.58 41.3872 153.571 45.4965L154.447 44.8342C151.233 40.4187 146.079 37.9467 140.998 38.3834Z" fill="#787878"/>
<path d="M138.757 51.3525C136.533 55.6406 136.587 60.9359 138.906 65.8816L139.891 65.403C137.722 60.778 137.66 55.8453 139.721 51.8714C141.029 49.3494 143.103 47.5269 145.006 47.2271C145.006 47.2271 142.68 46.6663 141.124 48.1457C140.222 49.003 139.409 50.0956 138.757 51.3525Z" fill="#787878"/>
<path d="M191.09 53.4265C186.433 66.2781 166.811 82.7489 159.218 82.5701C160.451 81.695 164.959 71.8425 164.352 70.0989C159.856 82.9971 143.94 86.2426 138.25 84.1332C139.24 83.2517 141.995 79.3665 142.192 77.8065C136.829 82.4041 121.798 82.7812 119.096 79.5276C118.973 79.381 118.877 79.2262 118.807 79.0651C132.847 76.5157 139.316 55.9485 144.56 49.2834C147.936 44.9905 153.469 42.0302 158.352 41.355C160.838 41.0101 163.157 41.2583 164.937 42.2268C165.091 42.3106 165.241 42.3992 165.385 42.4927C166.816 41.4726 170.232 40.6395 173.143 40.5911C175.41 40.5509 177.371 40.9892 177.84 42.1898C178.137 41.9496 178.677 41.6886 179.39 41.4227C180.753 40.9167 182.747 40.3945 184.874 39.9723C189.025 39.1456 193.681 38.6977 195.116 39.4696C195.116 39.4696 195.747 40.5734 191.09 53.4265Z" fill="#3B3B3B"/>
<path d="M151.615 56.2401C152.924 59.9739 150.663 71.4025 149.459 73.7182C151.923 71.9875 154.053 66.2974 154.335 64.5747C155.611 67.0741 155.416 72.9963 154.84 74.3402C161.712 68.0216 161.355 57.0878 159.991 53.1671C160.076 57.3666 158.528 66.7727 156.589 69.3817C157.425 64.6488 155.224 60.1528 155.049 59.8402C154.832 61.3775 152.778 66.3908 152.526 66.8163C153.347 60.0465 152.199 57.2409 151.615 56.2401Z" fill="#696A6B"/>
<path d="M152.805 44.8084C143.132 47.2127 137.261 74.3161 123.839 78.1127C138.82 76.8219 144.936 49.6428 152.805 44.8084Z" fill="#696A6B"/>
<path d="M158.352 41.355C160.839 41.0101 163.157 41.2583 164.937 42.2268C160.981 45.1806 158.633 49.4253 158.233 50.9658C157.295 47.4109 159.913 43.9881 158.352 41.355Z" fill="#282727"/>
<path d="M171.734 51.1608C171.258 49.2979 171.174 43.8221 173.142 40.5911C175.41 40.5508 177.371 40.9892 177.839 42.1897C178.137 41.9496 178.677 41.6885 179.39 41.4226C176.021 43.7802 172.202 47.3932 171.734 51.1608Z" fill="#282727"/>
<path d="M191.09 53.4265C186.433 66.2781 166.811 82.7489 159.218 82.5701C160.451 81.695 164.959 71.8425 164.352 70.0989C159.856 82.9971 143.94 86.2426 138.25 84.1332C139.24 83.2517 141.995 79.3665 142.192 77.8065C136.83 82.4041 121.798 82.7812 119.096 79.5276C138.91 81.6 147.923 66.8969 148.362 58.0144C148.766 58.8878 152.031 72.5451 144.605 79.2214C145.804 79.8048 152.673 76.3256 153.549 75.1122C153.29 75.847 149.734 80.2689 144.593 82.4299C156.692 80.8039 163.155 68.4874 164.858 55.0106C167.123 56.6688 169.745 69.2609 166.112 74.4208C170.388 70.3245 173.013 66.8678 177.617 56.361C178.248 57.9193 177.444 63.9495 175.874 66.3183C187.321 56.6704 187.281 44.615 184.874 39.9723C189.025 39.1456 193.681 38.6977 195.116 39.4696C195.116 39.4696 195.748 40.5734 191.09 53.4265Z" fill="#282727"/>
<path d="M139.905 78.6542L140.639 79.4358C143.198 78.1579 145.387 75.6198 147.087 71.8135C149.142 67.2095 148.786 62.9552 148.786 62.9552C146.918 71.3027 143.936 76.6753 139.905 78.6542Z" fill="#161615"/>
<path d="M190.578 53.2331C188.497 58.9764 183.009 66.1652 175.897 72.4661C169.956 77.7292 164.096 81.2825 160.433 81.9158C161.308 80.5428 162.357 78.3125 162.974 76.8831C163.75 75.0912 164.713 72.0858 164.946 70.5291C165.677 65.6463 164.419 61.0262 164.419 61.0262C164.436 61.3985 164.46 61.7852 164.484 62.1833C164.655 65.1033 164.728 67.9991 163.164 71.5878C158.859 80.9795 148.035 84.312 141.869 84.1654C140.899 84.1428 140.014 84.0381 139.26 83.8576C140.528 82.3605 142.547 79.3535 142.734 77.8774L142.913 76.4625L141.842 77.3811C138.669 80.1012 131.925 81.2164 127.003 81.0988C123.548 81.0182 120.868 80.3833 119.765 79.4309C129.818 77.0443 135.96 65.6173 140.479 57.2119C142.166 54.0743 143.623 51.3638 144.987 49.6299C148.672 44.9453 155.282 41.6386 160.703 41.7659C162.458 41.8078 163.935 42.209 165.093 42.96L165.4 43.1598L165.698 42.9471C167.141 41.9206 170.904 41.0794 173.753 41.1455C175.736 41.1938 177.041 41.6482 177.332 42.3944L177.603 43.0905L178.179 42.6248C179.63 41.4501 188.347 39.5243 192.84 39.6307C193.756 39.6516 194.291 39.7564 194.596 39.8531C194.553 40.6008 194.106 43.4982 190.578 53.2331ZM195.588 39.1907L195.509 39.0538L195.372 38.9796C194.849 38.6976 194.03 38.5478 192.865 38.5204C188.665 38.4205 180.611 40.0416 178.019 41.4243C177.321 40.5621 175.875 40.0851 173.778 40.0352C170.812 39.9659 167.171 40.7603 165.378 41.8384C164.101 41.0955 162.54 40.6991 160.728 40.6556C154.995 40.5202 148.016 44.0026 144.135 48.9369C142.712 50.745 141.234 53.4942 139.523 56.6785C134.982 65.1242 128.763 76.693 118.711 78.5172L118.029 78.6413L118.308 79.2875C119.375 81.7659 124.726 82.1559 126.977 82.209C131.576 82.3186 137.363 81.4404 141.037 79.2923C140.157 80.944 138.584 83.097 137.891 83.7142L137.197 84.333L138.064 84.6537C139.068 85.0259 140.376 85.2418 141.844 85.2773C145.9 85.3724 150.674 84.1444 154.614 81.9915C157.167 80.596 160.326 78.2996 162.686 74.7109C162.48 75.2378 162.246 75.8131 161.975 76.4368C160.554 79.729 159.28 81.8497 158.907 82.1156L157.541 83.0857L159.206 83.126C163.004 83.2162 169.673 79.4518 176.614 73.304C183.857 66.8872 189.461 59.5276 191.602 53.6183C194.663 45.1725 196.077 40.0497 195.588 39.1907Z" fill="#161615"/>
<path d="M165.167 41.9883C163.964 42.7441 162.682 43.7625 161.521 44.8986C158.37 47.9846 158.233 50.9658 158.233 50.9658C159.319 48.157 164.774 42.7263 167.873 41.9287L167.721 41.3179L165.167 41.9883Z" fill="#161615"/>
<path d="M177.769 41.6547C176.499 42.446 175.233 43.3967 174.208 44.5957C170.927 48.4245 171.658 51.4944 171.658 51.4944C172.489 46.9226 176.984 42.757 180.85 41.3711L180.783 41.1826L177.769 41.6547Z" fill="#161615"/>
<path d="M213.108 68.9741C213.108 68.9741 206.7 70.895 201.552 70.0119C196.33 69.1175 192.926 67.2772 192.926 67.2772C191.188 66.0734 189.824 64.615 188.8 62.9923C181.747 51.8296 190.671 32.8577 203.486 35.2765C203.649 35.3088 203.814 35.341 203.978 35.3797C218.933 38.8201 219.008 65.4095 213.108 68.9741Z" fill="#EFEFEF"/>
<path d="M213.657 68.8016C213.657 68.8016 207.25 70.7225 202.102 69.8394C196.879 68.945 193.475 67.1047 193.475 67.1047C191.738 65.9009 190.374 64.4426 189.35 62.8198C196.018 67.4625 197.968 60.6314 196.688 56.4819C195.371 52.2131 196.325 44.0461 200.312 41.0955C203.531 38.7138 204.877 36.3948 204.035 35.1041C204.198 35.1363 204.363 35.1701 204.528 35.2072C219.483 38.6477 219.557 65.2386 213.657 68.8016Z" fill="#B3B3B3"/>
<path d="M210.004 38.7734C210.787 40.7265 206.525 42.0543 204.196 39.8337C203.287 40.0335 201.562 42.0914 201.453 42.5007C202.681 43.5175 210.138 45.2982 213.634 43.5095C213.499 42.3121 210.004 38.7734 210.004 38.7734Z" fill="#B2ADAD"/>
<path d="M213.026 41.4114C210.724 37.9242 207.72 35.7326 204.098 34.8995C200.621 34.1002 197.16 34.7979 194.09 36.9203C191.344 38.8153 188.994 41.8272 187.472 45.3982C185.77 49.3866 185.202 53.7585 185.868 57.7083C186.095 59.0474 186.457 60.3108 186.948 61.492C188.853 66.0702 192.999 67.3062 192.999 67.3062C185.742 62.2816 185.565 52.6563 188.472 45.8398C190.872 40.2125 196.34 34.2549 203.857 35.984C212.733 38.0257 215.24 48.2344 215.906 52.529C217.038 59.8225 215.699 67.369 212.985 69.0095C212.985 69.0095 215.313 68.7017 216.226 66.0138C217.4 62.5572 217.783 57.51 216.984 52.3565C216.327 48.1232 214.958 44.3395 213.026 41.4114Z" fill="#787878"/>
<path d="M236.247 50.484C230.779 64.051 216 66.9339 206.918 66.8743C205.406 66.2845 203.957 65.4192 202.705 64.4281C202.705 64.4281 199.667 61.5549 198.538 56.6447C198.279 55.5199 198.12 54.2871 198.122 52.956C198.124 51.7216 200.717 43.9479 201.183 42.8198C207.445 44.8342 216.513 44.1235 219.176 41.4791C222.153 38.5252 225.905 29.0868 224.178 23.2034C223.093 19.4937 223.615 17.0008 225.367 16.519C226.392 16.2337 227.84 16.6414 229.633 17.9016C234.487 21.3083 242.585 34.7496 236.247 50.484Z" fill="#CB9455"/>
<path d="M236.247 50.484C230.779 64.051 216 66.9339 206.918 66.8743C205.406 66.2845 203.957 65.4192 202.705 64.4281C202.705 64.4281 199.666 61.5549 198.538 56.6447C238.573 61.1971 235.71 26.32 225.367 16.519C226.392 16.2337 227.84 16.6414 229.633 17.9016C234.487 21.3083 242.585 34.7496 236.247 50.484Z" fill="#AD753D"/>
<path d="M237.654 29.3978C235.665 23.1743 232.258 19.0683 229.943 17.4439C226.822 15.2523 225.116 15.8437 224.378 16.39C222.934 17.46 222.669 20.0013 223.655 23.3629C224.399 25.8977 224.138 29.4172 222.921 33.2702C221.881 36.5592 220.262 39.6258 218.794 41.0826C216.361 43.495 207.444 44.2846 201.278 42.2703L200.924 43.3161C203.614 44.1911 206.972 44.6327 210.332 44.5183C214.587 44.3733 218.036 43.3854 219.555 41.8771C221.141 40.3043 222.87 37.0588 223.959 33.6102C224.703 31.2559 225.789 26.7534 224.701 23.0454C223.88 20.2463 224.003 18.0418 225.019 17.2892C225.879 16.6511 227.449 17.041 229.324 18.3576C231.669 20.0046 234.834 24.1638 236.618 29.7411C238.11 34.4111 239.169 41.7627 235.741 50.2729C233.035 56.9879 227.771 61.7047 220.098 64.2895C214.334 66.2313 208.876 66.4166 205.624 66.2877L209.579 67.3674C212.673 67.2046 216.486 66.676 220.441 65.345C224.071 64.1219 227.238 62.3928 229.854 60.2076C232.918 57.6486 235.238 54.4482 236.751 50.6951C240.305 41.8722 239.204 34.2435 237.654 29.3978Z" fill="#6D4924"/>
<path d="M199.142 56.7784C197.949 49.7073 201.346 41.4662 204.195 39.8337C204.195 39.8337 201.171 40.1899 199.134 45.8494C197.798 49.5622 197.488 53.5361 198.067 56.9653C198.558 59.8692 199.709 62.3042 201.484 64.2057C205.141 68.1216 210.079 67.34 210.079 67.34C202.28 65.959 199.827 60.8345 199.142 56.7784Z" fill="#787878"/>
<path d="M214.073 45.3353C214.073 45.3353 218.493 44.818 221.407 39.3164L220.539 38.7653C219.856 40.0513 216.438 44.6311 214.073 45.3353Z" fill="#6D4924"/>
<path d="M217.832 203.269C213.405 219.307 198.405 237.399 168.031 236.027C153.385 235.365 144.641 230.859 139.576 225.548C134.981 220.728 133.414 215.246 133.213 211.369C132.792 203.215 138.893 200.535 142.311 202.933C142.504 202.196 141.987 196.324 142.027 193.733L212.67 202.62L217.832 203.269Z" fill="#EFEFEF"/>
<path d="M148.085 197.902C148.594 204.288 146.549 214.73 141.415 207.848C140.514 209.549 146.216 217.168 152.281 219.568C150.426 216.701 150.697 201.481 150.807 199.55C150.131 198.88 148.085 197.902 148.085 197.902Z" fill="#B3B3B3"/>
<path d="M217.832 203.269C213.406 219.307 198.405 237.399 168.031 236.027C153.385 235.365 144.641 230.859 139.576 225.548C149.141 233.346 163.945 234.103 179.759 231.921C197.833 229.428 207.99 212.64 212.67 202.62L217.832 203.269Z" fill="#B3B3B3"/>
<path d="M168.055 235.473C155.909 234.924 146.699 231.696 140.681 225.88C134.818 220.212 133.886 213.823 133.758 211.34C133.564 207.577 134.805 204.649 137.164 203.305C138.77 202.391 140.624 202.423 142.002 203.39L142.639 203.838L142.839 203.076C142.952 202.643 142.899 201.384 142.751 198.617C142.659 196.89 142.554 194.932 142.573 193.742L141.482 193.725C141.463 194.953 141.564 196.846 141.662 198.678C141.723 199.826 141.795 201.166 141.809 202.009C140.216 201.278 138.307 201.382 136.632 202.336C133.896 203.895 132.452 207.197 132.669 211.398C132.804 214.015 133.783 220.743 139.93 226.684C146.144 232.692 155.59 236.021 168.008 236.582C168.723 236.614 169.43 236.637 170.13 236.648C195.349 237.044 210.03 223.767 216.281 209.306C217.617 206.218 217.307 203.12 217.307 203.12C212.751 219.631 197.421 236.799 168.055 235.473Z" fill="#787878"/>
<path d="M151.078 197.661C149.798 202.167 150.945 217.078 152.281 219.568C154.662 222.404 176.126 224.47 185.562 220.34C194.999 216.21 202.567 207.442 205.931 198.772C209.295 190.104 210.633 171.198 209.063 168.21C197.608 177.494 151.078 197.661 151.078 197.661Z" fill="#4B0302"/>
<path d="M176.853 221.848C177.701 221.863 177.97 222.771 177.97 222.771C182.216 222.591 193.085 217.331 193.635 215.654C193.676 212.898 191.955 209.208 191.391 209.117C190.826 209.026 176.853 221.848 176.853 221.848Z" fill="#C16565"/>
<path d="M191.045 209.235C192.373 209.688 193.844 213.784 193.311 215.71C196.125 215.322 202.852 207.364 203.096 204.57C201.589 202.696 195.713 203.879 195.713 203.879L191.045 209.235Z" fill="#E58888"/>
<path d="M193.008 210.4C192.521 209.588 191.885 209.108 191.17 209.014L191.03 210.117C191.412 210.167 191.763 210.457 192.076 210.979C192.806 212.197 193.107 214.374 192.853 216.058L194.023 215.328C194.115 213.576 193.749 211.639 193.008 210.4Z" fill="#B24444"/>
<path d="M152.316 193.768L151.255 193.512C150.838 195.293 149.992 200.069 149.774 205.397C149.534 211.285 150.123 215.905 151.527 219.168L152.953 219.616C149.114 212.336 151.458 197.436 152.316 193.768Z" fill="#787878"/>
<path d="M207.627 160.928C211.115 181.004 208.378 197.594 199.712 208.905C193.317 217.25 184.092 222.083 173.032 222.881C153.582 224.281 143.331 213.357 141.414 207.848C141.414 207.848 141.206 210.506 143.765 213.654C145.34 215.592 147.635 217.449 150.484 219.142C154.328 221.427 160.495 223.972 169.023 224.106C170.33 224.127 171.693 224.091 173.109 223.988C178.711 223.585 183.905 222.154 188.545 219.737C193.239 217.291 197.286 213.876 200.572 209.588C204.828 204.033 207.711 197.159 209.143 189.158C210.658 180.697 210.509 171.135 208.702 160.734L207.627 160.928Z" fill="#787878"/>
<path d="M203.068 205.063L196.748 207.516C193.386 205.405 186.974 214.751 183.992 217.352C174.82 225.355 165.611 225.127 159.177 223.134C156.44 222.285 153.988 220.754 152.287 218.585C149.982 215.652 149.046 211.551 150.622 206.397C153.365 197.429 168.308 191.185 182.12 191.588C182.222 191.591 182.321 191.593 182.419 191.598C196.013 192.068 201.441 197.318 203.068 205.063Z" fill="#F99B9B"/>
<path d="M156.901 202.689C148.912 207.255 150.319 221.018 161.723 220.375C152.57 216.446 153.424 208.149 156.901 202.689Z" fill="#F9CDCD"/>
<path d="M203.069 205.063L196.498 208.046C193.135 205.935 186.974 214.751 183.993 217.352C174.82 225.355 165.612 225.127 159.177 223.134C156.441 222.285 153.989 220.754 152.287 218.585C168.213 227.411 178.55 216.482 184.756 209.712C191 202.899 192.662 194.532 179.641 195.231L182.42 191.598C196.014 192.068 201.442 197.318 203.069 205.063Z" fill="#E58888"/>
<path d="M197.471 195.094C193.893 192.558 188.877 191.23 182.137 191.032C175.3 190.834 167.96 192.27 161.999 194.972C155.671 197.84 151.446 201.838 150.102 206.231C148.872 210.254 149.065 214.002 150.659 217.07C152.259 220.148 155.227 222.49 159.017 223.664C161.455 224.42 163.9 224.816 166.326 224.855C167.774 224.878 169.215 224.773 170.644 224.539C175.499 223.748 180.109 221.471 184.347 217.774C185.161 217.064 186.18 215.916 187.359 214.587C190.152 211.438 194.374 206.678 196.462 207.988C196.462 207.988 195.014 206.571 193.858 207.127C191.493 208.271 188.834 211.267 186.549 213.842C185.395 215.143 184.398 216.268 183.637 216.932C174.409 224.982 165.329 224.459 159.336 222.602C155.825 221.515 153.086 219.365 151.623 216.551C150.147 213.71 149.985 210.349 151.144 206.562C152.392 202.478 156.405 198.723 162.442 195.986C168.259 193.349 175.427 191.946 182.105 192.144C194.249 192.497 200.741 196.64 202.535 205.179L203.602 204.947C202.687 200.594 200.682 197.371 197.471 195.094Z" fill="#B24444"/>
<path d="M208.581 185.751C207.451 194.867 204.479 202.684 199.712 208.905C195.683 214.163 190.53 218.024 184.504 220.364L184.79 221.429C186.077 220.933 187.33 220.37 188.546 219.737C193.239 217.291 197.286 213.876 200.573 209.588C204.828 204.033 207.712 197.159 209.144 189.158C209.339 188.07 209.505 186.965 209.646 185.841L208.581 185.751Z" fill="#787878"/>
<path d="M173.45 197.036C171.472 199.055 169.788 201.397 168.528 203.677C166.985 206.47 167.602 209.335 167.602 209.335C168.131 205.951 170.79 201.323 174.221 197.821C176.564 195.428 181.282 191.502 186.548 192.087L186.666 190.984C180.948 190.35 175.93 194.503 173.45 197.036Z" fill="#B24444"/>
<path d="M126.993 186.028C126.953 188.62 128.651 196.546 130.091 197.496C131.532 198.443 146.658 200.101 148.615 198.959C150.48 199.853 167.201 200.301 171.6 197.902C175.713 198.461 190.076 194.553 192.691 190.026C196.897 188.426 203.783 182.054 204.012 178.849C206.543 175.926 209.972 169.562 208.268 162.067L126.993 186.028Z" fill="#EFEFEF"/>
<path d="M128.002 187.403C137.63 187.986 142.255 186.763 143.224 190.727C144.195 194.693 144.258 198.459 140.009 198.947C141.932 200.027 148.493 199.018 148.558 198.712C147.816 195.676 148.299 187.846 148.299 187.846C150.686 190.291 161.334 191.507 163.566 192.221C165.797 192.935 166.625 198.317 165.159 199.034C168.973 199.342 171.493 197.476 171.673 197.352C171.755 195.744 171.224 190.861 171.224 190.861C173.824 191.211 183.624 188.465 186.012 186.774C188.402 185.084 191.33 191.857 188.34 193.167C190.045 192.7 192.926 190.524 192.755 189.719C192.586 188.914 191.269 183.832 191.269 183.832C194.283 180.979 199.541 177.914 200.258 178.604C200.975 179.295 202.516 181.54 201.13 183.061C203.491 181.279 204.572 179.938 204.015 178.633C203.46 177.328 203.054 174.113 203.054 174.113C203.336 173.501 206.802 172.722 206.503 174.506C206.202 176.292 209.753 168.015 209.174 166.278C208.593 164.541 207.783 161.998 207.783 161.998L128.002 187.403Z" fill="#B3B3B3"/>
<path d="M207.735 162.193C209.709 170.871 204.64 177.284 203.603 178.482L203.481 178.622L203.469 178.809C203.255 181.769 196.484 187.991 192.5 189.506L192.318 189.575L192.22 189.744C191.155 191.589 187.536 193.681 182.538 195.343C178.226 196.777 173.657 197.621 171.673 197.352L171.499 197.328L171.343 197.413C167.123 199.715 150.566 199.281 148.847 198.456L148.59 198.333L148.343 198.477C147.734 198.833 144.673 198.965 139.208 198.458C134.577 198.029 130.908 197.371 130.387 197.028C129.306 196.316 127.495 188.834 127.538 186.036L126.447 186.02C126.408 188.573 128.038 196.804 129.795 197.961C130.827 198.641 136.339 199.307 139.109 199.565C142.023 199.834 146.978 200.174 148.632 199.558C149.825 199.942 153.029 200.167 156.331 200.219C157.283 200.235 158.243 200.235 159.164 200.221C162.685 200.167 168.933 199.866 171.703 198.474C173.933 198.703 178.474 197.863 182.877 196.4C185.942 195.38 191.282 193.272 193.057 190.478C195.118 189.646 197.84 187.733 200.217 185.443C201.432 184.272 204.23 181.357 204.535 179.083C206.08 177.257 207.427 174.814 208.243 172.35C209.395 168.885 209.581 165.384 208.799 161.943L207.735 162.193Z" fill="#787878"/>
<path d="M149.184 184.526L148.124 184.264C146.811 189.752 147.572 198.275 148.148 199.246L149.088 198.683C148.747 197.971 147.9 189.894 149.184 184.526Z" fill="#787878"/>
<path d="M169.703 186.755C170.945 189.519 171.396 196.725 170.797 197.835L171.753 198.37C172.623 196.759 171.95 189.084 170.694 186.292L169.703 186.755Z" fill="#787878"/>
<path d="M188.9 180.261C189.505 180.92 192.099 188.637 191.904 190.168L192.986 190.31C193.21 188.544 190.617 180.507 189.698 179.503L188.9 180.261Z" fill="#787878"/>
<path d="M201.417 170.013L200.405 170.431C200.502 170.672 200.66 171.03 200.861 171.486C201.693 173.375 203.643 177.797 203.344 179.468L204.417 179.666C204.778 177.658 202.877 173.348 201.856 171.03C201.66 170.587 201.505 170.236 201.417 170.013Z" fill="#787878"/>
<path d="M214.198 143.228C212.56 167.271 192.972 183.693 175.151 188.342C162.366 191.677 151.128 187.583 141.811 183.505C134.977 186.491 122.532 191.813 109.44 188.447C102.32 186.616 97.3445 180.913 94.1845 173.813C89.626 163.577 88.8403 150.437 90.8354 141.826C92.7126 133.718 98.8115 122.119 112.374 117.642C125.434 113.333 134.465 122.612 141.004 125.239C148.037 120.354 159.076 112.929 173.622 112.766C185.284 112.637 196.76 114.55 204.532 120.201C211.035 124.931 214.945 132.276 214.198 143.228Z" fill="#FFB3AD"/>
<path d="M214.198 143.228C212.56 167.271 192.972 183.693 175.151 188.342C162.366 191.677 151.128 187.583 141.812 183.505C134.977 186.491 122.532 191.813 109.44 188.447C102.32 186.616 97.3446 180.913 94.1846 173.813C107.023 196.031 127.392 180.844 122.018 178.404C125.504 176.45 131.804 179.089 138.069 181.656C142.408 183.289 162.418 188.697 183.849 178.296C205.278 167.896 209.384 137.043 199.144 132.282L204.532 120.201C211.035 124.931 214.945 132.276 214.198 143.228Z" fill="#E28F8A"/>
<path d="M213.656 143.189C212.009 167.346 192.472 183.25 175.015 187.804C160.929 191.478 148.694 185.994 138.863 181.587C134.047 179.428 129.692 177.51 125.962 177.038C122.999 176.662 122.019 178.404 122.019 178.404C126.144 177.101 131.835 179.65 138.423 182.604C139.082 182.899 139.752 183.2 140.432 183.501C133.467 186.507 121.779 191.046 109.574 187.909C102.06 185.977 96.1281 179.176 92.8706 168.761C90.1786 160.153 89.5881 149.63 91.3664 141.953C92.3544 137.687 96.8013 123.368 112.544 118.171C122.177 114.991 129.545 119.374 135.465 122.896C137.068 123.85 138.516 124.708 139.878 125.348C137.118 127.266 134.941 128.755 133.724 128.864C133.724 128.864 135.057 129.963 140.783 126.064C147.594 121.424 158.878 113.486 173.629 113.322C184.659 113.199 199.524 114.906 207.706 123.737C212.202 128.59 214.204 135.136 213.656 143.189ZM208.499 122.975C200.048 113.852 184.865 112.086 173.616 112.211C166.968 112.284 160.504 113.825 153.855 116.917C148.675 119.328 144.276 122.298 140.939 124.61C139.459 123.983 137.839 123.021 136.015 121.937C133.017 120.153 129.618 118.13 125.688 116.952C121.108 115.579 116.698 115.633 112.207 117.115C105.989 119.167 100.804 122.839 96.7948 128.03C93.7333 131.992 91.4283 136.848 90.3049 141.698C88.4843 149.557 89.0836 160.312 91.8312 169.098C93.406 174.132 95.584 178.367 98.3047 181.684C101.391 185.445 105.093 187.902 109.307 188.985C112.108 189.706 114.876 190.034 117.568 190.076C127.494 190.233 136.356 186.491 141.813 184.109C148.57 187.058 156.315 189.986 164.943 190.121C168.261 190.173 171.713 189.812 175.286 188.879C179.886 187.68 184.438 185.766 188.814 183.194C193.39 180.501 197.536 177.222 201.135 173.444C209.274 164.902 213.98 154.468 214.743 143.266C215.315 134.891 213.213 128.064 208.499 122.975Z" fill="#845156"/>
<path d="M113.059 129.77L99.5302 138.63C95.1349 141.98 91.7845 141.506 90.036 139.316C88.3433 137.197 88.1514 133.472 89.9635 130.046C93.3956 123.558 100.401 117.228 108.475 116.367C110.419 116.16 111.853 116.62 112.872 117.492C116.088 120.233 115.171 127.039 113.059 129.77Z" fill="#FFB3AD"/>
<path d="M112.872 117.492L112.815 117.918C99.441 116.596 88.2743 133.515 90.3666 139.412C90.2555 139.384 90.1444 139.352 90.036 139.316C88.3433 137.197 88.1514 133.472 89.9635 130.046C93.3956 123.558 100.401 117.228 108.475 116.367C110.419 116.16 111.853 116.62 112.872 117.492Z" fill="#F9E4E5"/>
<path d="M97.1087 134.456C96.518 131.454 100.674 123.219 110.158 125.25C108.729 127.574 103.086 133.934 97.1087 134.456Z" fill="#9B4B53"/>
<path d="M109.171 126.407C106.42 126.025 100.257 128.735 98.7511 134.113C97.9549 134.654 96.9888 134.424 96.9888 134.424C96.8433 130.039 100.283 123.058 109.858 125.092C109.852 125.524 109.171 126.407 109.171 126.407Z" fill="#E0868F"/>
<path d="M108.419 115.815C104.559 116.227 100.661 117.9 97.1463 120.656C94.0224 123.105 91.3012 126.346 89.4839 129.781C88.482 131.675 88.0143 133.786 88.167 135.724C88.3191 137.655 89.0646 139.299 90.2664 140.353C90.8375 140.854 91.9528 141.614 93.6326 141.608C98.0917 141.59 99.2037 138.185 99.2037 138.185C95.8926 140.709 92.8945 141.192 90.9784 139.511C88.8746 137.666 88.6448 133.708 90.4441 130.308C93.6421 124.262 100.475 117.779 108.532 116.92C110.906 116.667 112.602 117.445 113.571 119.236C115.155 122.159 114.352 127.201 112.631 129.427C112.631 129.427 114.962 128.226 115.465 124.256C115.714 122.285 115.366 120.249 114.526 118.699C113.701 117.175 111.971 115.438 108.419 115.815Z" fill="#845156"/>
<path d="M99.5156 127.261C97.1167 129.582 95.9725 132.553 96.6006 134.833L97.6509 134.534C97.1387 132.674 98.1898 130.075 100.267 128.067C102.966 125.456 106.449 124.541 109.582 125.616L109.931 124.563C106.407 123.353 102.513 124.362 99.5156 127.261Z" fill="#845156"/>
<path d="M110.779 120.316C110.853 123.361 108.778 127.063 105.363 129.975C101.414 133.341 96.76 134.872 92.9121 134.071C92.9121 134.071 93.9183 135.662 97.0802 135.217C100.117 134.791 103.263 133.214 106.063 130.826C108.173 129.027 109.83 127.003 110.769 124.921C111.757 122.73 110.779 120.316 110.779 120.316Z" fill="#845156"/>
<path d="M199.096 132.833L185.431 127.928C185.242 127.844 184.986 127.674 184.685 127.432C181.66 125.005 173.986 115.257 182.152 109.773C185.542 107.496 189.716 107.293 193.801 108.325C201.311 110.22 208.525 116.288 210.017 121.323C212.323 129.093 205.632 133.431 199.096 132.833Z" fill="#FFB3AD"/>
<path d="M185.461 127.332L183.6 126.233C180.573 123.808 173.986 115.257 182.152 109.773C185.542 107.496 189.717 107.293 193.801 108.325C193.806 108.328 193.808 108.329 193.811 108.333C178.601 108.215 179.441 120.696 185.461 127.332Z" fill="#F9E4E5"/>
<path d="M185.845 116.662C190.563 114.679 202.56 117.502 202.967 127.959C197.108 130.663 185.477 124.966 185.845 116.662Z" fill="#9B4B53"/>
<path d="M186.007 116.706C190.69 114.269 202.209 118.031 203.206 128.168C202.35 128.71 200.716 128.56 200.716 128.56C199.866 124.659 193.847 117.898 186.145 118.271C185.851 117.649 186.007 116.706 186.007 116.706Z" fill="#E0868F"/>
<path d="M196.36 108.539C190.797 106.489 185.645 106.763 181.853 109.309C179.035 111.203 177.735 113.741 177.992 116.857C178.139 118.641 178.824 120.395 179.649 122.021C182.163 126.973 185.653 127.421 185.653 127.421C184.428 126.869 179.489 121.758 179.079 116.764C178.857 114.084 179.994 111.889 182.453 110.237C185.95 107.888 190.758 107.657 195.988 109.585C199.099 110.731 202.198 112.595 204.713 114.835C207.177 117.028 208.875 119.389 209.497 121.482C210.346 124.348 209.96 126.907 208.379 128.884C206.458 131.285 202.834 132.618 199.144 132.281C199.144 132.281 201.79 133.701 204.787 132.672C206.59 132.055 208.123 130.963 209.224 129.585C210.494 127.997 211.753 125.247 210.54 121.162C209.136 116.427 203.038 111.001 196.36 108.539Z" fill="#845156"/>
<path d="M196.411 117.189C192.839 115.312 188.702 114.936 186.04 116.189L186.021 117.454C188.322 116.026 192.385 116.322 195.911 118.177C199.989 120.322 202.492 124.067 202.78 128.454L203.868 128.379C203.554 123.595 200.837 119.518 196.411 117.189Z" fill="#845156"/>
<path d="M204.447 127.269C202.48 128.375 198.166 128.723 192.488 126.07C188.946 124.417 186.754 121.357 186.626 117.884C186.539 115.517 187.49 113.478 189.109 112.566C189.109 112.566 186.03 112.9 185.632 116.245C185.567 116.786 185.515 117.347 185.536 117.926C185.681 121.826 188.109 125.248 192.034 127.081C194.982 128.457 197.895 129.182 200.394 129.221C202.181 129.25 203.759 128.937 204.974 128.242C206.716 127.247 206.045 125.123 206.045 125.123C205.898 126.239 205.094 126.906 204.447 127.269Z" fill="#845156"/>
<defs>
<linearGradient id="paint0_linear_232_1028" x1="0.0217281" y1="176.445" x2="351.981" y2="181.795" gradientUnits="userSpaceOnUse">
<stop stop-color="#3DDEED"/>
<stop offset="1" stop-color="#3DDEED"/>
</linearGradient>
<linearGradient id="paint1_linear_232_1028" x1="89.211" y1="339.437" x2="257.516" y2="341.996" gradientUnits="userSpaceOnUse">
<stop stop-color="#3DDEED"/>
<stop offset="1" stop-color="#3DDEED"/>
</linearGradient>
</defs>
</svg>
