<svg width="130" height="130" viewBox="0 0 130 130" fill="none" xmlns="http://www.w3.org/2000/svg">
<g clip-path="url(#clip0_874_948)">
<path d="M60.0162 36.5573C70.8976 36.5573 80.7499 40.9677 87.8807 48.0996C93.5152 53.7342 97.4501 61.0672 98.8548 69.2632H95.6084C94.2398 61.9495 90.6745 55.4109 85.6213 50.3578C79.0684 43.8048 70.0153 39.7519 60.0162 39.7519C50.017 39.7519 40.964 43.8048 34.411 50.3578C27.8581 56.9108 23.8052 65.9638 23.8052 75.963C23.8052 85.9622 27.8581 95.0153 34.411 101.568C40.964 108.121 50.017 112.174 60.0162 112.174C70.0153 112.174 79.0684 108.121 85.6213 101.568C86.0799 101.11 86.5253 100.638 86.9598 100.156H91.1235C90.1184 101.447 89.035 102.673 87.8807 103.828C80.7499 110.958 70.8976 115.37 60.0162 115.37C49.1347 115.37 39.2824 110.96 32.1517 103.828C25.0209 96.6968 20.6094 86.8445 20.6094 75.963C20.6094 65.0815 25.0197 55.2292 32.1517 48.0984C39.2824 40.9677 49.1335 36.5573 60.0162 36.5573Z" fill="#4F9E1C"/>
<path fill-rule="evenodd" clip-rule="evenodd" d="M106.198 69.2608C109.794 69.8759 132.365 61.2477 116.807 38.9347C116.807 38.9347 114.938 47.1704 107.357 49.4165C99.7758 51.6627 94.9778 60.5953 102.488 69.0959C102.488 69.0959 119.736 58.3336 116.463 46.506C116.463 46.5048 121.217 56.5677 106.198 69.2608Z" fill="#4F9E1C"/>
<path fill-rule="evenodd" clip-rule="evenodd" d="M95.2632 54.7609C93.2434 54.2397 83.497 44.4524 96.8364 36.4634C96.8364 36.4634 95.8807 41.1952 99.3076 44.1431C102.735 47.0909 103.143 52.8723 97.2361 55.5445C97.2361 55.5445 90.7649 45.892 95.2415 40.4922C95.2427 40.491 90.4062 44.6245 95.2632 54.7609Z" fill="#4F9E1C"/>
<path d="M46.82 87.7C46.732 87.7 46.664 87.676 46.616 87.628C46.568 87.572 46.544 87.504 46.544 87.424V79.588C46.544 79.5 46.568 79.432 46.616 79.384C46.664 79.328 46.732 79.3 46.82 79.3H47.372C47.468 79.3 47.54 79.324 47.588 79.372C47.636 79.412 47.664 79.444 47.672 79.468L51.656 85.588V79.588C51.656 79.5 51.68 79.432 51.728 79.384C51.776 79.328 51.844 79.3 51.932 79.3H52.508C52.596 79.3 52.664 79.328 52.712 79.384C52.768 79.432 52.796 79.5 52.796 79.588V87.412C52.796 87.492 52.768 87.56 52.712 87.616C52.664 87.672 52.6 87.7 52.52 87.7H51.944C51.856 87.7 51.788 87.676 51.74 87.628C51.7 87.58 51.672 87.548 51.656 87.532L47.684 81.472V87.424C47.684 87.504 47.656 87.572 47.6 87.628C47.552 87.676 47.484 87.7 47.396 87.7H46.82ZM54.312 87.7C54.248 87.7 54.192 87.676 54.144 87.628C54.096 87.58 54.072 87.524 54.072 87.46C54.072 87.42 54.076 87.376 54.084 87.328L57.06 79.564C57.092 79.484 57.136 79.42 57.192 79.372C57.248 79.324 57.332 79.3 57.444 79.3H58.26C58.364 79.3 58.444 79.324 58.5 79.372C58.564 79.42 58.612 79.484 58.644 79.564L61.608 87.328C61.624 87.376 61.632 87.42 61.632 87.46C61.632 87.524 61.608 87.58 61.56 87.628C61.512 87.676 61.456 87.7 61.392 87.7H60.78C60.684 87.7 60.612 87.676 60.564 87.628C60.524 87.58 60.496 87.536 60.48 87.496L59.82 85.792H55.884L55.224 87.496C55.216 87.536 55.188 87.58 55.14 87.628C55.092 87.676 55.02 87.7 54.924 87.7H54.312ZM56.232 84.76H59.472L57.852 80.5L56.232 84.76ZM64.1365 87.7C64.0565 87.7 63.9885 87.676 63.9325 87.628C63.8845 87.572 63.8605 87.504 63.8605 87.424V80.368H61.5565C61.4765 80.368 61.4085 80.344 61.3525 80.296C61.3045 80.24 61.2805 80.172 61.2805 80.092V79.588C61.2805 79.5 61.3045 79.432 61.3525 79.384C61.4085 79.328 61.4765 79.3 61.5565 79.3H67.3405C67.4285 79.3 67.4965 79.328 67.5445 79.384C67.6005 79.432 67.6285 79.5 67.6285 79.588V80.092C67.6285 80.172 67.6005 80.24 67.5445 80.296C67.4965 80.344 67.4285 80.368 67.3405 80.368H65.0485V87.424C65.0485 87.504 65.0205 87.572 64.9645 87.628C64.9165 87.676 64.8485 87.7 64.7605 87.7H64.1365ZM72.1417 87.82C71.4697 87.82 70.8897 87.7 70.4017 87.46C69.9217 87.22 69.5497 86.856 69.2857 86.368C69.0297 85.872 68.9017 85.236 68.9017 84.46V79.588C68.9017 79.5 68.9257 79.432 68.9737 79.384C69.0217 79.328 69.0897 79.3 69.1777 79.3H69.7897C69.8777 79.3 69.9457 79.328 69.9937 79.384C70.0497 79.432 70.0777 79.5 70.0777 79.588V84.484C70.0777 85.268 70.2617 85.848 70.6297 86.224C70.9977 86.6 71.5017 86.788 72.1417 86.788C72.7737 86.788 73.2737 86.6 73.6417 86.224C74.0177 85.848 74.2057 85.268 74.2057 84.484V79.588C74.2057 79.5 74.2297 79.432 74.2777 79.384C74.3337 79.328 74.4017 79.3 74.4817 79.3H75.1057C75.1857 79.3 75.2497 79.328 75.2977 79.384C75.3537 79.432 75.3817 79.5 75.3817 79.588V84.46C75.3817 85.236 75.2497 85.872 74.9857 86.368C74.7297 86.856 74.3617 87.22 73.8817 87.46C73.4017 87.7 72.8217 87.82 72.1417 87.82ZM77.6638 87.7C77.5758 87.7 77.5078 87.676 77.4598 87.628C77.4118 87.572 77.3878 87.504 77.3878 87.424V79.588C77.3878 79.5 77.4118 79.432 77.4598 79.384C77.5078 79.328 77.5758 79.3 77.6638 79.3H80.5918C81.4958 79.3 82.2118 79.512 82.7398 79.936C83.2678 80.36 83.5318 80.988 83.5318 81.82C83.5318 82.436 83.3758 82.94 83.0638 83.332C82.7598 83.716 82.3438 83.984 81.8158 84.136L83.6638 87.328C83.6878 87.376 83.6998 87.42 83.6998 87.46C83.6998 87.524 83.6718 87.58 83.6158 87.628C83.5678 87.676 83.5118 87.7 83.4478 87.7H82.8718C82.7358 87.7 82.6358 87.664 82.5718 87.592C82.5078 87.52 82.4518 87.448 82.4037 87.376L80.6638 84.328H78.5638V87.424C78.5638 87.504 78.5358 87.572 78.4798 87.628C78.4318 87.676 78.3638 87.7 78.2758 87.7H77.6638ZM78.5638 83.308H80.5438C81.1438 83.308 81.5918 83.184 81.8878 82.936C82.1838 82.68 82.3318 82.304 82.3318 81.808C82.3318 81.32 82.1838 80.948 81.8878 80.692C81.5998 80.436 81.1518 80.308 80.5438 80.308H78.5638V83.308ZM84.687 87.7C84.623 87.7 84.567 87.676 84.519 87.628C84.471 87.58 84.447 87.524 84.447 87.46C84.447 87.42 84.451 87.376 84.459 87.328L87.435 79.564C87.467 79.484 87.511 79.42 87.567 79.372C87.623 79.324 87.707 79.3 87.819 79.3H88.635C88.739 79.3 88.819 79.324 88.875 79.372C88.939 79.42 88.987 79.484 89.019 79.564L91.983 87.328C91.999 87.376 92.007 87.42 92.007 87.46C92.007 87.524 91.983 87.58 91.935 87.628C91.887 87.676 91.831 87.7 91.767 87.7H91.155C91.059 87.7 90.987 87.676 90.939 87.628C90.899 87.58 90.871 87.536 90.855 87.496L90.195 85.792H86.259L85.599 87.496C85.591 87.536 85.563 87.58 85.515 87.628C85.467 87.676 85.395 87.7 85.299 87.7H84.687ZM86.607 84.76H89.847L88.227 80.5L86.607 84.76ZM93.5661 87.7C93.4781 87.7 93.4101 87.676 93.3621 87.628C93.3141 87.572 93.2901 87.504 93.2901 87.424V79.576C93.2901 79.496 93.3141 79.432 93.3621 79.384C93.4101 79.328 93.4781 79.3 93.5661 79.3H94.2021C94.2821 79.3 94.3461 79.328 94.3941 79.384C94.4421 79.432 94.4661 79.496 94.4661 79.576V86.656H98.4621C98.5501 86.656 98.6181 86.684 98.6661 86.74C98.7141 86.788 98.7381 86.856 98.7381 86.944V87.424C98.7381 87.504 98.7141 87.572 98.6661 87.628C98.6181 87.676 98.5501 87.7 98.4621 87.7H93.5661Z" fill="#4F9E1C"/>
</g>
<defs>
<clipPath id="clip0_874_948">
<rect width="130" height="130" fill="white"/>
</clipPath>
</defs>
</svg>
