<svg width="130" height="130" viewBox="0 0 130 130" fill="none" xmlns="http://www.w3.org/2000/svg">
<g clip-path="url(#clip0_874_948)">
<path d="M60.0167 36.5573C70.8981 36.5573 80.7504 40.9677 87.8812 48.0996C93.5157 53.7342 97.4506 61.0672 98.8553 69.2632H95.6089C94.2403 61.9495 90.675 55.4109 85.6218 50.3578C79.0689 43.8048 70.0158 39.7519 60.0167 39.7519C50.0175 39.7519 40.9645 43.8048 34.4115 50.3578C27.8586 56.9108 23.8057 65.9638 23.8057 75.963C23.8057 85.9622 27.8586 95.0153 34.4115 101.568C40.9645 108.121 50.0175 112.174 60.0167 112.174C70.0158 112.174 79.0689 108.121 85.6218 101.568C86.0804 101.11 86.5258 100.638 86.9603 100.156H91.1239C90.1189 101.447 89.0355 102.673 87.8812 103.828C80.7504 110.958 70.8981 115.37 60.0167 115.37C49.1352 115.37 39.2829 110.96 32.1522 103.828C25.0214 96.6968 20.6099 86.8445 20.6099 75.963C20.6099 65.0815 25.0202 55.2292 32.1522 48.0984C39.2829 40.9677 49.134 36.5573 60.0167 36.5573Z" fill="#4F9E1C"/>
<path fill-rule="evenodd" clip-rule="evenodd" d="M106.198 69.2608C109.795 69.8759 132.365 61.2477 116.807 38.9347C116.807 38.9347 114.938 47.1704 107.357 49.4165C99.7763 51.6627 94.9783 60.5953 102.488 69.0959C102.488 69.0959 119.736 58.3336 116.463 46.506C116.463 46.5048 121.218 56.5677 106.198 69.2608Z" fill="#4F9E1C"/>
<path fill-rule="evenodd" clip-rule="evenodd" d="M95.2637 54.7609C93.2439 54.2397 83.4974 44.4524 96.8369 36.4634C96.8369 36.4634 95.8812 41.1952 99.3081 44.1431C102.735 47.0909 103.143 52.8723 97.2365 55.5445C97.2365 55.5445 90.7654 45.892 95.242 40.4922C95.2432 40.491 90.4067 44.6245 95.2637 54.7609Z" fill="#4F9E1C"/>
<path d="M56.264 78.112C56.304 78.408 56.34 78.812 56.372 79.324C56.404 79.836 56.42 80.404 56.42 81.028C56.428 81.644 56.412 82.292 56.372 82.972C56.332 83.652 56.26 84.308 56.156 84.94C56.06 85.564 55.928 86.144 55.76 86.68C55.592 87.208 55.376 87.636 55.112 87.964C55.04 88.028 54.968 88.096 54.896 88.168C54.824 88.24 54.744 88.304 54.656 88.36C54.576 88.408 54.488 88.452 54.392 88.492C54.296 88.532 54.2 88.572 54.104 88.612C53.824 88.676 53.536 88.676 53.24 88.612C52.704 88.436 52.228 88.176 51.812 87.832C51.404 87.488 51.036 87.096 50.708 86.656C50.388 86.208 50.104 85.728 49.856 85.216C49.608 84.704 49.38 84.188 49.172 83.668C49.092 83.5 49.032 83.4 48.992 83.368C48.952 83.328 48.92 83.328 48.896 83.368C48.88 83.408 48.872 83.468 48.872 83.548C48.872 83.62 48.872 83.68 48.872 83.728C48.872 83.88 48.88 84.1 48.896 84.388C48.912 84.668 48.928 84.98 48.944 85.324C48.968 85.66 48.988 86.012 49.004 86.38C49.028 86.74 49.048 87.076 49.064 87.388C49.088 87.7 49.108 87.968 49.124 88.192C49.14 88.424 49.152 88.572 49.16 88.636L46.16 88.888L45.992 85.528C45.976 85.16 45.96 84.788 45.944 84.412C45.936 84.028 45.94 83.644 45.956 83.26C45.972 82.876 46.004 82.496 46.052 82.12C46.108 81.736 46.196 81.36 46.316 80.992C46.42 80.704 46.532 80.436 46.652 80.188C46.796 79.98 46.96 79.788 47.144 79.612C47.328 79.436 47.528 79.296 47.744 79.192C47.968 79.08 48.2 79.016 48.44 79C48.688 78.984 48.94 79.036 49.196 79.156C49.492 79.292 49.748 79.484 49.964 79.732C50.18 79.972 50.372 80.248 50.54 80.56C50.716 80.872 50.872 81.212 51.008 81.58C51.152 81.94 51.292 82.308 51.428 82.684C51.588 83.148 51.756 83.616 51.932 84.088C52.116 84.552 52.352 85.012 52.64 85.468C52.816 85.748 52.984 85.956 53.144 86.092C53.312 86.22 53.46 86.276 53.588 86.26C53.716 86.236 53.824 86.132 53.912 85.948C54 85.756 54.056 85.476 54.08 85.108C54.12 84.708 54.128 84.22 54.104 83.644C54.08 83.06 54.04 82.456 53.984 81.832C53.936 81.208 53.876 80.596 53.804 79.996C53.74 79.388 53.68 78.856 53.624 78.4L56.264 78.112ZM57.2146 88.024C57.1986 87.768 57.1946 87.456 57.2026 87.088C57.2186 86.712 57.2466 86.308 57.2866 85.876C57.3266 85.444 57.3786 84.992 57.4426 84.52C57.5066 84.048 57.5866 83.58 57.6826 83.116C57.7866 82.644 57.9026 82.188 58.0306 81.748C58.1586 81.3 58.3026 80.892 58.4626 80.524C58.6146 80.188 58.8026 79.872 59.0266 79.576C59.2586 79.28 59.5226 79.024 59.8186 78.808C60.1146 78.584 60.4386 78.408 60.7906 78.28C61.1506 78.144 61.5306 78.072 61.9306 78.064C62.4186 78.048 62.8906 78.144 63.3466 78.352C63.8106 78.56 64.2226 78.904 64.5826 79.384C64.8306 79.712 65.0426 80.1 65.2186 80.548C65.4026 80.988 65.5546 81.46 65.6746 81.964C65.7946 82.468 65.8826 82.992 65.9386 83.536C66.0026 84.072 66.0386 84.604 66.0466 85.132C66.0546 85.66 66.0346 86.172 65.9866 86.668C65.9466 87.156 65.8786 87.6 65.7826 88L63.5266 87.94C63.5586 87.828 63.6026 87.676 63.6586 87.484C63.7226 87.284 63.7786 87.072 63.8266 86.848C63.8826 86.624 63.9266 86.404 63.9586 86.188C63.9906 85.964 63.9986 85.772 63.9826 85.612C63.3426 85.7 62.6986 85.772 62.0506 85.828C61.4026 85.884 60.7346 85.892 60.0466 85.852L59.7826 88.072L57.2146 88.024ZM60.1426 84.22C60.7506 84.252 61.3666 84.248 61.9906 84.208C62.6146 84.168 63.2586 84.104 63.9226 84.016C63.8746 83.544 63.8106 83.116 63.7306 82.732C63.6586 82.34 63.5546 81.956 63.4186 81.58C63.2666 81.236 63.0706 80.956 62.8306 80.74C62.5986 80.524 62.3506 80.404 62.0866 80.38C61.8226 80.356 61.5626 80.436 61.3066 80.62C61.0506 80.804 60.8346 81.12 60.6586 81.568C60.5306 81.872 60.4306 82.232 60.3586 82.648C60.2946 83.056 60.2226 83.58 60.1426 84.22ZM74.8842 81.136C74.7402 81.128 74.3882 81.104 73.8282 81.064C73.2762 81.016 72.5722 80.952 71.7162 80.872C71.6842 80.872 71.6522 80.872 71.6202 80.872C71.5962 80.864 71.5682 80.86 71.5362 80.86C71.4082 80.868 71.3122 80.872 71.2482 80.872C71.1842 80.872 71.1402 80.892 71.1162 80.932C71.0922 80.964 71.0802 81.028 71.0802 81.124C71.0882 81.22 71.0922 81.364 71.0922 81.556C71.1002 81.844 71.1162 82.176 71.1402 82.552C71.1642 82.928 71.1882 83.324 71.2122 83.74C71.2442 84.148 71.2802 84.572 71.3202 85.012C71.3602 85.444 71.4002 85.868 71.4402 86.284C71.4882 86.7 71.5362 87.096 71.5842 87.472C71.6322 87.848 71.6842 88.18 71.7402 88.468L68.9202 88.72C68.8722 88.168 68.8442 87.56 68.8362 86.896C68.8362 86.232 68.8522 85.556 68.8842 84.868C68.9162 84.172 68.9602 83.492 69.0162 82.828C69.0722 82.156 69.1402 81.536 69.2202 80.968C69.1482 80.968 68.9882 80.968 68.7402 80.968C68.5002 80.968 68.2402 80.972 67.9602 80.98C67.6802 80.98 67.4042 80.98 67.1322 80.98C66.8682 80.98 66.6762 80.98 66.5562 80.98L66.7602 78.16C67.1602 78.28 67.6402 78.364 68.2002 78.412C68.7602 78.452 69.3402 78.476 69.9402 78.484C70.5402 78.484 71.1282 78.472 71.7042 78.448C72.2882 78.416 72.8042 78.384 73.2522 78.352C73.3482 78.352 73.4802 78.352 73.6482 78.352C73.8242 78.352 74.0042 78.356 74.1882 78.364C74.3802 78.364 74.5562 78.372 74.7162 78.388C74.8762 78.396 74.9922 78.404 75.0642 78.412L74.8842 81.136ZM83.18 88.528C83.164 88.448 83.14 88.304 83.108 88.096C83.084 87.896 83.06 87.684 83.036 87.46C83.012 87.236 82.988 87.028 82.964 86.836C82.948 86.644 82.936 86.52 82.928 86.464C82.688 86.784 82.392 87.084 82.04 87.364C81.696 87.636 81.324 87.864 80.924 88.048C80.532 88.24 80.124 88.372 79.7 88.444C79.284 88.524 78.88 88.524 78.488 88.444C78.104 88.364 77.744 88.2 77.408 87.952C77.08 87.704 76.808 87.344 76.592 86.872C76.424 86.512 76.288 86.112 76.184 85.672C76.08 85.232 76 84.776 75.944 84.304C75.888 83.832 75.852 83.356 75.836 82.876C75.82 82.396 75.82 81.932 75.836 81.484C75.86 81.028 75.892 80.6 75.932 80.2C75.98 79.8 76.032 79.448 76.088 79.144L78.944 79.24C78.936 79.288 78.928 79.336 78.92 79.384C78.912 79.432 78.9 79.48 78.884 79.528C78.852 79.688 78.812 79.944 78.764 80.296C78.724 80.64 78.684 81.028 78.644 81.46C78.604 81.892 78.568 82.344 78.536 82.816C78.512 83.28 78.5 83.72 78.5 84.136C78.5 84.936 78.612 85.548 78.836 85.972C79.068 86.388 79.36 86.628 79.712 86.692C80.064 86.748 80.444 86.632 80.852 86.344C81.268 86.056 81.664 85.604 82.04 84.988C82.24 84.668 82.388 84.312 82.484 83.92C82.58 83.52 82.652 83.06 82.7 82.54C82.748 82.02 82.788 81.432 82.82 80.776C82.86 80.112 82.924 79.36 83.012 78.52L85.808 78.628C85.688 79.092 85.584 79.596 85.496 80.14C85.416 80.684 85.348 81.248 85.292 81.832C85.244 82.416 85.208 83.004 85.184 83.596C85.168 84.188 85.16 84.764 85.16 85.324C85.16 85.884 85.168 86.412 85.184 86.908C85.208 87.404 85.236 87.848 85.268 88.24L83.18 88.528ZM94.5187 91.048C94.0707 91.16 93.6827 91.188 93.3547 91.132C93.0267 91.076 92.7387 90.964 92.4907 90.796C92.2427 90.636 92.0267 90.436 91.8427 90.196C91.6667 89.956 91.5067 89.708 91.3627 89.452C91.2027 89.132 91.0427 88.816 90.8827 88.504C90.7227 88.192 90.5387 87.88 90.3307 87.568C90.2187 87.392 90.0987 87.228 89.9707 87.076C89.8507 86.924 89.7147 86.788 89.5627 86.668C89.4107 86.54 89.2387 86.436 89.0467 86.356C88.8627 86.268 88.6507 86.208 88.4107 86.176L88.3387 86.152L88.4467 88.072L86.5627 88.168C86.3867 87.616 86.2507 87.012 86.1547 86.356C86.0587 85.692 85.9907 85.02 85.9507 84.34C85.9107 83.652 85.8907 82.98 85.8907 82.324C85.8907 81.66 85.9027 81.056 85.9267 80.512C85.9587 79.96 85.9947 79.492 86.0347 79.108C86.0827 78.716 86.1227 78.448 86.1547 78.304C86.2187 78.184 86.3147 78.1 86.4427 78.052C86.8667 77.908 87.3667 77.796 87.9427 77.716C88.5187 77.628 89.1067 77.592 89.7067 77.608C90.3147 77.616 90.9107 77.688 91.4947 77.824C92.0787 77.952 92.5867 78.156 93.0187 78.436C93.5147 78.74 93.8907 79.132 94.1467 79.612C94.4027 80.084 94.5507 80.584 94.5907 81.112C94.6307 81.632 94.5667 82.156 94.3987 82.684C94.2387 83.212 93.9867 83.684 93.6427 84.1C93.3067 84.508 92.8907 84.832 92.3947 85.072C91.8987 85.312 91.3347 85.412 90.7027 85.372C91.0227 85.46 91.3067 85.612 91.5547 85.828C91.8027 86.044 92.0187 86.284 92.2027 86.548C92.3867 86.812 92.5507 87.08 92.6947 87.352C92.8387 87.624 92.9707 87.868 93.0907 88.084C93.2667 88.396 93.4707 88.624 93.7027 88.768C93.9427 88.912 94.2427 88.916 94.6027 88.78L94.5187 91.048ZM92.0347 82.372C92.2027 82.06 92.2787 81.772 92.2627 81.508C92.2467 81.244 92.1627 81.012 92.0107 80.812C91.8667 80.612 91.6707 80.448 91.4227 80.32C91.1747 80.184 90.9027 80.088 90.6067 80.032C90.3107 79.976 90.0027 79.96 89.6827 79.984C89.3707 80 89.0747 80.06 88.7947 80.164C88.7307 80.532 88.6747 80.868 88.6267 81.172C88.5867 81.468 88.5507 81.748 88.5187 82.012C88.4867 82.276 88.4587 82.528 88.4347 82.768C88.4107 83 88.3907 83.232 88.3747 83.464C88.3907 83.512 88.4747 83.56 88.6267 83.608C88.7787 83.656 88.9667 83.692 89.1907 83.716C89.4147 83.732 89.6627 83.728 89.9347 83.704C90.2147 83.68 90.4867 83.62 90.7507 83.524C91.0227 83.42 91.2707 83.276 91.4947 83.092C91.7187 82.908 91.8987 82.668 92.0347 82.372ZM95.1951 88.024C95.1791 87.768 95.1751 87.456 95.1831 87.088C95.1991 86.712 95.2271 86.308 95.2671 85.876C95.3071 85.444 95.3591 84.992 95.4231 84.52C95.4871 84.048 95.5671 83.58 95.6631 83.116C95.7671 82.644 95.8831 82.188 96.0111 81.748C96.1391 81.3 96.2831 80.892 96.4431 80.524C96.5951 80.188 96.7831 79.872 97.0071 79.576C97.2391 79.28 97.5031 79.024 97.7991 78.808C98.0951 78.584 98.4191 78.408 98.7711 78.28C99.1311 78.144 99.5111 78.072 99.9111 78.064C100.399 78.048 100.871 78.144 101.327 78.352C101.791 78.56 102.203 78.904 102.563 79.384C102.811 79.712 103.023 80.1 103.199 80.548C103.383 80.988 103.535 81.46 103.655 81.964C103.775 82.468 103.863 82.992 103.919 83.536C103.983 84.072 104.019 84.604 104.027 85.132C104.035 85.66 104.015 86.172 103.967 86.668C103.927 87.156 103.859 87.6 103.763 88L101.507 87.94C101.539 87.828 101.583 87.676 101.639 87.484C101.703 87.284 101.759 87.072 101.807 86.848C101.863 86.624 101.907 86.404 101.939 86.188C101.971 85.964 101.979 85.772 101.963 85.612C101.323 85.7 100.679 85.772 100.031 85.828C99.3831 85.884 98.7151 85.892 98.0271 85.852L97.7631 88.072L95.1951 88.024ZM98.1231 84.22C98.7311 84.252 99.3471 84.248 99.9711 84.208C100.595 84.168 101.239 84.104 101.903 84.016C101.855 83.544 101.791 83.116 101.711 82.732C101.639 82.34 101.535 81.956 101.399 81.58C101.247 81.236 101.051 80.956 100.811 80.74C100.579 80.524 100.331 80.404 100.067 80.38C99.8031 80.356 99.5431 80.436 99.2871 80.62C99.0311 80.804 98.8151 81.12 98.6391 81.568C98.5111 81.872 98.4111 82.232 98.3391 82.648C98.2751 83.056 98.2031 83.58 98.1231 84.22ZM111.502 87.76C111.422 87.792 111.298 87.836 111.13 87.892C110.962 87.956 110.782 88.016 110.59 88.072C110.398 88.136 110.214 88.192 110.038 88.24C109.862 88.296 109.73 88.336 109.642 88.36C109.138 88.488 108.626 88.564 108.106 88.588C107.594 88.62 107.154 88.596 106.786 88.516C106.466 88.452 106.19 88.32 105.958 88.12C105.734 87.92 105.546 87.68 105.394 87.4C105.25 87.12 105.134 86.812 105.046 86.476C104.958 86.14 104.894 85.8 104.854 85.456C104.814 85.104 104.79 84.76 104.782 84.424C104.774 84.088 104.774 83.784 104.782 83.512C104.782 83.168 104.798 82.756 104.83 82.276C104.87 81.788 104.914 81.288 104.962 80.776C105.018 80.256 105.07 79.752 105.118 79.264C105.174 78.776 105.222 78.352 105.262 77.992L108.082 78.244C107.954 79.06 107.822 79.872 107.686 80.68C107.55 81.48 107.414 82.3 107.278 83.14C107.23 83.452 107.186 83.8 107.146 84.184C107.106 84.568 107.082 84.92 107.074 85.24C107.082 85.544 107.118 85.788 107.182 85.972C107.254 86.156 107.346 86.296 107.458 86.392C107.57 86.488 107.702 86.544 107.854 86.56C108.006 86.576 108.166 86.564 108.334 86.524C108.422 86.508 108.518 86.484 108.622 86.452C108.734 86.412 108.89 86.352 109.09 86.272C109.29 86.184 109.55 86.068 109.87 85.924C110.198 85.772 110.622 85.58 111.142 85.348L111.502 87.76Z" fill="#4F9E1C"/>
</g>
<defs>
<clipPath id="clip0_874_948">
<rect width="130" height="130" fill="white"/>
</clipPath>
</defs>
</svg>
