<svg width="159" height="130" viewBox="0 0 159 130" fill="none" xmlns="http://www.w3.org/2000/svg">
<g clip-path="url(#clip0_874_954)">
<path d="M60.1678 36.5573C71.0767 36.5573 80.9539 40.9677 88.1026 48.0996C93.7513 53.7342 97.6961 61.0672 99.1044 69.2632H95.8498C94.4778 61.9495 90.9034 55.4109 85.8375 50.3578C79.2681 43.8048 70.1922 39.7519 60.1678 39.7519C50.1434 39.7519 41.0676 43.8048 34.4981 50.3578C27.9286 56.9108 23.8655 65.9638 23.8655 75.963C23.8655 85.9622 27.9286 95.0153 34.4981 101.568C41.0676 108.121 50.1434 112.174 60.1678 112.174C70.1922 112.174 79.2681 108.121 85.8375 101.568C86.2973 101.11 86.7438 100.638 87.1794 100.156H91.3535C90.3459 101.447 89.2598 102.673 88.1026 103.828C80.9539 110.958 71.0767 115.37 60.1678 115.37C49.2589 115.37 39.3817 110.96 32.233 103.828C25.0843 96.6968 20.6616 86.8445 20.6616 75.963C20.6616 65.0815 25.0831 55.2292 32.233 48.0984C39.3817 40.9677 49.2577 36.5573 60.1678 36.5573Z" fill="#4F9E1C"/>
<path fill-rule="evenodd" clip-rule="evenodd" d="M106.466 69.2608C110.072 69.8759 132.699 61.2477 117.102 38.9347C117.102 38.9347 115.228 47.1704 107.628 49.4165C100.028 51.6627 95.2179 60.5953 102.747 69.0959C102.747 69.0959 120.038 58.3336 116.757 46.506C116.757 46.5048 121.524 56.5677 106.466 69.2608Z" fill="#4F9E1C"/>
<path fill-rule="evenodd" clip-rule="evenodd" d="M95.5037 54.7609C93.4788 54.2397 83.7078 44.4524 97.0809 36.4634C97.0809 36.4634 96.1227 41.1952 99.5583 44.1431C102.994 47.0909 103.403 52.8723 97.4815 55.5445C97.4815 55.5445 90.9941 45.892 95.482 40.4922C95.4832 40.491 90.6345 44.6245 95.5037 54.7609Z" fill="#4F9E1C"/>
<path d="M66.6347 87.624C66.5227 87.384 66.4227 87.072 66.3347 86.688C66.2547 86.304 66.1867 85.908 66.1307 85.5C66.0747 85.084 66.0267 84.684 65.9867 84.3C65.9547 83.916 65.9267 83.6 65.9027 83.352C65.5667 83.352 65.2547 83.356 64.9667 83.364C64.6867 83.372 64.4107 83.384 64.1387 83.4C63.8667 83.416 63.5907 83.44 63.3107 83.472C63.0307 83.496 62.7267 83.528 62.3987 83.568C62.3987 83.752 62.4027 83.984 62.4107 84.264C62.4187 84.544 62.4267 84.832 62.4347 85.128C62.4507 85.424 62.4627 85.716 62.4707 86.004C62.4787 86.284 62.4907 86.524 62.5067 86.724L60.7667 86.76C60.6467 86.336 60.5467 85.864 60.4667 85.344C60.3867 84.816 60.3227 84.264 60.2747 83.688C60.2347 83.104 60.2067 82.512 60.1907 81.912C60.1747 81.304 60.1707 80.708 60.1787 80.124C60.1947 79.54 60.2147 78.98 60.2387 78.444C60.2707 77.9 60.3107 77.404 60.3587 76.956L63.0227 77.088C62.9347 77.456 62.8507 77.864 62.7707 78.312C62.6987 78.76 62.6347 79.212 62.5787 79.668C62.5227 80.116 62.4787 80.552 62.4467 80.976C62.4147 81.392 62.4027 81.748 62.4107 82.044C62.7307 82.012 63.0227 81.984 63.2867 81.96C63.5507 81.928 63.8067 81.904 64.0547 81.888C64.3027 81.872 64.5587 81.86 64.8227 81.852C65.0867 81.844 65.3827 81.84 65.7107 81.84C65.7027 81.416 65.6947 80.952 65.6867 80.448C65.6787 79.936 65.6747 79.44 65.6747 78.96C65.6827 78.48 65.6987 78.04 65.7227 77.64C65.7467 77.24 65.7827 76.932 65.8307 76.716L69.0227 76.92C68.9427 77.368 68.8707 77.872 68.8067 78.432C68.7427 78.984 68.6827 79.568 68.6267 80.184C68.5787 80.8 68.5347 81.436 68.4947 82.092C68.4627 82.74 68.4387 83.384 68.4227 84.024C68.4067 84.656 68.4027 85.272 68.4107 85.872C68.4187 86.464 68.4387 87.016 68.4707 87.528L66.6347 87.624ZM77.419 81.804C77.451 82.156 77.463 82.552 77.455 82.992C77.455 83.432 77.447 83.872 77.431 84.312C77.415 84.752 77.399 85.172 77.383 85.572C77.367 85.964 77.363 86.292 77.371 86.556L75.775 86.628C75.775 86.572 75.775 86.48 75.775 86.352C75.783 86.224 75.787 86.092 75.787 85.956C75.787 85.812 75.787 85.676 75.787 85.548C75.795 85.42 75.799 85.324 75.799 85.26C75.799 84.828 75.743 84.584 75.631 84.528C75.527 84.472 75.359 84.624 75.127 84.984C74.911 85.344 74.619 85.676 74.251 85.98C73.891 86.276 73.495 86.5 73.063 86.652C72.639 86.804 72.199 86.86 71.743 86.82C71.287 86.788 70.863 86.616 70.471 86.304C70.239 86.128 70.051 85.916 69.907 85.668C69.771 85.42 69.667 85.152 69.595 84.864C69.523 84.576 69.483 84.284 69.475 83.988C69.475 83.684 69.499 83.388 69.547 83.1C69.635 82.516 69.827 81.984 70.123 81.504C70.419 81.024 70.783 80.608 71.215 80.256C71.655 79.896 72.143 79.6 72.679 79.368C73.215 79.136 73.771 78.972 74.347 78.876C74.763 78.812 75.223 78.776 75.727 78.768C76.239 78.752 76.791 78.788 77.383 78.876L77.275 81.216C76.171 81.056 75.223 81.096 74.431 81.336C73.647 81.568 73.039 81.948 72.607 82.476C72.271 82.9 72.075 83.268 72.019 83.58C71.963 83.884 72.003 84.1 72.139 84.228C72.283 84.348 72.503 84.364 72.799 84.276C73.095 84.18 73.431 83.944 73.807 83.568C74.103 83.264 74.371 82.948 74.611 82.62C74.851 82.284 75.051 81.996 75.211 81.756L77.419 81.804ZM82.0592 83.1C82.1952 82.756 82.2352 82.464 82.1792 82.224C82.1232 81.984 82.0192 81.816 81.8672 81.72C81.7232 81.616 81.5552 81.592 81.3632 81.648C81.1712 81.704 81.0032 81.852 80.8592 82.092C80.7472 82.276 80.6632 82.492 80.6072 82.74C80.5512 82.98 80.5152 83.216 80.4992 83.448C80.4832 83.648 80.4752 83.896 80.4752 84.192C80.4752 84.48 80.4752 84.78 80.4752 85.092C80.4752 85.404 80.4752 85.708 80.4752 86.004C80.4832 86.3 80.4872 86.552 80.4872 86.76L78.5672 86.808C78.5112 86.64 78.4512 86.368 78.3872 85.992C78.3232 85.608 78.2632 85.172 78.2072 84.684C78.1592 84.196 78.1192 83.676 78.0872 83.124C78.0552 82.564 78.0352 82.02 78.0272 81.492C78.0272 80.964 78.0432 80.472 78.0752 80.016C78.1072 79.56 78.1672 79.188 78.2552 78.9L81.2552 79.02C81.2472 79.052 81.2272 79.128 81.1952 79.248C81.1632 79.368 81.1272 79.504 81.0872 79.656C81.0552 79.8 81.0192 79.94 80.9792 80.076C80.9392 80.212 80.9112 80.316 80.8952 80.388C81.2552 80.212 81.6272 80.052 82.0112 79.908C82.3952 79.756 82.7592 79.668 83.1032 79.644C83.4552 79.612 83.7752 79.66 84.0632 79.788C84.3592 79.908 84.5992 80.148 84.7832 80.508C84.8552 80.66 84.9072 80.868 84.9392 81.132C84.9712 81.396 84.9832 81.676 84.9752 81.972C84.9672 82.268 84.9352 82.556 84.8792 82.836C84.8232 83.116 84.7432 83.352 84.6392 83.544L82.0592 83.1ZM92.6755 76.716C92.6755 76.9 92.6875 77.164 92.7115 77.508C92.7355 77.844 92.7635 78.228 92.7955 78.66C92.8275 79.084 92.8595 79.536 92.8915 80.016C92.9235 80.488 92.9475 80.952 92.9635 81.408C92.9795 81.856 92.9835 82.28 92.9755 82.68C92.9755 83.072 92.9555 83.4 92.9155 83.664C92.8915 83.824 92.8635 83.98 92.8315 84.132C92.7995 84.284 92.7555 84.44 92.6995 84.6C92.6355 84.76 92.5595 84.916 92.4715 85.068C92.3915 85.212 92.3075 85.352 92.2195 85.488C91.9235 85.888 91.5555 86.22 91.1155 86.484C90.6835 86.748 90.2195 86.92 89.7235 87C89.2355 87.088 88.7395 87.076 88.2355 86.964C87.7315 86.852 87.2675 86.62 86.8435 86.268C86.7075 86.156 86.5875 86.036 86.4835 85.908C86.3795 85.78 86.2835 85.648 86.1955 85.512C86.0595 85.304 85.9595 85.08 85.8955 84.84C85.8315 84.6 85.8035 84.356 85.8115 84.108C85.8275 83.86 85.8795 83.62 85.9675 83.388C86.0555 83.148 86.1875 82.924 86.3635 82.716C86.5475 82.508 86.7355 82.332 86.9275 82.188C87.3355 81.868 87.8035 81.648 88.3315 81.528C88.8675 81.408 89.4235 81.34 89.9995 81.324C90.0395 81.332 90.0755 81.336 90.1075 81.336C90.1395 81.336 90.1755 81.344 90.2155 81.36C90.1595 81.04 90.0915 80.66 90.0115 80.22C89.9315 79.78 89.8515 79.344 89.7715 78.912C89.6915 78.48 89.6195 78.092 89.5555 77.748C89.4995 77.404 89.4595 77.168 89.4355 77.04L92.6755 76.716ZM88.1995 83.268C87.9835 83.468 87.8515 83.672 87.8035 83.88C87.7555 84.088 87.7755 84.276 87.8635 84.444C87.9595 84.604 88.1115 84.732 88.3195 84.828C88.5275 84.924 88.7755 84.956 89.0635 84.924C89.3915 84.9 89.6915 84.788 89.9635 84.588C90.2435 84.38 90.4275 84.108 90.5155 83.772C90.5475 83.644 90.5555 83.516 90.5395 83.388C90.5315 83.252 90.4915 83.132 90.4195 83.028C90.3475 82.916 90.2475 82.832 90.1195 82.776C89.9915 82.712 89.8275 82.688 89.6275 82.704C89.3795 82.72 89.1315 82.772 88.8835 82.86C88.6355 82.94 88.4075 83.076 88.1995 83.268ZM105.313 79.068C105.361 79.292 105.401 79.572 105.433 79.908C105.465 80.236 105.493 80.584 105.517 80.952C105.541 81.312 105.557 81.668 105.565 82.02C105.573 82.364 105.577 82.66 105.577 82.908C105.577 83.276 105.545 83.652 105.481 84.036C105.417 84.412 105.317 84.764 105.181 85.092C105.045 85.412 104.873 85.696 104.665 85.944C104.465 86.184 104.225 86.352 103.945 86.448C103.665 86.552 103.341 86.568 102.973 86.496C102.613 86.432 102.213 86.248 101.773 85.944C101.565 85.8 101.361 85.64 101.161 85.464C100.969 85.288 100.789 85.104 100.621 84.912C100.453 84.72 100.305 84.528 100.177 84.336C100.049 84.144 99.9486 83.956 99.8766 83.772C99.7006 84.036 99.5126 84.312 99.3126 84.6C99.1206 84.888 98.9046 85.16 98.6646 85.416C98.4246 85.672 98.1606 85.9 97.8726 86.1C97.5846 86.292 97.2606 86.428 96.9006 86.508C96.6206 86.572 96.3446 86.58 96.0726 86.532C95.7606 86.5 95.4886 86.408 95.2566 86.256C95.0326 86.096 94.8366 85.9 94.6686 85.668C94.5006 85.436 94.3606 85.18 94.2486 84.9C94.1446 84.612 94.0606 84.316 93.9966 84.012C93.9166 83.628 93.8526 83.212 93.8046 82.764C93.7566 82.316 93.7246 81.864 93.7086 81.408C93.6926 80.952 93.6926 80.508 93.7086 80.076C93.7246 79.636 93.7566 79.228 93.8046 78.852L97.3086 78.96C97.2526 79.168 97.1846 79.46 97.1046 79.836C97.0326 80.212 96.9606 80.612 96.8886 81.036C96.8246 81.46 96.7766 81.88 96.7446 82.296C96.7126 82.712 96.7126 83.064 96.7446 83.352C96.7846 83.632 96.8646 83.824 96.9846 83.928C97.1126 84.024 97.3006 83.968 97.5486 83.76C97.8286 83.52 98.0446 83.268 98.1966 83.004C98.3566 82.732 98.4846 82.46 98.5806 82.188C98.6766 81.916 98.7646 81.644 98.8446 81.372C98.9246 81.1 99.0286 80.836 99.1566 80.58L100.441 80.604C100.577 80.884 100.685 81.164 100.765 81.444C100.845 81.724 100.941 82.004 101.053 82.284C101.237 82.78 101.421 83.16 101.605 83.424C101.789 83.68 101.957 83.84 102.109 83.904C102.269 83.968 102.409 83.948 102.529 83.844C102.649 83.732 102.741 83.556 102.805 83.316C102.869 83.068 102.901 82.768 102.901 82.416C102.901 82.056 102.857 81.66 102.769 81.228C102.729 81.028 102.685 80.824 102.637 80.616C102.589 80.4 102.541 80.2 102.493 80.016C102.453 79.824 102.413 79.66 102.373 79.524C102.333 79.388 102.301 79.288 102.277 79.224L105.313 79.068ZM111.959 79.824C112.367 80.304 112.651 80.864 112.811 81.504C112.979 82.136 113.019 82.772 112.931 83.412C112.851 84.044 112.639 84.636 112.295 85.188C111.959 85.74 111.491 86.172 110.891 86.484C110.467 86.716 110.019 86.828 109.547 86.82C109.075 86.82 108.623 86.704 108.191 86.472C107.887 86.304 107.615 86.088 107.375 85.824C107.143 85.552 106.943 85.256 106.775 84.936C106.615 84.608 106.495 84.264 106.415 83.904C106.335 83.536 106.303 83.172 106.319 82.812C106.343 82.196 106.443 81.652 106.619 81.18C106.795 80.7 107.031 80.292 107.327 79.956C107.623 79.62 107.967 79.36 108.359 79.176C108.759 78.992 109.171 78.892 109.595 78.876C110.019 78.852 110.435 78.92 110.843 79.08C111.259 79.232 111.631 79.48 111.959 79.824ZM110.003 84.3C110.203 84.18 110.371 84.02 110.507 83.82C110.643 83.612 110.739 83.388 110.795 83.148C110.851 82.9 110.867 82.648 110.843 82.392C110.819 82.136 110.747 81.904 110.627 81.696C110.603 81.64 110.563 81.58 110.507 81.516C110.379 81.348 110.211 81.228 110.003 81.156C109.803 81.076 109.591 81.088 109.367 81.192C109.231 81.256 109.111 81.364 109.007 81.516C108.903 81.66 108.819 81.828 108.755 82.02C108.691 82.212 108.643 82.42 108.611 82.644C108.587 82.86 108.583 83.068 108.599 83.268C108.623 83.524 108.679 83.74 108.767 83.916C108.855 84.092 108.963 84.224 109.091 84.312C109.227 84.392 109.375 84.432 109.535 84.432C109.695 84.432 109.851 84.388 110.003 84.3ZM117.696 83.1C117.832 82.756 117.872 82.464 117.816 82.224C117.76 81.984 117.656 81.816 117.504 81.72C117.36 81.616 117.192 81.592 117 81.648C116.808 81.704 116.64 81.852 116.496 82.092C116.384 82.276 116.3 82.492 116.244 82.74C116.188 82.98 116.152 83.216 116.136 83.448C116.12 83.648 116.112 83.896 116.112 84.192C116.112 84.48 116.112 84.78 116.112 85.092C116.112 85.404 116.112 85.708 116.112 86.004C116.12 86.3 116.124 86.552 116.124 86.76L114.204 86.808C114.148 86.64 114.088 86.368 114.024 85.992C113.96 85.608 113.9 85.172 113.844 84.684C113.796 84.196 113.756 83.676 113.724 83.124C113.692 82.564 113.672 82.02 113.664 81.492C113.664 80.964 113.68 80.472 113.712 80.016C113.744 79.56 113.804 79.188 113.892 78.9L116.892 79.02C116.884 79.052 116.864 79.128 116.832 79.248C116.8 79.368 116.764 79.504 116.724 79.656C116.692 79.8 116.656 79.94 116.616 80.076C116.576 80.212 116.548 80.316 116.532 80.388C116.892 80.212 117.264 80.052 117.648 79.908C118.032 79.756 118.396 79.668 118.74 79.644C119.092 79.612 119.412 79.66 119.7 79.788C119.996 79.908 120.236 80.148 120.42 80.508C120.492 80.66 120.544 80.868 120.576 81.132C120.608 81.396 120.62 81.676 120.612 81.972C120.604 82.268 120.572 82.556 120.516 82.836C120.46 83.116 120.38 83.352 120.276 83.544L117.696 83.1ZM124.628 77.16C124.588 77.352 124.532 77.644 124.46 78.036C124.388 78.42 124.32 78.828 124.256 79.26C124.192 79.684 124.136 80.088 124.088 80.472C124.04 80.856 124.024 81.14 124.04 81.324C124.2 81.308 124.42 81.244 124.7 81.132C124.98 81.02 125.264 80.892 125.552 80.748C125.848 80.604 126.12 80.46 126.368 80.316C126.624 80.164 126.808 80.04 126.92 79.944L127.724 82.032C127.556 82.144 127.34 82.256 127.076 82.368C126.82 82.472 126.556 82.568 126.284 82.656C126.02 82.744 125.764 82.82 125.516 82.884C125.276 82.948 125.088 82.984 124.952 82.992C125.064 83.136 125.224 83.28 125.432 83.424C125.64 83.568 125.868 83.696 126.116 83.808C126.364 83.912 126.616 84 126.872 84.072C127.136 84.144 127.376 84.18 127.592 84.18L127.376 86.448C127.04 86.48 126.676 86.448 126.284 86.352C125.9 86.248 125.532 86.104 125.18 85.92C124.828 85.728 124.512 85.508 124.232 85.26C123.96 85.012 123.772 84.756 123.668 84.492C123.66 84.532 123.652 84.58 123.644 84.636C123.644 84.684 123.64 84.784 123.632 84.936C123.624 85.088 123.612 85.308 123.596 85.596C123.588 85.876 123.572 86.26 123.548 86.748L121.868 86.868C121.756 86.508 121.664 86.064 121.592 85.536C121.528 85.008 121.48 84.44 121.448 83.832C121.424 83.216 121.412 82.58 121.412 81.924C121.412 81.268 121.424 80.632 121.448 80.016C121.48 79.392 121.516 78.812 121.556 78.276C121.604 77.732 121.656 77.264 121.712 76.872L124.628 77.16ZM131.133 81.168C131.101 81.392 131.065 81.684 131.025 82.044C130.993 82.396 130.957 82.772 130.917 83.172C130.885 83.572 130.853 83.98 130.821 84.396C130.789 84.804 130.757 85.18 130.725 85.524C130.701 85.86 130.681 86.148 130.665 86.388C130.649 86.62 130.641 86.76 130.641 86.808L128.997 86.952C128.909 86.8 128.825 86.58 128.745 86.292C128.673 85.996 128.609 85.668 128.553 85.308C128.497 84.94 128.449 84.552 128.409 84.144C128.369 83.736 128.345 83.344 128.337 82.968C128.329 82.584 128.333 82.232 128.349 81.912C128.373 81.584 128.413 81.32 128.469 81.12L131.133 81.168ZM129.885 80.328C129.741 80.328 129.601 80.3 129.465 80.244C129.337 80.188 129.225 80.112 129.129 80.016C129.033 79.912 128.957 79.792 128.901 79.656C128.845 79.52 128.817 79.376 128.817 79.224C128.817 78.92 128.921 78.664 129.129 78.456C129.337 78.24 129.589 78.132 129.885 78.132C130.181 78.132 130.433 78.24 130.641 78.456C130.849 78.664 130.953 78.92 130.953 79.224C130.953 79.376 130.925 79.52 130.869 79.656C130.813 79.792 130.737 79.912 130.641 80.016C130.545 80.112 130.429 80.188 130.293 80.244C130.165 80.3 130.029 80.328 129.885 80.328ZM134.412 78.6C134.42 78.656 134.424 78.728 134.424 78.816C134.424 78.904 134.424 78.996 134.424 79.092C134.424 79.188 134.42 79.28 134.412 79.368C134.412 79.456 134.412 79.532 134.412 79.596C134.588 79.428 134.788 79.276 135.012 79.14C135.244 78.996 135.484 78.88 135.732 78.792C135.988 78.696 136.248 78.632 136.512 78.6C136.776 78.56 137.036 78.56 137.292 78.6C137.54 78.64 137.78 78.728 138.012 78.864C138.244 78.992 138.444 79.168 138.612 79.392C138.732 79.552 138.828 79.74 138.9 79.956C138.98 80.172 139.04 80.4 139.08 80.64C139.128 80.88 139.16 81.12 139.176 81.36C139.2 81.6 139.212 81.824 139.212 82.032C139.212 82.32 139.2 82.668 139.176 83.076C139.16 83.476 139.144 83.892 139.128 84.324C139.12 84.748 139.124 85.164 139.14 85.572C139.156 85.98 139.2 86.328 139.272 86.616L136.296 86.592C136.256 86.376 136.244 86.084 136.26 85.716C136.284 85.348 136.324 84.96 136.38 84.552C136.436 84.144 136.496 83.748 136.56 83.364C136.632 82.972 136.692 82.648 136.74 82.392C136.764 82.256 136.784 82.124 136.8 81.996C136.816 81.86 136.828 81.728 136.836 81.6C136.852 81.192 136.804 80.892 136.692 80.7C136.58 80.508 136.432 80.4 136.248 80.376C136.064 80.344 135.86 80.388 135.636 80.508C135.42 80.62 135.22 80.788 135.036 81.012C134.852 81.228 134.7 81.488 134.58 81.792C134.468 82.096 134.42 82.416 134.436 82.752C134.444 82.984 134.46 83.288 134.484 83.664C134.516 84.032 134.54 84.412 134.556 84.804C134.572 85.196 134.58 85.572 134.58 85.932C134.58 86.284 134.56 86.56 134.52 86.76L131.64 86.568C131.728 85.976 131.8 85.344 131.856 84.672C131.912 83.992 131.94 83.304 131.94 82.608C131.948 81.912 131.928 81.228 131.88 80.556C131.84 79.884 131.764 79.256 131.652 78.672L134.412 78.6ZM142.194 85.44C142.258 85.536 142.366 85.66 142.518 85.812C142.67 85.956 142.842 86.108 143.034 86.268C143.402 86.564 143.734 86.756 144.03 86.844C144.334 86.932 144.606 86.94 144.846 86.868C145.094 86.796 145.306 86.656 145.482 86.448C145.658 86.248 145.806 86.004 145.926 85.716C146.046 85.42 146.134 85.096 146.19 84.744C146.246 84.392 146.274 84.032 146.274 83.664C145.874 83.952 145.434 84.196 144.954 84.396C144.482 84.588 143.982 84.716 143.454 84.78C143.342 84.788 143.226 84.796 143.106 84.804C142.994 84.804 142.874 84.796 142.746 84.78C142.634 84.764 142.514 84.748 142.386 84.732C142.258 84.708 142.134 84.676 142.014 84.636C141.894 84.596 141.77 84.552 141.642 84.504C141.522 84.448 141.394 84.376 141.258 84.288C141.162 84.24 141.038 84.156 140.886 84.036C140.838 83.988 140.786 83.932 140.73 83.868C140.682 83.804 140.626 83.74 140.562 83.676C140.458 83.548 140.366 83.42 140.286 83.292C140.254 83.22 140.222 83.144 140.19 83.064C140.166 82.984 140.142 82.908 140.118 82.836C140.094 82.756 140.074 82.68 140.058 82.608C140.05 82.528 140.038 82.444 140.022 82.356C140.006 82.268 139.998 82.188 139.998 82.116C139.998 82.036 140.002 81.952 140.01 81.864C140.018 81.784 140.026 81.708 140.034 81.636C140.042 81.556 140.054 81.484 140.07 81.42C140.086 81.332 140.102 81.256 140.118 81.192C140.142 81.12 140.17 81.052 140.202 80.988C140.218 80.924 140.238 80.864 140.262 80.808C140.294 80.744 140.33 80.676 140.37 80.604C140.402 80.54 140.434 80.484 140.466 80.436C140.498 80.38 140.534 80.32 140.574 80.256C141.03 79.648 141.554 79.184 142.146 78.864C142.738 78.544 143.362 78.328 144.018 78.216C144.682 78.104 145.358 78.076 146.046 78.132C146.742 78.188 147.422 78.288 148.086 78.432L147.69 81.06C147.402 80.94 147.058 80.852 146.658 80.796C146.258 80.74 145.842 80.72 145.41 80.736C144.986 80.744 144.574 80.788 144.174 80.868C143.774 80.948 143.434 81.064 143.154 81.216C142.914 81.344 142.714 81.496 142.554 81.672C142.402 81.84 142.318 82.004 142.302 82.164C142.286 82.316 142.354 82.456 142.506 82.584C142.658 82.704 142.914 82.78 143.274 82.812C143.498 82.828 143.734 82.812 143.982 82.764C144.238 82.708 144.474 82.644 144.69 82.572C145.13 82.412 145.494 82.236 145.782 82.044C145.926 81.956 146.046 81.872 146.142 81.792C146.238 81.712 146.318 81.644 146.382 81.588C146.494 81.492 146.614 81.436 146.742 81.42C146.878 81.396 147.006 81.404 147.126 81.444C147.254 81.476 147.37 81.532 147.474 81.612C147.578 81.692 147.662 81.792 147.726 81.912C147.854 82.152 147.95 82.448 148.014 82.8C148.078 83.144 148.114 83.508 148.122 83.892C148.138 84.276 148.126 84.664 148.086 85.056C148.054 85.448 148.002 85.812 147.93 86.148C147.906 86.26 147.878 86.368 147.846 86.472C147.822 86.576 147.794 86.672 147.762 86.76C147.57 87.312 147.302 87.768 146.958 88.128C146.614 88.496 146.226 88.772 145.794 88.956C145.37 89.148 144.918 89.248 144.438 89.256C143.966 89.272 143.494 89.2 143.022 89.04C142.558 88.88 142.114 88.636 141.69 88.308C141.266 87.988 140.894 87.584 140.574 87.096L142.194 85.44Z" fill="#4F9E1C"/>
</g>
<defs>
<clipPath id="clip0_874_954">
<rect width="159" height="130" fill="white"/>
</clipPath>
</defs>
</svg>
