<svg width="164" height="164" viewBox="0 0 164 164" fill="none" xmlns="http://www.w3.org/2000/svg">
<g clip-path="url(#clip0_4_5289)">
<path d="M75.7133 46.1185C89.4407 46.1185 101.87 51.6824 110.865 60.6796C117.974 67.7878 122.938 77.0386 124.71 87.3782H120.614C118.888 78.1517 114.39 69.9031 108.015 63.5283C99.7484 55.2615 88.3276 50.1487 75.7133 50.1487C63.0989 50.1487 51.6782 55.2615 43.4113 63.5283C35.1445 71.7952 30.0317 83.2159 30.0317 95.8303C30.0317 108.445 35.1445 119.865 43.4113 128.132C51.6782 136.399 63.0989 141.512 75.7133 141.512C88.3276 141.512 99.7484 136.399 108.015 128.132C108.594 127.554 109.156 126.958 109.704 126.351H114.956C113.688 127.979 112.322 129.526 110.865 130.982C101.87 139.978 89.4407 145.544 75.7133 145.544C61.9859 145.544 49.5568 139.98 40.5611 130.982C31.5654 121.987 26 109.558 26 95.8303C26 82.1029 31.5639 69.6738 40.5611 60.6781C49.5568 51.6824 61.9843 46.1185 75.7133 46.1185Z" fill="#4F9E1C"/>
<path fill-rule="evenodd" clip-rule="evenodd" d="M133.972 87.3751C138.51 88.1511 166.984 77.2663 147.357 49.1176C147.357 49.1176 144.998 59.5073 135.435 62.3408C125.871 65.1744 119.818 76.4433 129.292 87.1671C129.292 87.1671 151.051 73.59 146.922 58.669C146.922 58.6675 152.921 71.3623 133.972 87.3751Z" fill="#4F9E1C"/>
<path fill-rule="evenodd" clip-rule="evenodd" d="M120.179 69.083C117.63 68.4255 105.335 56.0784 122.163 46C122.163 46 120.958 51.9693 125.281 55.6881C129.604 59.407 130.119 66.7004 122.667 70.0716C122.667 70.0716 114.504 57.8946 120.151 51.0825C120.153 51.081 114.051 56.2956 120.179 69.083Z" fill="#4F9E1C"/>
<path d="M50.684 107.224C50.572 106.984 50.472 106.672 50.384 106.288C50.304 105.904 50.236 105.508 50.18 105.1C50.124 104.684 50.076 104.284 50.036 103.9C50.004 103.516 49.976 103.2 49.952 102.952C49.616 102.952 49.304 102.956 49.016 102.964C48.736 102.972 48.46 102.984 48.188 103C47.916 103.016 47.64 103.04 47.36 103.072C47.08 103.096 46.776 103.128 46.448 103.168C46.448 103.352 46.452 103.584 46.46 103.864C46.468 104.144 46.476 104.432 46.484 104.728C46.5 105.024 46.512 105.316 46.52 105.604C46.528 105.884 46.54 106.124 46.556 106.324L44.816 106.36C44.696 105.936 44.596 105.464 44.516 104.944C44.436 104.416 44.372 103.864 44.324 103.288C44.284 102.704 44.256 102.112 44.24 101.512C44.224 100.904 44.22 100.308 44.228 99.724C44.244 99.14 44.264 98.58 44.288 98.044C44.32 97.5 44.36 97.004 44.408 96.556L47.072 96.688C46.984 97.056 46.9 97.464 46.82 97.912C46.748 98.36 46.684 98.812 46.628 99.268C46.572 99.716 46.528 100.152 46.496 100.576C46.464 100.992 46.452 101.348 46.46 101.644C46.78 101.612 47.072 101.584 47.336 101.56C47.6 101.528 47.856 101.504 48.104 101.488C48.352 101.472 48.608 101.46 48.872 101.452C49.136 101.444 49.432 101.44 49.76 101.44C49.752 101.016 49.744 100.552 49.736 100.048C49.728 99.536 49.724 99.04 49.724 98.56C49.732 98.08 49.748 97.64 49.772 97.24C49.796 96.84 49.832 96.532 49.88 96.316L53.072 96.52C52.992 96.968 52.92 97.472 52.856 98.032C52.792 98.584 52.732 99.168 52.676 99.784C52.628 100.4 52.584 101.036 52.544 101.692C52.512 102.34 52.488 102.984 52.472 103.624C52.456 104.256 52.452 104.872 52.46 105.472C52.468 106.064 52.488 106.616 52.52 107.128L50.684 107.224ZM61.4683 101.404C61.5003 101.756 61.5123 102.152 61.5043 102.592C61.5043 103.032 61.4963 103.472 61.4803 103.912C61.4643 104.352 61.4483 104.772 61.4323 105.172C61.4163 105.564 61.4123 105.892 61.4203 106.156L59.8243 106.228C59.8243 106.172 59.8243 106.08 59.8243 105.952C59.8323 105.824 59.8363 105.692 59.8363 105.556C59.8363 105.412 59.8363 105.276 59.8363 105.148C59.8443 105.02 59.8483 104.924 59.8483 104.86C59.8483 104.428 59.7923 104.184 59.6803 104.128C59.5763 104.072 59.4083 104.224 59.1763 104.584C58.9603 104.944 58.6683 105.276 58.3003 105.58C57.9403 105.876 57.5443 106.1 57.1123 106.252C56.6883 106.404 56.2483 106.46 55.7923 106.42C55.3363 106.388 54.9123 106.216 54.5203 105.904C54.2883 105.728 54.1003 105.516 53.9563 105.268C53.8203 105.02 53.7163 104.752 53.6443 104.464C53.5723 104.176 53.5323 103.884 53.5243 103.588C53.5243 103.284 53.5483 102.988 53.5963 102.7C53.6843 102.116 53.8763 101.584 54.1723 101.104C54.4683 100.624 54.8323 100.208 55.2643 99.856C55.7043 99.496 56.1923 99.2 56.7283 98.968C57.2643 98.736 57.8203 98.572 58.3963 98.476C58.8123 98.412 59.2723 98.376 59.7763 98.368C60.2883 98.352 60.8403 98.388 61.4323 98.476L61.3243 100.816C60.2203 100.656 59.2723 100.696 58.4803 100.936C57.6963 101.168 57.0883 101.548 56.6563 102.076C56.3203 102.5 56.1243 102.868 56.0683 103.18C56.0123 103.484 56.0523 103.7 56.1883 103.828C56.3323 103.948 56.5523 103.964 56.8483 103.876C57.1443 103.78 57.4803 103.544 57.8563 103.168C58.1523 102.864 58.4203 102.548 58.6603 102.22C58.9003 101.884 59.1003 101.596 59.2603 101.356L61.4683 101.404ZM66.1085 102.7C66.2445 102.356 66.2845 102.064 66.2285 101.824C66.1725 101.584 66.0685 101.416 65.9165 101.32C65.7725 101.216 65.6045 101.192 65.4125 101.248C65.2205 101.304 65.0525 101.452 64.9085 101.692C64.7965 101.876 64.7125 102.092 64.6565 102.34C64.6005 102.58 64.5645 102.816 64.5485 103.048C64.5325 103.248 64.5245 103.496 64.5245 103.792C64.5245 104.08 64.5245 104.38 64.5245 104.692C64.5245 105.004 64.5245 105.308 64.5245 105.604C64.5325 105.9 64.5365 106.152 64.5365 106.36L62.6165 106.408C62.5605 106.24 62.5005 105.968 62.4365 105.592C62.3725 105.208 62.3125 104.772 62.2565 104.284C62.2085 103.796 62.1685 103.276 62.1365 102.724C62.1045 102.164 62.0845 101.62 62.0765 101.092C62.0765 100.564 62.0925 100.072 62.1245 99.616C62.1565 99.16 62.2165 98.788 62.3045 98.5L65.3045 98.62C65.2965 98.652 65.2765 98.728 65.2445 98.848C65.2125 98.968 65.1765 99.104 65.1365 99.256C65.1045 99.4 65.0685 99.54 65.0285 99.676C64.9885 99.812 64.9605 99.916 64.9445 99.988C65.3045 99.812 65.6765 99.652 66.0605 99.508C66.4445 99.356 66.8085 99.268 67.1525 99.244C67.5045 99.212 67.8245 99.26 68.1125 99.388C68.4085 99.508 68.6485 99.748 68.8325 100.108C68.9045 100.26 68.9565 100.468 68.9885 100.732C69.0205 100.996 69.0325 101.276 69.0245 101.572C69.0165 101.868 68.9845 102.156 68.9285 102.436C68.8725 102.716 68.7925 102.952 68.6885 103.144L66.1085 102.7ZM76.7248 96.316C76.7248 96.5 76.7368 96.764 76.7608 97.108C76.7848 97.444 76.8128 97.828 76.8448 98.26C76.8768 98.684 76.9088 99.136 76.9408 99.616C76.9728 100.088 76.9968 100.552 77.0128 101.008C77.0288 101.456 77.0328 101.88 77.0248 102.28C77.0248 102.672 77.0048 103 76.9648 103.264C76.9408 103.424 76.9128 103.58 76.8808 103.732C76.8488 103.884 76.8048 104.04 76.7488 104.2C76.6848 104.36 76.6088 104.516 76.5208 104.668C76.4408 104.812 76.3568 104.952 76.2688 105.088C75.9728 105.488 75.6048 105.82 75.1648 106.084C74.7328 106.348 74.2688 106.52 73.7728 106.6C73.2848 106.688 72.7888 106.676 72.2848 106.564C71.7808 106.452 71.3168 106.22 70.8928 105.868C70.7568 105.756 70.6368 105.636 70.5328 105.508C70.4288 105.38 70.3328 105.248 70.2448 105.112C70.1088 104.904 70.0088 104.68 69.9448 104.44C69.8808 104.2 69.8528 103.956 69.8608 103.708C69.8768 103.46 69.9288 103.22 70.0168 102.988C70.1048 102.748 70.2368 102.524 70.4128 102.316C70.5968 102.108 70.7848 101.932 70.9768 101.788C71.3848 101.468 71.8528 101.248 72.3808 101.128C72.9168 101.008 73.4728 100.94 74.0488 100.924C74.0888 100.932 74.1248 100.936 74.1568 100.936C74.1888 100.936 74.2248 100.944 74.2648 100.96C74.2088 100.64 74.1408 100.26 74.0608 99.82C73.9808 99.38 73.9008 98.944 73.8208 98.512C73.7408 98.08 73.6688 97.692 73.6048 97.348C73.5488 97.004 73.5088 96.768 73.4848 96.64L76.7248 96.316ZM72.2488 102.868C72.0328 103.068 71.9008 103.272 71.8528 103.48C71.8048 103.688 71.8248 103.876 71.9128 104.044C72.0088 104.204 72.1608 104.332 72.3688 104.428C72.5768 104.524 72.8248 104.556 73.1128 104.524C73.4408 104.5 73.7408 104.388 74.0128 104.188C74.2928 103.98 74.4768 103.708 74.5648 103.372C74.5968 103.244 74.6048 103.116 74.5888 102.988C74.5808 102.852 74.5408 102.732 74.4688 102.628C74.3968 102.516 74.2968 102.432 74.1688 102.376C74.0408 102.312 73.8768 102.288 73.6768 102.304C73.4288 102.32 73.1808 102.372 72.9328 102.46C72.6848 102.54 72.4568 102.676 72.2488 102.868ZM89.3619 98.668C89.4099 98.892 89.4499 99.172 89.4819 99.508C89.5139 99.836 89.5419 100.184 89.5659 100.552C89.5899 100.912 89.6059 101.268 89.6139 101.62C89.6219 101.964 89.6259 102.26 89.6259 102.508C89.6259 102.876 89.5939 103.252 89.5299 103.636C89.4659 104.012 89.3659 104.364 89.2299 104.692C89.0939 105.012 88.9219 105.296 88.7139 105.544C88.5139 105.784 88.2739 105.952 87.9939 106.048C87.7139 106.152 87.3899 106.168 87.0219 106.096C86.6619 106.032 86.2619 105.848 85.8219 105.544C85.6139 105.4 85.4099 105.24 85.2099 105.064C85.0179 104.888 84.8379 104.704 84.6699 104.512C84.5019 104.32 84.3539 104.128 84.2259 103.936C84.0979 103.744 83.9979 103.556 83.9259 103.372C83.7499 103.636 83.5619 103.912 83.3619 104.2C83.1699 104.488 82.9539 104.76 82.7139 105.016C82.4739 105.272 82.2099 105.5 81.9219 105.7C81.6339 105.892 81.3099 106.028 80.9499 106.108C80.6699 106.172 80.3939 106.18 80.1219 106.132C79.8099 106.1 79.5379 106.008 79.3059 105.856C79.0819 105.696 78.8859 105.5 78.7179 105.268C78.5499 105.036 78.4099 104.78 78.2979 104.5C78.1939 104.212 78.1099 103.916 78.0459 103.612C77.9659 103.228 77.9019 102.812 77.8539 102.364C77.8059 101.916 77.7739 101.464 77.7579 101.008C77.7419 100.552 77.7419 100.108 77.7579 99.676C77.7739 99.236 77.8059 98.828 77.8539 98.452L81.3579 98.56C81.3019 98.768 81.2339 99.06 81.1539 99.436C81.0819 99.812 81.0099 100.212 80.9379 100.636C80.8739 101.06 80.8259 101.48 80.7939 101.896C80.7619 102.312 80.7619 102.664 80.7939 102.952C80.8339 103.232 80.9139 103.424 81.0339 103.528C81.1619 103.624 81.3499 103.568 81.5979 103.36C81.8779 103.12 82.0939 102.868 82.2459 102.604C82.4059 102.332 82.5339 102.06 82.6299 101.788C82.7259 101.516 82.8139 101.244 82.8939 100.972C82.9739 100.7 83.0779 100.436 83.2059 100.18L84.4899 100.204C84.6259 100.484 84.7339 100.764 84.8139 101.044C84.8939 101.324 84.9899 101.604 85.1019 101.884C85.2859 102.38 85.4699 102.76 85.6539 103.024C85.8379 103.28 86.0059 103.44 86.1579 103.504C86.3179 103.568 86.4579 103.548 86.5779 103.444C86.6979 103.332 86.7899 103.156 86.8539 102.916C86.9179 102.668 86.9499 102.368 86.9499 102.016C86.9499 101.656 86.9059 101.26 86.8179 100.828C86.7779 100.628 86.7339 100.424 86.6859 100.216C86.6379 100 86.5899 99.8 86.5419 99.616C86.5019 99.424 86.4619 99.26 86.4219 99.124C86.3819 98.988 86.3499 98.888 86.3259 98.824L89.3619 98.668ZM96.0081 99.424C96.4161 99.904 96.7001 100.464 96.8601 101.104C97.0281 101.736 97.0681 102.372 96.9801 103.012C96.9001 103.644 96.6881 104.236 96.3441 104.788C96.0081 105.34 95.5401 105.772 94.9401 106.084C94.5161 106.316 94.0681 106.428 93.5961 106.42C93.1241 106.42 92.6721 106.304 92.2401 106.072C91.9361 105.904 91.6641 105.688 91.4241 105.424C91.1921 105.152 90.9921 104.856 90.8241 104.536C90.6641 104.208 90.5441 103.864 90.4641 103.504C90.3841 103.136 90.3521 102.772 90.3681 102.412C90.3921 101.796 90.4921 101.252 90.6681 100.78C90.8441 100.3 91.0801 99.892 91.3761 99.556C91.6721 99.22 92.0161 98.96 92.4081 98.776C92.8081 98.592 93.2201 98.492 93.6441 98.476C94.0681 98.452 94.4841 98.52 94.8921 98.68C95.3081 98.832 95.6801 99.08 96.0081 99.424ZM94.0521 103.9C94.2521 103.78 94.4201 103.62 94.5561 103.42C94.6921 103.212 94.7881 102.988 94.8441 102.748C94.9001 102.5 94.9161 102.248 94.8921 101.992C94.8681 101.736 94.7961 101.504 94.6761 101.296C94.6521 101.24 94.6121 101.18 94.5561 101.116C94.4281 100.948 94.2601 100.828 94.0521 100.756C93.8521 100.676 93.6401 100.688 93.4161 100.792C93.2801 100.856 93.1601 100.964 93.0561 101.116C92.9521 101.26 92.8681 101.428 92.8041 101.62C92.7401 101.812 92.6921 102.02 92.6601 102.244C92.6361 102.46 92.6321 102.668 92.6481 102.868C92.6721 103.124 92.7281 103.34 92.8161 103.516C92.9041 103.692 93.0121 103.824 93.1401 103.912C93.2761 103.992 93.4241 104.032 93.5841 104.032C93.7441 104.032 93.9001 103.988 94.0521 103.9ZM101.745 102.7C101.881 102.356 101.921 102.064 101.865 101.824C101.809 101.584 101.705 101.416 101.553 101.32C101.409 101.216 101.241 101.192 101.049 101.248C100.857 101.304 100.689 101.452 100.545 101.692C100.433 101.876 100.349 102.092 100.293 102.34C100.237 102.58 100.201 102.816 100.185 103.048C100.169 103.248 100.161 103.496 100.161 103.792C100.161 104.08 100.161 104.38 100.161 104.692C100.161 105.004 100.161 105.308 100.161 105.604C100.169 105.9 100.173 106.152 100.173 106.36L98.2532 106.408C98.1972 106.24 98.1372 105.968 98.0732 105.592C98.0092 105.208 97.9492 104.772 97.8932 104.284C97.8452 103.796 97.8052 103.276 97.7732 102.724C97.7412 102.164 97.7212 101.62 97.7132 101.092C97.7132 100.564 97.7292 100.072 97.7612 99.616C97.7932 99.16 97.8532 98.788 97.9412 98.5L100.941 98.62C100.933 98.652 100.913 98.728 100.881 98.848C100.849 98.968 100.813 99.104 100.773 99.256C100.741 99.4 100.705 99.54 100.665 99.676C100.625 99.812 100.597 99.916 100.581 99.988C100.941 99.812 101.313 99.652 101.697 99.508C102.081 99.356 102.445 99.268 102.789 99.244C103.141 99.212 103.461 99.26 103.749 99.388C104.045 99.508 104.285 99.748 104.469 100.108C104.541 100.26 104.593 100.468 104.625 100.732C104.657 100.996 104.669 101.276 104.661 101.572C104.653 101.868 104.621 102.156 104.565 102.436C104.509 102.716 104.429 102.952 104.325 103.144L101.745 102.7ZM108.678 96.76C108.638 96.952 108.582 97.244 108.51 97.636C108.438 98.02 108.37 98.428 108.306 98.86C108.242 99.284 108.186 99.688 108.138 100.072C108.09 100.456 108.074 100.74 108.09 100.924C108.25 100.908 108.47 100.844 108.75 100.732C109.03 100.62 109.314 100.492 109.602 100.348C109.898 100.204 110.17 100.06 110.418 99.916C110.674 99.764 110.858 99.64 110.97 99.544L111.774 101.632C111.606 101.744 111.39 101.856 111.126 101.968C110.87 102.072 110.606 102.168 110.334 102.256C110.07 102.344 109.814 102.42 109.566 102.484C109.326 102.548 109.138 102.584 109.002 102.592C109.114 102.736 109.274 102.88 109.482 103.024C109.69 103.168 109.918 103.296 110.166 103.408C110.414 103.512 110.666 103.6 110.922 103.672C111.186 103.744 111.426 103.78 111.642 103.78L111.426 106.048C111.09 106.08 110.726 106.048 110.334 105.952C109.95 105.848 109.582 105.704 109.23 105.52C108.878 105.328 108.562 105.108 108.282 104.86C108.01 104.612 107.822 104.356 107.718 104.092C107.71 104.132 107.702 104.18 107.694 104.236C107.694 104.284 107.69 104.384 107.682 104.536C107.674 104.688 107.662 104.908 107.646 105.196C107.638 105.476 107.622 105.86 107.598 106.348L105.918 106.468C105.806 106.108 105.714 105.664 105.642 105.136C105.578 104.608 105.53 104.04 105.498 103.432C105.474 102.816 105.462 102.18 105.462 101.524C105.462 100.868 105.474 100.232 105.498 99.616C105.53 98.992 105.566 98.412 105.606 97.876C105.654 97.332 105.706 96.864 105.762 96.472L108.678 96.76ZM115.182 100.768C115.15 100.992 115.114 101.284 115.074 101.644C115.042 101.996 115.006 102.372 114.966 102.772C114.934 103.172 114.902 103.58 114.87 103.996C114.838 104.404 114.806 104.78 114.774 105.124C114.75 105.46 114.73 105.748 114.714 105.988C114.698 106.22 114.69 106.36 114.69 106.408L113.046 106.552C112.958 106.4 112.874 106.18 112.794 105.892C112.722 105.596 112.658 105.268 112.602 104.908C112.546 104.54 112.498 104.152 112.458 103.744C112.418 103.336 112.394 102.944 112.386 102.568C112.378 102.184 112.382 101.832 112.398 101.512C112.422 101.184 112.462 100.92 112.518 100.72L115.182 100.768ZM113.934 99.928C113.79 99.928 113.65 99.9 113.514 99.844C113.386 99.788 113.274 99.712 113.178 99.616C113.082 99.512 113.006 99.392 112.95 99.256C112.894 99.12 112.866 98.976 112.866 98.824C112.866 98.52 112.97 98.264 113.178 98.056C113.386 97.84 113.638 97.732 113.934 97.732C114.23 97.732 114.482 97.84 114.69 98.056C114.898 98.264 115.002 98.52 115.002 98.824C115.002 98.976 114.974 99.12 114.918 99.256C114.862 99.392 114.786 99.512 114.69 99.616C114.594 99.712 114.478 99.788 114.342 99.844C114.214 99.9 114.078 99.928 113.934 99.928ZM118.461 98.2C118.469 98.256 118.473 98.328 118.473 98.416C118.473 98.504 118.473 98.596 118.473 98.692C118.473 98.788 118.469 98.88 118.461 98.968C118.461 99.056 118.461 99.132 118.461 99.196C118.637 99.028 118.837 98.876 119.061 98.74C119.293 98.596 119.533 98.48 119.781 98.392C120.037 98.296 120.297 98.232 120.561 98.2C120.825 98.16 121.085 98.16 121.341 98.2C121.589 98.24 121.829 98.328 122.061 98.464C122.293 98.592 122.493 98.768 122.661 98.992C122.781 99.152 122.877 99.34 122.949 99.556C123.029 99.772 123.089 100 123.129 100.24C123.177 100.48 123.209 100.72 123.225 100.96C123.249 101.2 123.261 101.424 123.261 101.632C123.261 101.92 123.249 102.268 123.225 102.676C123.209 103.076 123.193 103.492 123.177 103.924C123.169 104.348 123.173 104.764 123.189 105.172C123.205 105.58 123.249 105.928 123.321 106.216L120.345 106.192C120.305 105.976 120.293 105.684 120.309 105.316C120.333 104.948 120.373 104.56 120.429 104.152C120.485 103.744 120.545 103.348 120.609 102.964C120.681 102.572 120.741 102.248 120.789 101.992C120.813 101.856 120.833 101.724 120.849 101.596C120.865 101.46 120.877 101.328 120.885 101.2C120.901 100.792 120.853 100.492 120.741 100.3C120.629 100.108 120.481 100 120.297 99.976C120.113 99.944 119.909 99.988 119.685 100.108C119.469 100.22 119.269 100.388 119.085 100.612C118.901 100.828 118.749 101.088 118.629 101.392C118.517 101.696 118.469 102.016 118.485 102.352C118.493 102.584 118.509 102.888 118.533 103.264C118.565 103.632 118.589 104.012 118.605 104.404C118.621 104.796 118.629 105.172 118.629 105.532C118.629 105.884 118.609 106.16 118.569 106.36L115.689 106.168C115.777 105.576 115.849 104.944 115.905 104.272C115.961 103.592 115.989 102.904 115.989 102.208C115.997 101.512 115.977 100.828 115.929 100.156C115.889 99.484 115.813 98.856 115.701 98.272L118.461 98.2ZM126.244 105.04C126.308 105.136 126.416 105.26 126.568 105.412C126.72 105.556 126.892 105.708 127.084 105.868C127.452 106.164 127.784 106.356 128.08 106.444C128.384 106.532 128.656 106.54 128.896 106.468C129.144 106.396 129.356 106.256 129.532 106.048C129.708 105.848 129.856 105.604 129.976 105.316C130.096 105.02 130.184 104.696 130.24 104.344C130.296 103.992 130.324 103.632 130.324 103.264C129.924 103.552 129.484 103.796 129.004 103.996C128.532 104.188 128.032 104.316 127.504 104.38C127.392 104.388 127.276 104.396 127.156 104.404C127.044 104.404 126.924 104.396 126.796 104.38C126.684 104.364 126.564 104.348 126.436 104.332C126.308 104.308 126.184 104.276 126.064 104.236C125.944 104.196 125.82 104.152 125.692 104.104C125.572 104.048 125.444 103.976 125.308 103.888C125.212 103.84 125.088 103.756 124.936 103.636C124.888 103.588 124.836 103.532 124.78 103.468C124.732 103.404 124.676 103.34 124.612 103.276C124.508 103.148 124.416 103.02 124.336 102.892C124.304 102.82 124.272 102.744 124.24 102.664C124.216 102.584 124.192 102.508 124.168 102.436C124.144 102.356 124.124 102.28 124.108 102.208C124.1 102.128 124.088 102.044 124.072 101.956C124.056 101.868 124.048 101.788 124.048 101.716C124.048 101.636 124.052 101.552 124.06 101.464C124.068 101.384 124.076 101.308 124.084 101.236C124.092 101.156 124.104 101.084 124.12 101.02C124.136 100.932 124.152 100.856 124.168 100.792C124.192 100.72 124.22 100.652 124.252 100.588C124.268 100.524 124.288 100.464 124.312 100.408C124.344 100.344 124.38 100.276 124.42 100.204C124.452 100.14 124.484 100.084 124.516 100.036C124.548 99.98 124.584 99.92 124.624 99.856C125.08 99.248 125.604 98.784 126.196 98.464C126.788 98.144 127.412 97.928 128.068 97.816C128.732 97.704 129.408 97.676 130.096 97.732C130.792 97.788 131.472 97.888 132.136 98.032L131.74 100.66C131.452 100.54 131.108 100.452 130.708 100.396C130.308 100.34 129.892 100.32 129.46 100.336C129.036 100.344 128.624 100.388 128.224 100.468C127.824 100.548 127.484 100.664 127.204 100.816C126.964 100.944 126.764 101.096 126.604 101.272C126.452 101.44 126.368 101.604 126.352 101.764C126.336 101.916 126.404 102.056 126.556 102.184C126.708 102.304 126.964 102.38 127.324 102.412C127.548 102.428 127.784 102.412 128.032 102.364C128.288 102.308 128.524 102.244 128.74 102.172C129.18 102.012 129.544 101.836 129.832 101.644C129.976 101.556 130.096 101.472 130.192 101.392C130.288 101.312 130.368 101.244 130.432 101.188C130.544 101.092 130.664 101.036 130.792 101.02C130.928 100.996 131.056 101.004 131.176 101.044C131.304 101.076 131.42 101.132 131.524 101.212C131.628 101.292 131.712 101.392 131.776 101.512C131.904 101.752 132 102.048 132.064 102.4C132.128 102.744 132.164 103.108 132.172 103.492C132.188 103.876 132.176 104.264 132.136 104.656C132.104 105.048 132.052 105.412 131.98 105.748C131.956 105.86 131.928 105.968 131.896 106.072C131.872 106.176 131.844 106.272 131.812 106.36C131.62 106.912 131.352 107.368 131.008 107.728C130.664 108.096 130.276 108.372 129.844 108.556C129.42 108.748 128.968 108.848 128.488 108.856C128.016 108.872 127.544 108.8 127.072 108.64C126.608 108.48 126.164 108.236 125.74 107.908C125.316 107.588 124.944 107.184 124.624 106.696L126.244 105.04Z" fill="#4F9E1C"/>
</g>
<defs>
<clipPath id="clip0_4_5289">
<rect width="164" height="164" fill="white"/>
</clipPath>
</defs>
</svg>
