<svg width="130" height="130" viewBox="0 0 130 130" fill="none" xmlns="http://www.w3.org/2000/svg">
<path d="M60.0167 36.5573C70.8981 36.5573 80.7504 40.9677 87.8812 48.0996C93.5157 53.7342 97.4506 61.0672 98.8553 69.2632H95.6089C94.2403 61.9495 90.675 55.4109 85.6218 50.3578C79.0689 43.8048 70.0158 39.7519 60.0167 39.7519C50.0175 39.7519 40.9645 43.8048 34.4115 50.3578C27.8586 56.9108 23.8057 65.9638 23.8057 75.963C23.8057 85.9622 27.8586 95.0153 34.4115 101.568C40.9645 108.121 50.0175 112.174 60.0167 112.174C70.0158 112.174 79.0689 108.121 85.6218 101.568C86.0804 101.11 86.5258 100.638 86.9603 100.156H91.1239C90.1189 101.447 89.0355 102.673 87.8812 103.828C80.7504 110.958 70.8981 115.37 60.0167 115.37C49.1352 115.37 39.2829 110.96 32.1522 103.828C25.0214 96.6968 20.6099 86.8445 20.6099 75.963C20.6099 65.0815 25.0202 55.2292 32.1522 48.0984C39.2829 40.9677 49.134 36.5573 60.0167 36.5573Z" fill="#4F9E1C"/>
<path fill-rule="evenodd" clip-rule="evenodd" d="M106.198 69.2608C109.795 69.8759 132.365 61.2477 116.807 38.9347C116.807 38.9347 114.938 47.1704 107.357 49.4165C99.7763 51.6627 94.9783 60.5953 102.488 69.0959C102.488 69.0959 119.736 58.3336 116.463 46.506C116.463 46.5048 121.218 56.5677 106.198 69.2608Z" fill="#4F9E1C"/>
<path fill-rule="evenodd" clip-rule="evenodd" d="M95.2637 54.7609C93.2439 54.2397 83.4974 44.4524 96.8369 36.4634C96.8369 36.4634 95.8812 41.1952 99.3081 44.1431C102.735 47.0909 103.143 52.8723 97.2365 55.5445C97.2365 55.5445 90.7654 45.892 95.242 40.4922C95.2432 40.491 90.4067 44.6245 95.2637 54.7609Z" fill="#4F9E1C"/>
<path d="M57.6679 80.004L54.5239 79.284C54.0679 79.188 53.7239 79.204 53.4919 79.332C53.2599 79.452 53.1039 79.652 53.0239 79.932C52.9519 80.204 52.9359 80.532 52.9759 80.916C53.0159 81.292 53.0799 81.684 53.1679 82.092C53.1679 82.108 53.1679 82.124 53.1679 82.14C53.1759 82.156 53.1799 82.172 53.1799 82.188C53.4599 82.188 53.7919 82.184 54.1759 82.176C54.5599 82.168 54.9559 82.156 55.3639 82.14C55.7799 82.116 56.1839 82.092 56.5759 82.068C56.9759 82.044 57.3239 82.016 57.6199 81.984L57.5719 83.484C57.2759 83.516 56.9439 83.544 56.5759 83.568C56.2159 83.592 55.8479 83.612 55.4719 83.628C55.1039 83.636 54.7439 83.64 54.3919 83.64C54.0399 83.64 53.7279 83.636 53.4559 83.628C53.5199 83.956 53.5879 84.308 53.6599 84.684C53.7399 85.052 53.8199 85.424 53.8999 85.8C53.9799 86.168 54.0559 86.52 54.1279 86.856C54.2079 87.2 54.2759 87.496 54.3319 87.744L51.6439 87.84L51.3799 84.732C51.3639 84.572 51.3479 84.416 51.3319 84.264C51.3159 84.104 51.2959 83.936 51.2719 83.76C51.2239 83.76 51.1359 83.76 51.0079 83.76C50.8879 83.76 50.7559 83.764 50.6119 83.772C50.4759 83.772 50.3439 83.776 50.2159 83.784C50.0879 83.784 49.9959 83.784 49.9399 83.784L49.9159 82.332L51.1159 82.308L51.0439 81.756C51.0279 81.572 51.0079 81.388 50.9839 81.204C50.9599 81.02 50.9359 80.824 50.9119 80.616C50.8799 80.248 50.8679 79.88 50.8759 79.512C50.8839 79.144 50.9279 78.8 51.0079 78.48C51.0959 78.16 51.2279 77.872 51.4039 77.616C51.5879 77.36 51.8399 77.152 52.1599 76.992C52.3519 76.896 52.5439 76.832 52.7359 76.8C52.9359 76.76 53.1359 76.74 53.3359 76.74C53.5439 76.74 53.7519 76.752 53.9599 76.776C54.1679 76.8 54.3719 76.828 54.5719 76.86C54.8599 76.908 55.1959 76.964 55.5799 77.028C55.9639 77.092 56.3359 77.16 56.6959 77.232C57.0639 77.296 57.3959 77.356 57.6919 77.412C57.9959 77.468 58.2079 77.508 58.3279 77.532L57.6679 80.004ZM62.9772 83.1C63.1132 82.756 63.1532 82.464 63.0972 82.224C63.0412 81.984 62.9372 81.816 62.7852 81.72C62.6412 81.616 62.4732 81.592 62.2812 81.648C62.0892 81.704 61.9212 81.852 61.7772 82.092C61.6652 82.276 61.5812 82.492 61.5252 82.74C61.4692 82.98 61.4332 83.216 61.4172 83.448C61.4012 83.648 61.3932 83.896 61.3932 84.192C61.3932 84.48 61.3932 84.78 61.3932 85.092C61.3932 85.404 61.3932 85.708 61.3932 86.004C61.4012 86.3 61.4052 86.552 61.4052 86.76L59.4852 86.808C59.4292 86.64 59.3692 86.368 59.3052 85.992C59.2412 85.608 59.1812 85.172 59.1252 84.684C59.0772 84.196 59.0372 83.676 59.0052 83.124C58.9732 82.564 58.9532 82.02 58.9452 81.492C58.9452 80.964 58.9612 80.472 58.9932 80.016C59.0252 79.56 59.0852 79.188 59.1732 78.9L62.1732 79.02C62.1652 79.052 62.1452 79.128 62.1132 79.248C62.0812 79.368 62.0452 79.504 62.0052 79.656C61.9732 79.8 61.9372 79.94 61.8972 80.076C61.8572 80.212 61.8292 80.316 61.8132 80.388C62.1732 80.212 62.5452 80.052 62.9292 79.908C63.3132 79.756 63.6772 79.668 64.0212 79.644C64.3732 79.612 64.6932 79.66 64.9812 79.788C65.2772 79.908 65.5172 80.148 65.7012 80.508C65.7732 80.66 65.8252 80.868 65.8572 81.132C65.8892 81.396 65.9012 81.676 65.8932 81.972C65.8852 82.268 65.8532 82.556 65.7972 82.836C65.7412 83.116 65.6612 83.352 65.5572 83.544L62.9772 83.1ZM73.2935 84.24C73.3335 84.848 73.2215 85.36 72.9575 85.776C72.7015 86.192 72.3495 86.508 71.9015 86.724C71.3095 87.02 70.6975 87.128 70.0655 87.048C69.4335 86.976 68.8415 86.752 68.2895 86.376C68.1775 86.288 68.0695 86.192 67.9655 86.088C67.8615 85.984 67.7535 85.876 67.6415 85.764C67.4255 85.5 67.2615 85.236 67.1495 84.972C66.8935 84.412 66.7535 83.824 66.7295 83.208C66.6895 82.592 66.7655 81.984 66.9575 81.384C67.0535 81.08 67.1815 80.784 67.3415 80.496C67.5015 80.2 67.6975 79.932 67.9295 79.692C68.1695 79.428 68.4375 79.208 68.7335 79.032C69.0135 78.864 69.3215 78.732 69.6575 78.636C69.8175 78.58 69.9855 78.544 70.1615 78.528C70.3375 78.504 70.5095 78.492 70.6775 78.492C70.9175 78.492 71.1695 78.532 71.4335 78.612C71.7055 78.684 71.9615 78.792 72.2015 78.936C72.4415 79.08 72.6535 79.256 72.8375 79.464C73.0295 79.664 73.1615 79.896 73.2335 80.16C73.3295 80.504 73.3335 80.848 73.2455 81.192C73.2055 81.376 73.1535 81.536 73.0895 81.672C73.0815 81.688 73.0735 81.708 73.0655 81.732C73.0575 81.756 73.0455 81.776 73.0295 81.792C73.0295 81.808 73.0135 81.84 72.9815 81.888C72.9655 81.92 72.9495 81.952 72.9335 81.984C72.9255 82.008 72.9095 82.032 72.8855 82.056C72.7415 82.288 72.5775 82.492 72.3935 82.668C72.2175 82.836 72.0375 82.984 71.8535 83.112C71.5175 83.344 71.1535 83.512 70.7615 83.616C70.3775 83.72 69.9575 83.772 69.5015 83.772C69.4935 83.772 69.4815 83.772 69.4655 83.772C69.4495 83.764 69.4375 83.76 69.4295 83.76C69.3975 83.992 69.4135 84.208 69.4775 84.408C69.5495 84.6 69.6495 84.76 69.7775 84.888C69.9055 85.016 70.0535 85.104 70.2215 85.152C70.3895 85.2 70.5535 85.188 70.7135 85.116C70.8735 85.044 71.0175 84.908 71.1455 84.708C71.2735 84.508 71.3655 84.22 71.4215 83.844L73.2935 84.24ZM69.6095 81.084C69.5375 81.196 69.4655 81.328 69.3935 81.48C69.3375 81.6 69.2935 81.724 69.2615 81.852C69.2295 81.98 69.2055 82.116 69.1895 82.26C69.3095 82.252 69.4415 82.24 69.5855 82.224C69.7375 82.208 69.8935 82.172 70.0535 82.116C70.2135 82.06 70.3695 81.98 70.5215 81.876C70.6815 81.772 70.8295 81.628 70.9655 81.444C71.0455 81.332 71.0975 81.216 71.1215 81.096C71.1455 80.976 71.1415 80.872 71.1095 80.784C71.0855 80.688 71.0295 80.612 70.9415 80.556C70.8615 80.5 70.7575 80.48 70.6295 80.496C70.3735 80.512 70.1335 80.612 69.9095 80.796C69.7895 80.876 69.6895 80.972 69.6095 81.084ZM76.6814 85.368C76.7934 85.536 76.9134 85.672 77.0414 85.776C77.1774 85.872 77.3094 85.948 77.4374 86.004C77.5654 86.052 77.6854 86.08 77.7974 86.088C77.9174 86.096 78.0254 86.088 78.1214 86.064C78.2814 86.008 78.3814 85.924 78.4214 85.812C78.4694 85.692 78.4054 85.58 78.2294 85.476C78.1174 85.412 77.9854 85.352 77.8334 85.296C77.6814 85.24 77.5574 85.192 77.4614 85.152C77.0054 85.016 76.5614 84.828 76.1294 84.588C75.6974 84.34 75.3094 84.024 74.9654 83.64C74.6454 83.28 74.4094 82.884 74.2574 82.452C74.1054 82.012 74.0454 81.572 74.0774 81.132C74.1094 80.692 74.2334 80.268 74.4494 79.86C74.6734 79.444 74.9974 79.08 75.4214 78.768C75.6694 78.592 75.9374 78.444 76.2254 78.324C76.5214 78.196 76.8294 78.108 77.1494 78.06C77.4694 78.004 77.7894 77.992 78.1094 78.024C78.4374 78.056 78.7574 78.14 79.0694 78.276C79.3654 78.396 79.6534 78.564 79.9334 78.78C80.2134 78.988 80.4574 79.256 80.6654 79.584C80.8734 79.904 81.0294 80.292 81.1334 80.748C81.2454 81.196 81.2734 81.72 81.2174 82.32L78.8894 82.584C78.8654 82.32 78.8094 82.06 78.7214 81.804C78.6334 81.548 78.5174 81.328 78.3734 81.144C78.2374 80.952 78.0734 80.812 77.8814 80.724C77.6974 80.628 77.4854 80.612 77.2454 80.676C77.0694 80.716 76.9174 80.788 76.7894 80.892C76.6614 80.996 76.5654 81.12 76.5014 81.264C76.4454 81.4 76.4254 81.552 76.4414 81.72C76.4654 81.888 76.5414 82.052 76.6694 82.212C76.8614 82.46 77.1534 82.696 77.5454 82.92C77.9214 83.088 78.2974 83.268 78.6734 83.46C79.0574 83.644 79.4134 83.88 79.7414 84.168C79.8774 84.304 79.9934 84.452 80.0894 84.612C80.1854 84.764 80.2614 84.924 80.3174 85.092C80.3814 85.252 80.4174 85.42 80.4254 85.596C80.4334 85.772 80.4214 85.94 80.3894 86.1C80.3654 86.188 80.3414 86.272 80.3174 86.352C80.2934 86.424 80.2614 86.492 80.2214 86.556C80.1814 86.628 80.1414 86.696 80.1014 86.76C80.0614 86.832 80.0174 86.896 79.9694 86.952C79.6414 87.328 79.2894 87.58 78.9134 87.708C78.5374 87.836 78.1534 87.864 77.7614 87.792C77.3774 87.728 76.9974 87.576 76.6214 87.336C76.2534 87.104 75.9174 86.816 75.6134 86.472L76.6814 85.368ZM82.2644 86.532C82.1204 86.164 82.0044 85.712 81.9164 85.176C81.8364 84.632 81.7804 84.052 81.7484 83.436C81.7164 82.82 81.7044 82.184 81.7124 81.528C81.7204 80.864 81.7404 80.224 81.7724 79.608C81.8044 78.992 81.8444 78.42 81.8924 77.892C81.9484 77.356 82.0044 76.904 82.0604 76.536L85.1804 76.74C85.0604 77.124 84.9524 77.492 84.8564 77.844C84.7604 78.188 84.6724 78.536 84.5924 78.888C84.5204 79.24 84.4524 79.604 84.3884 79.98C84.3244 80.348 84.2684 80.752 84.2204 81.192C84.1804 81.44 84.1484 81.688 84.1244 81.936C84.1084 82.184 84.0924 82.428 84.0764 82.668C84.1164 82.612 84.1484 82.56 84.1724 82.512C84.1964 82.456 84.2244 82.404 84.2564 82.356L84.4004 82.092C84.4164 82.076 84.4284 82.06 84.4364 82.044C84.4524 82.02 84.4684 81.996 84.4844 81.972C84.5004 81.956 84.5124 81.94 84.5204 81.924C84.5284 81.9 84.5404 81.88 84.5564 81.864C84.7724 81.52 85.0364 81.168 85.3484 80.808C85.7084 80.312 86.0844 79.94 86.4764 79.692C86.8764 79.436 87.2684 79.288 87.6524 79.248C88.0364 79.208 88.4004 79.264 88.7444 79.416C89.0884 79.568 89.3884 79.8 89.6444 80.112C89.9084 80.424 90.1164 80.808 90.2684 81.264C90.4284 81.712 90.5084 82.216 90.5084 82.776C90.5004 83.52 90.5364 84.276 90.6164 85.044C90.6964 85.812 90.7924 86.56 90.9044 87.288L88.1444 87.516C88.1284 86.828 88.1324 86.124 88.1564 85.404C88.1804 84.684 88.1844 84 88.1684 83.352C88.1444 82.728 88.0804 82.252 87.9764 81.924C87.8724 81.596 87.7404 81.38 87.5804 81.276C87.4284 81.172 87.2564 81.164 87.0644 81.252C86.8724 81.34 86.6764 81.488 86.4764 81.696C86.2364 81.952 86.0004 82.288 85.7684 82.704C85.5364 83.12 85.3164 83.556 85.1084 84.012C84.9084 84.468 84.7284 84.916 84.5684 85.356C84.4084 85.796 84.2804 86.168 84.1844 86.472L82.2644 86.532Z" fill="#4F9E1C"/>
</svg>
